<mxfile host="app.diagrams.net" agent="Mozilla/5.0 (Windows NT 10.0; Win64; x64) AppleWebKit/537.36 (KHTML, like Gecko) Chrome/131.0.0.0 Safari/537.36 Edg/131.0.0.0" version="25.0.1">
  <diagram id="WI9T0HZ2pTsCkuznbFz-" name="Page-1">
    <mxGraphModel dx="2310" dy="1245" grid="0" gridSize="10" guides="1" tooltips="1" connect="1" arrows="1" fold="1" page="1" pageScale="1" pageWidth="1169" pageHeight="827" background="#ffffff" math="0" shadow="0">
      <root>
        <mxCell id="0" />
        <mxCell id="1" parent="0" />
        <mxCell id="izj6aGMY5wUGhT8EYzV--47" value="" style="edgeStyle=orthogonalEdgeStyle;rounded=0;orthogonalLoop=1;jettySize=auto;html=1;fillColor=#d5e8d4;strokeColor=#82b366;fontColor=#000000;" edge="1" parent="1" source="izj6aGMY5wUGhT8EYzV--12">
          <mxGeometry relative="1" as="geometry">
            <mxPoint x="310" y="370" as="targetPoint" />
            <Array as="points">
              <mxPoint x="310" y="520" />
            </Array>
          </mxGeometry>
        </mxCell>
        <mxCell id="izj6aGMY5wUGhT8EYzV--59" style="edgeStyle=orthogonalEdgeStyle;rounded=0;orthogonalLoop=1;jettySize=auto;html=1;fontColor=#000000;" edge="1" parent="1" source="izj6aGMY5wUGhT8EYzV--12">
          <mxGeometry relative="1" as="geometry">
            <mxPoint x="1078.6149999999998" y="220" as="targetPoint" />
          </mxGeometry>
        </mxCell>
        <mxCell id="izj6aGMY5wUGhT8EYzV--12" value="" style="shape=image;verticalLabelPosition=bottom;labelBackgroundColor=#ffffff;verticalAlign=top;aspect=fixed;imageAspect=0;image=data:image/svg+xml,PHN2ZyB4bWxuczpjYz0iaHR0cDovL2NyZWF0aXZlY29tbW9ucy5vcmcvbnMjIiB4bWxuczpkYz0iaHR0cDovL3B1cmwub3JnL2RjL2VsZW1lbnRzLzEuMS8iIHhtbG5zOmlua3NjYXBlPSJodHRwOi8vd3d3Lmlua3NjYXBlLm9yZy9uYW1lc3BhY2VzL2lua3NjYXBlIiB4bWxuczpyZGY9Imh0dHA6Ly93d3cudzMub3JnLzE5OTkvMDIvMjItcmRmLXN5bnRheC1ucyMiIHhtbG5zOnNvZGlwb2RpPSJodHRwOi8vc29kaXBvZGkuc291cmNlZm9yZ2UubmV0L0RURC9zb2RpcG9kaS0wLmR0ZCIgeG1sbnM6c3ZnPSJodHRwOi8vd3d3LnczLm9yZy8yMDAwL3N2ZyIgeG1sbnM9Imh0dHA6Ly93d3cudzMub3JnLzIwMDAvc3ZnIiB4bWxuczp4bGluaz0iaHR0cDovL3d3dy53My5vcmcvMTk5OS94bGluayIgdmVyc2lvbj0iMS4xIiBpZD0ic3ZnNDg4OTYiIGlua3NjYXBlOnZlcnNpb249IjAuOTIuMyAoMjQwNTU0NiwgMjAxOC0wMy0xMSkiIHNvZGlwb2RpOmRvY25hbWU9ImFwaV9hcHBzLnN2ZyIgeD0iMHB4IiB5PSIwcHgiIHZpZXdCb3g9IjAgMCA3NS41MiA2NC41MiIgc3R5bGU9ImVuYWJsZS1iYWNrZ3JvdW5kOm5ldyAwIDAgNzUuNTIgNjQuNTI7IiB4bWw6c3BhY2U9InByZXNlcnZlIj4mI3hhOzxmaWx0ZXIgaWQ9ImZpbHRlcl8yIj4mI3hhOwk8ZmVHYXVzc2lhbkJsdXIgaWQ9ImZlR2F1c3NpYW5CbHVyNDg4NDUiIHN0ZERldmlhdGlvbj0iMiIvPiYjeGE7PC9maWx0ZXI+JiN4YTs8c29kaXBvZGk6bmFtZWR2aWV3IGJvcmRlcmNvbG9yPSIjNjY2NjY2IiBib3JkZXJvcGFjaXR5PSIxIiBmaXQtbWFyZ2luLWJvdHRvbT0iMCIgZml0LW1hcmdpbi1sZWZ0PSIwIiBmaXQtbWFyZ2luLXJpZ2h0PSIwIiBmaXQtbWFyZ2luLXRvcD0iMCIgZ3JpZHRvbGVyYW5jZT0iMTAiIGd1aWRldG9sZXJhbmNlPSIxMCIgaWQ9Im5hbWVkdmlldzQ4ODk4IiBpbmtzY2FwZTpjdXJyZW50LWxheWVyPSJzdmc0ODg5NiIgaW5rc2NhcGU6Y3g9IjU3LjkzMjgyOCIgaW5rc2NhcGU6Y3k9IjUwLjYxMzU1MSIgaW5rc2NhcGU6cGFnZW9wYWNpdHk9IjAiIGlua3NjYXBlOnBhZ2VzaGFkb3c9IjIiIGlua3NjYXBlOndpbmRvdy1oZWlnaHQ9IjEwMTciIGlua3NjYXBlOndpbmRvdy1tYXhpbWl6ZWQ9IjEiIGlua3NjYXBlOndpbmRvdy13aWR0aD0iMTkyMCIgaW5rc2NhcGU6d2luZG93LXg9Ii04IiBpbmtzY2FwZTp3aW5kb3cteT0iLTgiIGlua3NjYXBlOnpvb209IjUuMTc2NDI5OSIgb2JqZWN0dG9sZXJhbmNlPSIxMCIgcGFnZWNvbG9yPSIjZmZmZmZmIiBzaG93Z3JpZD0iZmFsc2UiPiYjeGE7CTwvc29kaXBvZGk6bmFtZWR2aWV3PiYjeGE7PGcgaWQ9InNoYWRvdzQ0MDItMyIgdHJhbnNmb3JtPSJ0cmFuc2xhdGUoMC4zNDU1MTQ1NiwtMjIuMzIyMykiPiYjeGE7CTxnIGlkPSJwYXRoNDg4NTUiIGlua3NjYXBlOmNvbm5lY3Rvci1jdXJ2YXR1cmU9IjAiIHN0eWxlPSJmaWx0ZXI6dXJsKCNmaWx0ZXJfMik7Ij4mI3hhOwkJPHBhdGggc3R5bGU9Im9wYWNpdHk6MC4yMjtmaWxsOiM1QjlCRDU7IiBkPSJNMCw4NS44YzAsMS42NywxLjM2LDMuMDIsMy4wMiwzLjAySDcyLjVjMS42NiwwLDMuMDItMS4zNSwzLjAyLTMuMDJWMzguNTNIMFY4NS44eiIvPiYjeGE7CTwvZz4mI3hhOzwvZz4mI3hhOzxwYXRoIGlkPSJwYXRoNDg4NTgiIGlua3NjYXBlOmNvbm5lY3Rvci1jdXJ2YXR1cmU9IjAiIHN0eWxlPSJmaWxsOiM1OUI0RDk7IiBkPSJNMCw2MS41YzAsMS42NywxLjM2LDMuMDIsMy4wMiwzLjAySDcyLjUgIGMxLjY2LDAsMy4wMi0xLjM1LDMuMDItMy4wMlYxNC4yM0gwVjYxLjV6Ii8+JiN4YTs8ZyBpZD0ic2hhZG93NDQwMy04IiB0cmFuc2Zvcm09InRyYW5zbGF0ZSgyMS4wMzg2MTUsLTI2LjcwMjU4KSI+JiN4YTsJPGcgaWQ9InBhdGg0ODg2MyIgaW5rc2NhcGU6Y29ubmVjdG9yLWN1cnZhdHVyZT0iMCIgc3R5bGU9ImZpbHRlcjp1cmwoI2ZpbHRlcl8yKTsiPiYjeGE7CQk8cGF0aCBzdHlsZT0ib3BhY2l0eTowLjIyO2ZpbGw6IzVCOUJENTsiIGQ9Ik00NS43NywzNC40NWMwLTEuODEtMS4zNi0zLjE3LTMuMTgtMy4xN2MtMS44MSwwLTMuMTcsMS4zNi0zLjE3LDMuMTd2MzEuODdoLTYuMTkgICAgYy0wLjYtMy42My0yLjQyLTcuMS01LjE0LTkuOTdjLTMuNjItMy42Mi04LjMtNS41OS0xMy40NC01LjU5Yy00Ljk4LDAtOS44MiwxLjk3LTEzLjQ0LDUuNTlDMCw1Ny41NiwwLDU5LjUyLDEuMjEsNjAuODggICAgYzEuMjEsMS4yMSwzLjE3LDEuMjEsNC41MywwYzIuNDItMi40Miw1LjU5LTMuNjIsOC45MS0zLjYyczYuNSwxLjM2LDguOTEsMy42MmM0Ljk5LDQuOTksNC45OSwxMi45OSwwLDE3LjgyICAgIGMtMi40MSwyLjQyLTUuNTksMy42My04LjkxLDMuNjNzLTYuNDktMS4zNi04LjkxLTMuNjNjLTEuMjEtMS4yLTMuMTctMS4yLTQuNTMsMEMwLDc5LjkxLDAsODEuODgsMS4yMSw4My4yNCAgICBjMy42MiwzLjYyLDguMzEsNS41OCwxMy40NCw1LjU4YzQuOTksMCw5LjgyLTEuOTYsMTMuNDQtNS41OGMzLjAzLTMuMDIsNC42OS02LjY1LDUuMjktMTAuNThoOS4yMWMxLjgyLDAsMy4xOC0xLjM2LDMuMTgtMy4xNyAgICBWMzQuNDV6Ii8+JiN4YTsJPC9nPiYjeGE7PC9nPiYjeGE7PHBhdGggaWQ9InBhdGg0ODg2NiIgaW5rc2NhcGU6Y29ubmVjdG9yLWN1cnZhdHVyZT0iMCIgc3R5bGU9ImZpbGw6I0ZGRkZGRjsiIGQ9Ik02Ni40Niw1Ljc3YzAtMS44MS0xLjM2LTMuMTctMy4xOC0zLjE3ICBjLTEuODEsMC0zLjE3LDEuMzYtMy4xNywzLjE3djMxLjg3aC02LjE5Yy0wLjYtMy42My0yLjQyLTcuMS01LjE0LTkuOTdjLTMuNjItMy42Mi04LjMtNS41OS0xMy40NC01LjU5ICBjLTQuOTgsMC05LjgyLDEuOTctMTMuNDQsNS41OWMtMS4yMSwxLjIxLTEuMjEsMy4xNywwLDQuNTNjMS4yMSwxLjIxLDMuMTcsMS4yMSw0LjUzLDBjMi40Mi0yLjQyLDUuNTktMy42Miw4LjkxLTMuNjIgIHM2LjUsMS4zNiw4LjkxLDMuNjJjNC45OSw0Ljk5LDQuOTksMTIuOTksMCwxNy44MmMtMi40MSwyLjQyLTUuNTksMy42My04LjkxLDMuNjNzLTYuNDktMS4zNi04LjkxLTMuNjNjLTEuMjEtMS4yLTMuMTctMS4yLTQuNTMsMCAgYy0xLjIxLDEuMjEtMS4yMSwzLjE4LDAsNC41NGMzLjYyLDMuNjIsOC4zMSw1LjU4LDEzLjQ0LDUuNThjNC45OSwwLDkuODItMS45NiwxMy40NC01LjU4YzMuMDMtMy4wMiw0LjY5LTYuNjUsNS4yOS0xMC41OGg5LjIxICBjMS44MiwwLDMuMTgtMS4zNiwzLjE4LTMuMTdWNS43N3oiLz4mI3hhOzxnIGlkPSJzaGFkb3c0NDA0LTEzIiB0cmFuc2Zvcm09InRyYW5zbGF0ZSg5LjU1OTIxNDYsLTM4LjQ4NCkiPiYjeGE7CTxnIGlkPSJwYXRoNDg4NzEiIGlua3NjYXBlOmNvbm5lY3Rvci1jdXJ2YXR1cmU9IjAiIHN0eWxlPSJmaWx0ZXI6dXJsKCNmaWx0ZXJfMik7Ij4mI3hhOwkJPHBhdGggc3R5bGU9Im9wYWNpdHk6MC4yMjtmaWxsOiM1QjlCRDU7IiBkPSJNMjYuMTMsNzMuNzJjLTMuMDIsMC01LjU5LDEuODEtNi44LDQuMzhINi4xOVY0Ni4yM2MwLTEuODEtMS4zNi0zLjE3LTMuMTctMy4xNyAgICBDMS4zNiw0My4wNiwwLDQ0LjU3LDAsNDYuMjN2MzUuMDRjMCwxLjgyLDEuMzYsMy4xNywzLjE3LDMuMTdoMTYuMzFjMS4yMSwyLjU3LDMuNzgsNC4zOCw2LjgsNC4zOGM0LjIzLDAsNy41NS0zLjMyLDcuNTUtNy41NSAgICBDMzMuNjgsNzcuMDQsMzAuMjEsNzMuNzIsMjYuMTMsNzMuNzJ6Ii8+JiN4YTsJPC9nPiYjeGE7PC9nPiYjeGE7PHBhdGggaWQ9InBhdGg0ODg3NCIgaW5rc2NhcGU6Y29ubmVjdG9yLWN1cnZhdHVyZT0iMCIgc3R5bGU9ImZpbGw6I0ZGRkZGRjsiIGQ9Ik0zNS4zNCwzMy4yNmMtMy4wMiwwLTUuNTksMS44MS02LjgsNC4zOEgxNS40VjUuNzcgIGMwLTEuODEtMS4zNi0zLjE3LTMuMTctMy4xN2MtMS42NiwwLTMuMDIsMS41MS0zLjAyLDMuMTd2MzUuMDRjMCwxLjgyLDEuMzYsMy4xNywzLjE3LDMuMTdoMTYuMzFjMS4yMSwyLjU3LDMuNzgsNC4zOCw2LjgsNC4zOCAgYzQuMjMsMCw3LjU1LTMuMzIsNy41NS03LjU1QzQyLjg5LDM2LjU4LDM5LjQyLDMzLjI2LDM1LjM0LDMzLjI2eiIvPiYjeGE7PGcgaWQ9InNoYWRvdzQ0MDUtMTgiIHRyYW5zZm9ybT0idHJhbnNsYXRlKDAuMzQ1NTE0NTYsLTcyLjE2NjkpIj4mI3hhOwk8ZyBpZD0icGF0aDQ4ODc5IiBpbmtzY2FwZTpjb25uZWN0b3ItY3VydmF0dXJlPSIwIiBzdHlsZT0iZmlsdGVyOnVybCgjZmlsdGVyXzIpOyI+JiN4YTsJCTxwYXRoIHN0eWxlPSJvcGFjaXR5OjAuMjI7ZmlsbDojNUI5QkQ1OyIgZD0iTTcyLjUsNzQuMzJIMy4wMkMxLjM2LDc0LjMyLDAsNzUuNjgsMCw3Ny4zNXYxMS40N2g3NS41MlY3Ny4zNSAgICBDNzUuNTIsNzUuNjgsNzQuMTYsNzQuMzIsNzIuNSw3NC4zMnoiLz4mI3hhOwk8L2c+JiN4YTs8L2c+JiN4YTs8cGF0aCBpZD0icGF0aDQ4ODgyIiBpbmtzY2FwZTpjb25uZWN0b3ItY3VydmF0dXJlPSIwIiBzdHlsZT0iZmlsbDojQTBBMUEyOyIgZD0iTTcyLjUsMC4xOEgzLjAyQzEuMzYsMC4xOCwwLDEuNTQsMCwzLjIxdjExLjQ3ICBoNzUuNTJWMy4yMUM3NS41MiwxLjU0LDc0LjE2LDAuMTgsNzIuNSwwLjE4eiIvPiYjeGE7PGcgaWQ9InNoYWRvdzQ0MDYtMjMiIHRyYW5zZm9ybT0idHJhbnNsYXRlKDAuMzQ1NTE0NTYsLTIyLjMyMjMpIj4mI3hhOwk8ZyBpZD0icGF0aDQ4ODg3IiBpbmtzY2FwZTpjb25uZWN0b3ItY3VydmF0dXJlPSIwIiBzdHlsZT0iZmlsdGVyOnVybCgjZmlsdGVyXzIpOyI+JiN4YTsJCTxwYXRoIHN0eWxlPSJvcGFjaXR5OjAuMjI7ZmlsbDojNUI5QkQ1OyIgZD0iTTMuMDIsMjQuNDhDMS4zNiwyNC40OCwwLDI1Ljg0LDAsMjcuNXYxMS4wM3Y0Ljk4Vjg1LjhjMCwxLjY3LDEuMzYsMy4wMiwzLjAyLDMuMDIgICAgaDMuMzJsNTkuNTItNjQuMzRIMy4wMnoiLz4mI3hhOwk8L2c+JiN4YTs8L2c+JiN4YTs8cGF0aCBpZD0icGF0aDQ4ODkwIiBpbmtzY2FwZTpjb25uZWN0b3ItY3VydmF0dXJlPSIwIiBzdHlsZT0iZmlsbDojRkZGRkZGO2ZpbGwtb3BhY2l0eTowLjI7IiBkPSJNMy4wMiwwLjE4ICBDMS4zNiwwLjE4LDAsMS41NCwwLDMuMnYxMS4wM3Y0Ljk4VjYxLjVjMCwxLjY3LDEuMzYsMy4wMiwzLjAyLDMuMDJoMy4zMkw2NS44NiwwLjE4SDMuMDJ6Ii8+JiN4YTs8L3N2Zz4=;fontColor=#000000;" vertex="1" parent="1">
          <mxGeometry x="950" y="410" width="257.23" height="220" as="geometry" />
        </mxCell>
        <mxCell id="izj6aGMY5wUGhT8EYzV--13" value="" style="shape=image;verticalLabelPosition=bottom;labelBackgroundColor=#ffffff;verticalAlign=top;aspect=fixed;imageAspect=0;image=data:image/svg+xml,PHN2ZyB4bWxuczpjYz0iaHR0cDovL2NyZWF0aXZlY29tbW9ucy5vcmcvbnMjIiB4bWxuczpkYz0iaHR0cDovL3B1cmwub3JnL2RjL2VsZW1lbnRzLzEuMS8iIHhtbG5zOmlua3NjYXBlPSJodHRwOi8vd3d3Lmlua3NjYXBlLm9yZy9uYW1lc3BhY2VzL2lua3NjYXBlIiB4bWxuczpyZGY9Imh0dHA6Ly93d3cudzMub3JnLzE5OTkvMDIvMjItcmRmLXN5bnRheC1ucyMiIHhtbG5zOnNvZGlwb2RpPSJodHRwOi8vc29kaXBvZGkuc291cmNlZm9yZ2UubmV0L0RURC9zb2RpcG9kaS0wLmR0ZCIgeG1sbnM6c3ZnPSJodHRwOi8vd3d3LnczLm9yZy8yMDAwL3N2ZyIgeG1sbnM9Imh0dHA6Ly93d3cudzMub3JnLzIwMDAvc3ZnIiB4bWxuczp4bGluaz0iaHR0cDovL3d3dy53My5vcmcvMTk5OS94bGluayIgdmVyc2lvbj0iMS4xIiBpZD0ic3ZnMTg1NTk3IiBpbmtzY2FwZTp2ZXJzaW9uPSIwLjkyLjMgKDI0MDU1NDYsIDIwMTgtMDMtMTEpIiBzb2RpcG9kaTpkb2NuYW1lPSJub2RlanNfc2RrLnN2ZyIgeD0iMHB4IiB5PSIwcHgiIHZpZXdCb3g9IjAgMCA5MC40MyA1NS4zOCIgc3R5bGU9ImVuYWJsZS1iYWNrZ3JvdW5kOm5ldyAwIDAgOTAuNDMgNTUuMzg7IiB4bWw6c3BhY2U9InByZXNlcnZlIj4mI3hhOzxzb2RpcG9kaTpuYW1lZHZpZXcgYm9yZGVyY29sb3I9IiM2NjY2NjYiIGJvcmRlcm9wYWNpdHk9IjEiIGZpdC1tYXJnaW4tYm90dG9tPSIwIiBmaXQtbWFyZ2luLWxlZnQ9IjAiIGZpdC1tYXJnaW4tcmlnaHQ9IjAiIGZpdC1tYXJnaW4tdG9wPSIwIiBncmlkdG9sZXJhbmNlPSIxMCIgZ3VpZGV0b2xlcmFuY2U9IjEwIiBpZD0ibmFtZWR2aWV3MTg1NTk5IiBpbmtzY2FwZTpjdXJyZW50LWxheWVyPSJzdmcxODU1OTciIGlua3NjYXBlOmN4PSI2MC4yODMzNTkiIGlua3NjYXBlOmN5PSIzNi45MTk2ODQiIGlua3NjYXBlOnBhZ2VvcGFjaXR5PSIwIiBpbmtzY2FwZTpwYWdlc2hhZG93PSIyIiBpbmtzY2FwZTp3aW5kb3ctaGVpZ2h0PSIxMDE3IiBpbmtzY2FwZTp3aW5kb3ctbWF4aW1pemVkPSIxIiBpbmtzY2FwZTp3aW5kb3ctd2lkdGg9IjE5MjAiIGlua3NjYXBlOndpbmRvdy14PSItOCIgaW5rc2NhcGU6d2luZG93LXk9Ii04IiBpbmtzY2FwZTp6b29tPSI5LjE5OTg0NjIiIG9iamVjdHRvbGVyYW5jZT0iMTAiIHBhZ2Vjb2xvcj0iI2ZmZmZmZiIgc2hvd2dyaWQ9ImZhbHNlIj4mI3hhOwk8L3NvZGlwb2RpOm5hbWVkdmlldz4mI3hhOzxnIGlkPSJnMTg1NTk1IiB0cmFuc2Zvcm09InRyYW5zbGF0ZSgtNy42NTAyMzc3LC03LjY0NzUwMDYpIj4mI3hhOwk8dGl0bGUgaWQ9InRpdGxlMTg1NTIwIj5QYWdlLTE8L3RpdGxlPiYjeGE7CTxnIGlkPSJncm91cDEyOTQtMSIgdHJhbnNmb3JtPSJ0cmFuc2xhdGUoNy42NSwtNy42NSkiPiYjeGE7CQk8dGl0bGUgaWQ9InRpdGxlMTg1NTIyIj5Ob2RlLmpzIFNESzwvdGl0bGU+JiN4YTsJCTxnIGlkPSJncm91cDEyOTUtMiIgdHJhbnNmb3JtPSJ0cmFuc2xhdGUoMzQuODEyNikiPiYjeGE7CQkJPHRpdGxlIGlkPSJ0aXRsZTE4NTUyNCI+U2hlZXQuMTI5NTwvdGl0bGU+JiN4YTsJCQk8ZyBpZD0ic2hhcGUxMjk2LTMiPiYjeGE7CQkJCTx0aXRsZSBpZD0idGl0bGUxODU1MjYiPlNoZWV0LjEyOTY8L3RpdGxlPiYjeGE7CQkJCTxwYXRoIGlkPSJwYXRoMTg1NTI4IiBpbmtzY2FwZTpjb25uZWN0b3ItY3VydmF0dXJlPSIwIiBzdHlsZT0iZmlsbDojNjk5RjYzOyIgZD0iTTkuODgsNzAuNjhjLTAuMywwLTAuNTktMC4wOC0wLjg2LTAuMjMgICAgICBMNi4zLDY4Ljg0Yy0wLjQxLTAuMjMtMC4yMS0wLjMxLTAuMDgtMC4zNmMwLjU1LTAuMTksMC42Ni0wLjIzLDEuMjQtMC41NmMwLjA2LTAuMDMsMC4xNC0wLjAyLDAuMiwwLjAybDIuMDksMS4yNCAgICAgIGMwLjA4LDAuMDQsMC4xOSwwLjA0LDAuMjYsMGw4LjE2LTQuNzFjMC4wOC0wLjA0LDAuMTMtMC4xMywwLjEzLTAuMjJ2LTkuNDNjMC0wLjA5LTAuMDUtMC4xOC0wLjEzLTAuMjJsLTguMTYtNC43MSAgICAgIGMtMC4wOC0wLjA1LTAuMTgtMC4wNS0wLjI1LDBMMS42LDU0LjZjLTAuMDgsMC4wNC0wLjEzLDAuMTMtMC4xMywwLjIydjkuNDNjMCwwLjA5LDAuMDUsMC4xNywwLjEyLDAuMjJsMi4yNCwxLjI5ICAgICAgYzEuMjIsMC42LDEuOTYtMC4xMSwxLjk2LTAuODN2LTkuM2MwLTAuMTMsMC4xLTAuMjQsMC4yNC0wLjI0aDEuMDNjMC4xMywwLDAuMjQsMC4xMSwwLjI0LDAuMjR2OS4zYzAsMS42Mi0wLjg4LDIuNTUtMi40MiwyLjU1ICAgICAgYy0wLjQ3LDAtMC44NCwwLTEuODgtMC41MWwtMi4xNC0xLjIzQzAuMzMsNjUuNDMsMCw2NC44NiwwLDY0LjI1di05LjQzYzAtMC42MSwwLjMzLTEuMTgsMC44Ni0xLjQ5bDguMTYtNC43MiAgICAgIGMwLjUyLTAuMjksMS4yMS0wLjI5LDEuNzIsMGw4LjE2LDQuNzJjMC41MywwLjMxLDAuODYsMC44OCwwLjg2LDEuNDl2OS40M2MwLDAuNjEtMC4zMywxLjE4LTAuODYsMS40OWwtOC4xNiw0LjcxICAgICAgQzEwLjQ4LDcwLjYsMTAuMTgsNzAuNjgsOS44OCw3MC42OHoiLz4mI3hhOwkJCTwvZz4mI3hhOwkJCTxnIGlkPSJzaGFwZTEyOTctNSIgdHJhbnNmb3JtPSJ0cmFuc2xhdGUoOC4wODE3NSwtNi40OTI1MykiPiYjeGE7CQkJCTx0aXRsZSBpZD0idGl0bGUxODU1MzEiPlNoZWV0LjEyOTc8L3RpdGxlPiYjeGE7CQkJCTxwYXRoIGlkPSJwYXRoMTg1NTMzIiBpbmtzY2FwZTpjb25uZWN0b3ItY3VydmF0dXJlPSIwIiBzdHlsZT0iZmlsbDojNjk5RjYzOyIgZD0iTTQuMzIsNzAuNjhDMC43NSw3MC42OCwwLDY5LjA0LDAsNjcuNjYgICAgICBjMC0wLjEzLDAuMTEtMC4yMywwLjI0LTAuMjNoMS4wNWMwLjEyLDAsMC4yMiwwLjA4LDAuMjQsMC4yYzAuMTYsMS4wNywwLjYzLDEuNjIsMi43OSwxLjYyYzEuNzIsMCwyLjQ2LTAuMzksMi40Ni0xLjMgICAgICBjMC0wLjUzLTAuMjEtMC45Mi0yLjg5LTEuMThjLTIuMjMtMC4yMy0zLjYxLTAuNzItMy42MS0yLjUxYzAtMS42NCwxLjM5LTIuNjMsMy43Mi0yLjYzYzIuNjEsMCwzLjkxLDAuOTEsNC4wNywyLjg2ICAgICAgYzAuMDEsMC4wNy0wLjAyLDAuMTMtMC4wNiwwLjE4Yy0wLjA1LDAuMDUtMC4xMSwwLjA4LTAuMTcsMC4wOEg2Ljc4Yy0wLjExLDAtMC4yMS0wLjA4LTAuMjMtMC4xOSAgICAgIEM2LjI5LDYzLjQzLDUuNjcsNjMuMDcsNCw2My4wN2MtMS44OCwwLTIuMSwwLjY2LTIuMSwxLjE1YzAsMC41OSwwLjI2LDAuNzYsMi43OSwxLjFjMi41MSwwLjMzLDMuNywwLjgsMy43LDIuNTYgICAgICBDOC4zOSw2OS42Niw2LjkxLDcwLjY4LDQuMzIsNzAuNjh6Ii8+JiN4YTsJCQk8L2c+JiN4YTsJCTwvZz4mI3hhOwkJPGcgaWQ9InNoYXBlMTI5OC03IiB0cmFuc2Zvcm09InRyYW5zbGF0ZSg1NS44NDQzLC0xNC44MDI2KSI+JiN4YTsJCQk8dGl0bGUgaWQ9InRpdGxlMTg1NTM3Ij5TaGVldC4xMjk4PC90aXRsZT4mI3hhOwkJCTxwYXRoIGlkPSJwYXRoMTg1NTM5IiBpbmtzY2FwZTpjb25uZWN0b3ItY3VydmF0dXJlPSIwIiBzdHlsZT0iZmlsbDojNjk5RjYzOyIgZD0iTTMuMTUsNjkuMTFjMCwwLjg2LTAuNzEsMS41Ny0xLjU4LDEuNTcgICAgIGMtMC44NSwwLTEuNTctMC43LTEuNTctMS41N2MwLTAuODksMC43My0xLjU4LDEuNTctMS41OEMyLjQyLDY3LjUzLDMuMTUsNjguMjIsMy4xNSw2OS4xMXogTTAuMjUsNjkuMSAgICAgYzAsMC43NCwwLjU5LDEuMzMsMS4zMiwxLjMzczEuMzItMC42MSwxLjMyLTEuMzNjMC0wLjczLTAuNi0xLjMxLTEuMzItMS4zMVMwLjI1LDY4LjM2LDAuMjUsNjkuMXogTTAuOTgsNjguMjJoMC42MSAgICAgYzAuMjEsMCwwLjYyLDAsMC42MiwwLjQ3YzAsMC4zMy0wLjIxLDAuMzktMC4zNCwwLjQzYzAuMjQsMC4wMiwwLjI2LDAuMTgsMC4yOSwwLjRjMC4wMiwwLjE1LDAuMDUsMC4zOSwwLjEsMC40N0gxLjg4ICAgICBjLTAuMDEtMC4wOC0wLjA2LTAuNTMtMC4wNi0wLjU2Yy0wLjAzLTAuMS0wLjA2LTAuMTUtMC4xOS0wLjE1SDEuMzJ2MC43MUgwLjk4VjY4LjIyeiBNMS4zMiw2OWgwLjI3YzAuMjMsMCwwLjI3LTAuMTYsMC4yNy0wLjI1ICAgICBjMC0wLjI0LTAuMTctMC4yNC0wLjI2LTAuMjRIMS4zMlY2OXoiLz4mI3hhOwkJPC9nPiYjeGE7CQk8ZyBpZD0ic2hhcGUxMjk5LTkiIHRyYW5zZm9ybT0idHJhbnNsYXRlKDAsLTIyLjkwNTgpIj4mI3hhOwkJCTx0aXRsZSBpZD0idGl0bGUxODU1NDIiPlNoZWV0LjEyOTk8L3RpdGxlPiYjeGE7CQkJPHBhdGggaWQ9InBhdGgxODU1NDQiIGlua3NjYXBlOmNvbm5lY3Rvci1jdXJ2YXR1cmU9IjAiIHN0eWxlPSJmaWxsOiMzRjU3NjU7IiBkPSJNMTkuNDEsNTYuNzJjMC0wLjM4LTAuMi0wLjczLTAuNTMtMC45MSAgICAgbC04LjY2LTQuOTljLTAuMTQtMC4wOC0wLjMxLTAuMTMtMC40Ny0wLjEzYy0wLjAyLDAtMC4wOCwwLTAuMDksMGMtMC4xNywwLTAuMzMsMC4wNS0wLjQ4LDAuMTNsLTguNjYsNC45OSAgICAgQzAuMiw1NS45OSwwLDU2LjM0LDAsNTYuNzJsMC4wMiwxMy40MWMwLDAuMTksMC4xLDAuMzYsMC4yNiwwLjQ1YzAuMTYsMC4xLDAuMzYsMC4xLDAuNTIsMGw1LjE0LTIuOTQgICAgIGMwLjMzLTAuMiwwLjUzLTAuNTQsMC41My0wLjkxdi02LjI3YzAtMC4zNywwLjItMC43MiwwLjUyLTAuOWwyLjE5LTEuMjdjMC4xNi0wLjA5LDAuMzQtMC4xNCwwLjUyLTAuMTQgICAgIGMwLjE4LDAsMC4zNywwLjA1LDAuNTIsMC4xNGwyLjIsMS4yN2MwLjMyLDAuMTgsMC41MiwwLjUzLDAuNTIsMC45djYuMjdjMCwwLjM3LDAuMiwwLjcyLDAuNTIsMC45MWw1LjE1LDIuOTQgICAgIGMwLjE2LDAuMSwwLjM2LDAuMSwwLjUyLDBjMC4xNi0wLjA5LDAuMjYtMC4yNiwwLjI2LTAuNDVMMTkuNDEsNTYuNzJ6Ii8+JiN4YTsJCTwvZz4mI3hhOwkJPGcgaWQ9InNoYXBlMTMwMC0xMSIgdHJhbnNmb3JtPSJ0cmFuc2xhdGUoNDcuMzM5OCwtMjAuNTA2MikiPiYjeGE7CQkJPHRpdGxlIGlkPSJ0aXRsZTE4NTU0NyI+U2hlZXQuMTMwMDwvdGl0bGU+JiN4YTsJCQk8cGF0aCBpZD0icGF0aDE4NTU0OSIgaW5rc2NhcGU6Y29ubmVjdG9yLWN1cnZhdHVyZT0iMCIgc3R5bGU9ImZpbGw6IzNGNTc2NTsiIGQ9Ik0xMy43MiwzNS44N2MtMC4xNi0wLjA5LTAuMzYtMC4wOS0wLjUyLDAuMDEgICAgIGMtMC4xNiwwLjA5LTAuMjUsMC4yNi0wLjI1LDAuNDV2MTMuMjljMCwwLjEzLTAuMDcsMC4yNS0wLjE5LDAuMzFjLTAuMTEsMC4wNy0wLjI1LDAuMDctMC4zNiwwbC0yLjE3LTEuMjUgICAgIGMtMC4zMi0wLjE4LTAuNzItMC4xOC0xLjA1LDBsLTguNjYsNUMwLjIsNTMuODcsMCw1NC4yMSwwLDU0LjU5djEwYzAsMC4zNywwLjIsMC43MSwwLjUyLDAuOWw4LjY2LDVjMC4zMywwLjE5LDAuNzMsMC4xOSwxLjA1LDAgICAgIGw4LjY2LTVjMC4zMy0wLjE5LDAuNTMtMC41MywwLjUzLTAuOVYzOS42NmMwLTAuMzgtMC4yMS0wLjczLTAuNTQtMC45MUwxMy43MiwzNS44N3ogTTEyLjkyLDYxLjNjMCwwLjA5LTAuMDUsMC4xOC0wLjEzLDAuMjMgICAgIGwtMi45NywxLjcxYy0wLjA4LDAuMDUtMC4xOSwwLjA1LTAuMjcsMGwtMi45Ny0xLjcxYy0wLjA4LTAuMDUtMC4xMy0wLjE0LTAuMTMtMC4yM3YtMy40M2MwLTAuMSwwLjA1LTAuMTgsMC4xMy0wLjIzbDIuOTctMS43MiAgICAgYzAuMDgtMC4wNCwwLjE4LTAuMDQsMC4yNywwbDIuOTcsMS43MmMwLjA4LDAuMDUsMC4xMywwLjEzLDAuMTMsMC4yM0wxMi45Miw2MS4zeiIvPiYjeGE7CQk8L2c+JiN4YTsJCTxnIGlkPSJncm91cDEzMDEtMTMiIHRyYW5zZm9ybT0idHJhbnNsYXRlKDcxLjA2OTcsLTIwLjc0MjQpIj4mI3hhOwkJCTx0aXRsZSBpZD0idGl0bGUxODU1NTIiPlNoZWV0LjEzMDE8L3RpdGxlPiYjeGE7CQkJPGcgaWQ9InNoYXBlMTMwMi0xNCI+JiN4YTsJCQkJPHRpdGxlIGlkPSJ0aXRsZTE4NTU1NCI+U2hlZXQuMTMwMjwvdGl0bGU+JiN4YTsJCQkJPHBhdGggaWQ9InBhdGgxODU1NTYiIGlua3NjYXBlOmNvbm5lY3Rvci1jdXJ2YXR1cmU9IjAiIHN0eWxlPSJmaWxsOiMzRjU3NjU7IiBkPSJNMTguODQsNTguMDFjMC4zMi0wLjE4LDAuNTItMC41MywwLjUyLTAuOSAgICAgIHYtMi40MmMwLTAuMzgtMC4yLTAuNzItMC41My0wLjkxbC04LjYtNC45OWMtMC4zMi0wLjE5LTAuNzItMC4xOS0xLjA1LDBsLTguNjYsNC45OUMwLjIsNTMuOTcsMCw1NC4zMiwwLDU0LjY5djEwICAgICAgYzAsMC4zNywwLjIsMC43MiwwLjUzLDAuOWw4LjYsNC45MWMwLjMyLDAuMTgsMC43MSwwLjE4LDEuMDMsMGw1LjItMi44OWMwLjE3LTAuMDksMC4yNy0wLjI3LDAuMjctMC40NSAgICAgIGMwLTAuMTktMC4xLTAuMzctMC4yNi0wLjQ2bC04LjcxLTVjLTAuMTctMC4xLTAuMjctMC4yNy0wLjI3LTAuNDZ2LTMuMTNjMC0wLjE5LDAuMS0wLjM2LDAuMjctMC40NWwyLjcxLTEuNTcgICAgICBjMC4xNi0wLjA5LDAuMzYtMC4wOSwwLjUyLDBsMi43MSwxLjU3YzAuMTYsMC4wOSwwLjI3LDAuMjYsMC4yNywwLjQ1djIuNDdjMCwwLjE4LDAuMSwwLjM2LDAuMjYsMC40NXMwLjM2LDAuMDksMC41MiwwICAgICAgTDE4Ljg0LDU4LjAxeiIvPiYjeGE7CQkJPC9nPiYjeGE7CQkJPGcgaWQ9InNoYXBlMTMwMy0xNiIgdHJhbnNmb3JtPSJ0cmFuc2xhdGUoNy44MTYxMywtOC45MTM2NikiPiYjeGE7CQkJCTx0aXRsZSBpZD0idGl0bGUxODU1NTkiPlNoZWV0LjEzMDM8L3RpdGxlPiYjeGE7CQkJCTxwYXRoIGlkPSJwYXRoMTg1NTYxIiBpbmtzY2FwZTpjb25uZWN0b3ItY3VydmF0dXJlPSIwIiBzdHlsZT0iZmlsbDojNjk5RjYzOyIgZD0iTTEuNzYsNjYuNDZjMC4wNi0wLjA0LDAuMTQtMC4wNCwwLjIsMCAgICAgIGwxLjY2LDAuOTZjMC4wNywwLjAzLDAuMSwwLjEsMC4xLDAuMTd2MS45MmMwLDAuMDctMC4wMywwLjE0LTAuMSwwLjE4bC0xLjY2LDAuOTVjLTAuMDYsMC4wNC0wLjE0LDAuMDQtMC4yLDBMMC4xLDY5LjY4ICAgICAgQzAuMDQsNjkuNjUsMCw2OS41OCwwLDY5LjUxdi0xLjkyYzAtMC4wNywwLjA0LTAuMTQsMC4xLTAuMTdMMS43Niw2Ni40NnoiLz4mI3hhOwkJCTwvZz4mI3hhOwkJPC9nPiYjeGE7CQk8ZyBpZD0iZ3JvdXAxMzA0LTE4IiB0cmFuc2Zvcm09InRyYW5zbGF0ZSgyMy43MjA4LC0yMC43MDc0KSI+JiN4YTsJCQk8dGl0bGUgaWQ9InRpdGxlMTg1NTY1Ij5TaGVldC4xMzA0PC90aXRsZT4mI3hhOwkJCTxnIGlkPSJzaGFwZTEzMDUtMTkiPiYjeGE7CQkJCTx0aXRsZSBpZD0idGl0bGUxODU1NjciPlhNTElEXzE0M188L3RpdGxlPiYjeGE7CQkJCSYjeGE7CQkJCQk8bGluZWFyR3JhZGllbnQgaWQ9InBhdGgxODU1NjlfMV8iIGdyYWRpZW50VW5pdHM9InVzZXJTcGFjZU9uVXNlIiB4MT0iLTYuMzE4NSIgeTE9IjYxLjExOTciIHgyPSIxNC4yNzMzIiB5Mj0iNjEuMTE5NyIgZ3JhZGllbnRUcmFuc2Zvcm09Im1hdHJpeCgwLjkzNzMgMCAwIC0xLjA2NjkgNS45MjIzIDEyNC44NjA1KSI+JiN4YTsJCQkJCTxzdG9wIG9mZnNldD0iMCIgc3R5bGU9InN0b3AtY29sb3I6IzQxODczRiIvPiYjeGE7CQkJCQk8c3RvcCBvZmZzZXQ9IjAuMzMiIHN0eWxlPSJzdG9wLWNvbG9yOiM0MThCM0QiLz4mI3hhOwkJCQkJPHN0b3Agb2Zmc2V0PSIwLjYzNSIgc3R5bGU9InN0b3AtY29sb3I6IzQxOTYzNyIvPiYjeGE7CQkJCQk8c3RvcCBvZmZzZXQ9IjAuOTMiIHN0eWxlPSJzdG9wLWNvbG9yOiMzRkE5MkQiLz4mI3hhOwkJCQkJPHN0b3Agb2Zmc2V0PSIxIiBzdHlsZT0ic3RvcC1jb2xvcjojM0ZBRTJBIi8+JiN4YTsJCQkJPC9saW5lYXJHcmFkaWVudD4mI3hhOwkJCQk8cGF0aCBpZD0icGF0aDE4NTU2OSIgaW5rc2NhcGU6Y29ubmVjdG9yLWN1cnZhdHVyZT0iMCIgc3R5bGU9ImZpbGw6dXJsKCNwYXRoMTg1NTY5XzFfKTsiIGQ9Ik0xMC4xNyw0OC44ICAgICAgYy0wLjMyLTAuMTgtMC43MS0wLjE4LTEuMDQsMGwtOC42MSw0Ljk3QzAuMiw1My45NiwwLDU0LjMsMCw1NC42N3Y5Ljk1YzAsMC4zNywwLjIsMC43MSwwLjUyLDAuOWw4LjYxLDQuOTggICAgICBjMC4zMywwLjE4LDAuNzIsMC4xOCwxLjA0LDBsOC42MS00Ljk4YzAuMzMtMC4xOSwwLjUyLTAuNTMsMC41Mi0wLjl2LTkuOTVjMC0wLjM3LTAuMTktMC43MS0wLjUyLTAuOUwxMC4xNyw0OC44eiIvPiYjeGE7CQkJPC9nPiYjeGE7CQkJPGcgaWQ9Imdyb3VwMTMwNi0yMyIgdHJhbnNmb3JtPSJ0cmFuc2xhdGUoMC4wMTU4MjQ0LC0wLjAxMTMwMzEpIj4mI3hhOwkJCQk8dGl0bGUgaWQ9InRpdGxlMTg1NTcyIj5TaGVldC4xMzA2PC90aXRsZT4mI3hhOwkJCQk8ZyBpZD0ic2hhcGUxMzA3LTI0IiB0cmFuc2Zvcm09InRyYW5zbGF0ZSgwLC01LjM4NzA4KSI+JiN4YTsJCQkJCTx0aXRsZSBpZD0idGl0bGUxODU1NzQiPlNoZWV0LjEzMDc8L3RpdGxlPiYjeGE7CQkJCQk8cGF0aCBpZD0icGF0aDE4NTU3NiIgaW5rc2NhcGU6Y29ubmVjdG9yLWN1cnZhdHVyZT0iMCIgc3R5bGU9ImZpbGw6bm9uZTsiIGQ9Ik05LjEsNTQuMmwtOC41OSw0Ljk3QzAuMTksNTkuMzYsMCw1OS43LDAsNjAuMDcgICAgICAgdjkuOTVjMCwwLjI0LDAuMDYsMC40OCwwLjIyLDAuNjZMOS45LDU0LjA5QzkuNjQsNTQuMDMsOS4zNCw1NC4wNiw5LjEsNTQuMnoiLz4mI3hhOwkJCQk8L2c+JiN4YTsJCQkJPGcgaWQ9InNoYXBlMTMwOC0yNiIgdHJhbnNmb3JtPSJ0cmFuc2xhdGUoOS45MjY0MiwtMC4wNzM0NzA1KSI+JiN4YTsJCQkJCTx0aXRsZSBpZD0idGl0bGUxODU1NzkiPlNoZWV0LjEzMDg8L3RpdGxlPiYjeGE7CQkJCQk8cGF0aCBpZD0icGF0aDE4NTU4MSIgaW5rc2NhcGU6Y29ubmVjdG9yLWN1cnZhdHVyZT0iMCIgc3R5bGU9ImZpbGw6bm9uZTsiIGQ9Ik0wLDcwLjY4YzAuMDgtMC4wMiwwLjE3LTAuMDYsMC4yNC0wLjEgICAgICAgbDkuMTMtNC45N2MwLjMyLTAuMTksMS4wNS0wLjUzLDEuMDUtMC45MXYtOS45NGMwLTAuMjgtMC42My0wLjUzLTAuODItMC43M0wwLDcwLjY4eiIvPiYjeGE7CQkJCTwvZz4mI3hhOwkJCQk8ZyBpZD0ic2hhcGUxMzA5LTI4IiB0cmFuc2Zvcm09InRyYW5zbGF0ZSgwLjE4MDg1KSI+JiN4YTsJCQkJCTx0aXRsZSBpZD0idGl0bGUxODU1ODQiPlNoZWV0LjEzMDk8L3RpdGxlPiYjeGE7CQkJCQkmI3hhOwkJCQkJCTxsaW5lYXJHcmFkaWVudCBpZD0icGF0aDE4NTU4Nl8xXyIgZ3JhZGllbnRVbml0cz0idXNlclNwYWNlT25Vc2UiIHgxPSItMy4zMDAzIiB5MT0iNjUuNjkwNyIgeDI9IjE3LjAzMzYiIHkyPSI2NS42OTA3IiBncmFkaWVudFRyYW5zZm9ybT0ibWF0cml4KDAuOTI2NSAwIDAgLTEuMDc5MyAzLjA1OCAxMzAuNTcyOSkiPiYjeGE7CQkJCQkJPHN0b3Agb2Zmc2V0PSIwLjE0IiBzdHlsZT0ic3RvcC1jb2xvcjojNDE4NzNGIi8+JiN4YTsJCQkJCQk8c3RvcCBvZmZzZXQ9IjAuNDA1IiBzdHlsZT0ic3RvcC1jb2xvcjojNTRBMDQ0Ii8+JiN4YTsJCQkJCQk8c3RvcCBvZmZzZXQ9IjAuNzE1IiBzdHlsZT0ic3RvcC1jb2xvcjojNjZCODQ4Ii8+JiN4YTsJCQkJCQk8c3RvcCBvZmZzZXQ9IjAuOTEiIHN0eWxlPSJzdG9wLWNvbG9yOiM2Q0MwNEEiLz4mI3hhOwkJCQkJPC9saW5lYXJHcmFkaWVudD4mI3hhOwkJCQkJPHBhdGggaWQ9InBhdGgxODU1ODYiIGlua3NjYXBlOmNvbm5lY3Rvci1jdXJ2YXR1cmU9IjAiIHN0eWxlPSJmaWxsOnVybCgjcGF0aDE4NTU4Nl8xXyk7IiBkPSJNMTguNiw1My43OGwtOC42My00Ljk3ICAgICAgIGMtMC4wOS0wLjA1LTAuMTgtMC4wOC0wLjI3LTAuMTFMMCw2NS4yOWMwLjA4LDAuMSwwLjE4LDAuMTgsMC4yOSwwLjI0bDguNjUsNC45OGMwLjI1LDAuMTQsMC41NCwwLjE3LDAuODEsMC4xbDkuMDktMTYuNjUgICAgICAgQzE4Ljc3LDUzLjg5LDE4LjY5LDUzLjgzLDE4LjYsNTMuNzh6Ii8+JiN4YTsJCQkJPC9nPiYjeGE7CQkJPC9nPiYjeGE7CQkJPGcgaWQ9Imdyb3VwMTMxMC0zMiI+JiN4YTsJCQkJPHRpdGxlIGlkPSJ0aXRsZTE4NTU5MCI+U2hlZXQuMTMxMDwvdGl0bGU+JiN4YTsJCQk8L2c+JiN4YTsJCTwvZz4mI3hhOwk8L2c+JiN4YTs8L2c+JiN4YTs8L3N2Zz4=;fontColor=#000000;" vertex="1" parent="1">
          <mxGeometry x="1226.9999999999998" y="570" width="73.64" height="45" as="geometry" />
        </mxCell>
        <mxCell id="izj6aGMY5wUGhT8EYzV--14" value="" style="shape=image;verticalLabelPosition=bottom;labelBackgroundColor=#ffffff;verticalAlign=top;aspect=fixed;imageAspect=0;image=data:image/svg+xml,PHN2ZyB4bWxuczpjYz0iaHR0cDovL2NyZWF0aXZlY29tbW9ucy5vcmcvbnMjIiB4bWxuczpkYz0iaHR0cDovL3B1cmwub3JnL2RjL2VsZW1lbnRzLzEuMS8iIHhtbG5zOmlua3NjYXBlPSJodHRwOi8vd3d3Lmlua3NjYXBlLm9yZy9uYW1lc3BhY2VzL2lua3NjYXBlIiB4bWxuczpyZGY9Imh0dHA6Ly93d3cudzMub3JnLzE5OTkvMDIvMjItcmRmLXN5bnRheC1ucyMiIHhtbG5zOnNvZGlwb2RpPSJodHRwOi8vc29kaXBvZGkuc291cmNlZm9yZ2UubmV0L0RURC9zb2RpcG9kaS0wLmR0ZCIgeG1sbnM6c3ZnPSJodHRwOi8vd3d3LnczLm9yZy8yMDAwL3N2ZyIgeG1sbnM9Imh0dHA6Ly93d3cudzMub3JnLzIwMDAvc3ZnIiB4bWxuczp4bGluaz0iaHR0cDovL3d3dy53My5vcmcvMTk5OS94bGluayIgdmVyc2lvbj0iMS4xIiBpZD0ic3ZnMTY4NTI4IiBpbmtzY2FwZTp2ZXJzaW9uPSIwLjkyLjMgKDI0MDU1NDYsIDIwMTgtMDMtMTEpIiBzb2RpcG9kaTpkb2NuYW1lPSJkb3RuZXQuc3ZnIiB4PSIwcHgiIHk9IjBweCIgdmlld0JveD0iMCAwIDQ4IDQ4IiBzdHlsZT0iZW5hYmxlLWJhY2tncm91bmQ6bmV3IDAgMCA0OCA0ODsiIHhtbDpzcGFjZT0icHJlc2VydmUiPiYjeGE7PHNvZGlwb2RpOm5hbWVkdmlldyBib3JkZXJjb2xvcj0iIzY2NjY2NiIgYm9yZGVyb3BhY2l0eT0iMSIgZml0LW1hcmdpbi1ib3R0b209IjAiIGZpdC1tYXJnaW4tbGVmdD0iMCIgZml0LW1hcmdpbi1yaWdodD0iMCIgZml0LW1hcmdpbi10b3A9IjAiIGdyaWR0b2xlcmFuY2U9IjEwIiBndWlkZXRvbGVyYW5jZT0iMTAiIGlkPSJuYW1lZHZpZXcxNjg1MzAiIGlua3NjYXBlOmN1cnJlbnQtbGF5ZXI9InN2ZzE2ODUyOCIgaW5rc2NhcGU6Y3g9IjQzLjc0ODEwNiIgaW5rc2NhcGU6Y3k9IjIxLjc5MTkwMiIgaW5rc2NhcGU6cGFnZW9wYWNpdHk9IjAiIGlua3NjYXBlOnBhZ2VzaGFkb3c9IjIiIGlua3NjYXBlOndpbmRvdy1oZWlnaHQ9IjEwMTciIGlua3NjYXBlOndpbmRvdy1tYXhpbWl6ZWQ9IjEiIGlua3NjYXBlOndpbmRvdy13aWR0aD0iMTkyMCIgaW5rc2NhcGU6d2luZG93LXg9Ii04IiBpbmtzY2FwZTp3aW5kb3cteT0iLTgiIGlua3NjYXBlOnpvb209IjkuMTY1MTI1OSIgb2JqZWN0dG9sZXJhbmNlPSIxMCIgcGFnZWNvbG9yPSIjZmZmZmZmIiBzaG93Z3JpZD0iZmFsc2UiPiYjeGE7CTwvc29kaXBvZGk6bmFtZWR2aWV3PiYjeGE7PGNpcmNsZSBpZD0iZWxsaXBzZTE2ODQ5NyIgc3R5bGU9ImZpbGw6IzVDMkQ5MTsiIGN4PSIyNCIgY3k9IjI0IiByPSIyNCIvPiYjeGE7PHBhdGggaWQ9InBhdGgxNjg1MDIiIGlua3NjYXBlOmNvbm5lY3Rvci1jdXJ2YXR1cmU9IjAiIHN0eWxlPSJmaWxsOiNGRkZGRkY7ZmlsbC1vcGFjaXR5OjAuMDk4OyIgZD0iTTcuMzYsNi43NSAgQy0yLjUzLDE1LjU3LTMuNCwzMC43NCw1LjQyLDQwLjY0UzI5LjQxLDUxLjQsMzkuMyw0Mi41OGMwLjY5LTAuNjEsMS4zNC0xLjI2LDEuOTUtMS45NUw3LjM2LDYuNzV6Ii8+JiN4YTs8cGF0aCBpZD0icGF0aDE2ODUwNyIgaW5rc2NhcGU6Y29ubmVjdG9yLWN1cnZhdHVyZT0iMCIgc3R5bGU9ImZpbGw6I0ZGRkZGRjsiIGQ9Ik01LjU1LDMwLjk0Yy0wLjI4LDAtMC41Ni0wLjExLTAuNzUtMC4zMiAgYy0wLjItMC4yLTAuMzEtMC40Ny0wLjMxLTAuNzVjMC0wLjI4LDAuMTEtMC41NSwwLjMxLTAuNzVDNSwyOC45MSw1LjI3LDI4LjgsNS41NSwyOC44YzAuMjgsMCwwLjU1LDAuMTEsMC43NSwwLjMyICBjMC4yLDAuMiwwLjMxLDAuNDcsMC4zMSwwLjc1YzAsMC4yOC0wLjExLDAuNTUtMC4zMSwwLjc1QzYuMTEsMzAuODIsNS44NCwzMC45NCw1LjU1LDMwLjk0eiIvPiYjeGE7PHBhdGggaWQ9InBhdGgxNjg1MTIiIGlua3NjYXBlOmNvbm5lY3Rvci1jdXJ2YXR1cmU9IjAiIHN0eWxlPSJmaWxsOiNGRkZGRkY7IiBkPSJNMjAuNDUsMzAuNzVoLTEuOTdsLTcuMDItMTAuOTEgIGMtMC4xOC0wLjI3LTAuMzItMC41NS0wLjQ0LTAuODVoLTAuMDZjMC4wNywwLjYyLDAuMDksMS4yNSwwLjA4LDEuODd2OS44OWgtMS42VjE3LjA4aDIuMDhsNi44NCwxMC43MSAgYzAuMjgsMC40NCwwLjQ3LDAuNzUsMC41NSwwLjkxaDAuMDRjLTAuMDgtMC42Ny0wLjExLTEuMzQtMC4xLTIuMDF2LTkuNjFoMS42VjMwLjc1eiIvPiYjeGE7PHBhdGggaWQ9InBhdGgxNjg1MTciIGlua3NjYXBlOmNvbm5lY3Rvci1jdXJ2YXR1cmU9IjAiIHN0eWxlPSJmaWxsOiNGRkZGRkY7IiBkPSJNMzEuMjcsMzAuNzVIMjRWMTcuMDhoNi45M3YxLjQ0aC01LjN2NC41NWg0Ljk0ICB2MS40NGgtNC45NHY0Ljc0aDUuNjRWMzAuNzV6Ii8+JiN4YTs8cGF0aCBpZD0icGF0aDE2ODUyMiIgaW5rc2NhcGU6Y29ubmVjdG9yLWN1cnZhdHVyZT0iMCIgc3R5bGU9ImZpbGw6I0ZGRkZGRjsiIGQ9Ik00MiwxOC41MmgtMy45N3YxMi4yM2gtMS42VjE4LjUySDMyLjV2LTEuNDRINDIgIFYxOC41MnoiLz4mI3hhOzwvc3ZnPg==;fontColor=#000000;direction=south;" vertex="1" parent="1">
          <mxGeometry x="1221.9999999999998" y="506" width="48" height="48" as="geometry" />
        </mxCell>
        <mxCell id="izj6aGMY5wUGhT8EYzV--15" value="" style="shape=image;verticalLabelPosition=bottom;labelBackgroundColor=#ffffff;verticalAlign=top;aspect=fixed;imageAspect=0;image=data:image/svg+xml,PHN2ZyB4bWxuczpjYz0iaHR0cDovL2NyZWF0aXZlY29tbW9ucy5vcmcvbnMjIiB4bWxuczpkYz0iaHR0cDovL3B1cmwub3JnL2RjL2VsZW1lbnRzLzEuMS8iIHhtbG5zOmlua3NjYXBlPSJodHRwOi8vd3d3Lmlua3NjYXBlLm9yZy9uYW1lc3BhY2VzL2lua3NjYXBlIiB4bWxuczpyZGY9Imh0dHA6Ly93d3cudzMub3JnLzE5OTkvMDIvMjItcmRmLXN5bnRheC1ucyMiIHhtbG5zOnNvZGlwb2RpPSJodHRwOi8vc29kaXBvZGkuc291cmNlZm9yZ2UubmV0L0RURC9zb2RpcG9kaS0wLmR0ZCIgeG1sbnM6c3ZnPSJodHRwOi8vd3d3LnczLm9yZy8yMDAwL3N2ZyIgeG1sbnM9Imh0dHA6Ly93d3cudzMub3JnLzIwMDAvc3ZnIiB4bWxuczp4bGluaz0iaHR0cDovL3d3dy53My5vcmcvMTk5OS94bGluayIgdmVyc2lvbj0iMS4xIiBpZD0ic3ZnMTk2OTUxIiBpbmtzY2FwZTp2ZXJzaW9uPSIwLjkyLjMgKDI0MDU1NDYsIDIwMTgtMDMtMTEpIiBzb2RpcG9kaTpkb2NuYW1lPSJweXRob25fdG9vbHNfYW5kX3Nkay5zdmciIHg9IjBweCIgeT0iMHB4IiB2aWV3Qm94PSIwIDAgNDggNDgiIHN0eWxlPSJlbmFibGUtYmFja2dyb3VuZDpuZXcgMCAwIDQ4IDQ4OyIgeG1sOnNwYWNlPSJwcmVzZXJ2ZSI+JiN4YTs8c29kaXBvZGk6bmFtZWR2aWV3IGJvcmRlcmNvbG9yPSIjNjY2NjY2IiBib3JkZXJvcGFjaXR5PSIxIiBmaXQtbWFyZ2luLWJvdHRvbT0iMCIgZml0LW1hcmdpbi1sZWZ0PSIwIiBmaXQtbWFyZ2luLXJpZ2h0PSIwIiBmaXQtbWFyZ2luLXRvcD0iMCIgZ3JpZHRvbGVyYW5jZT0iMTAiIGd1aWRldG9sZXJhbmNlPSIxMCIgaWQ9Im5hbWVkdmlldzE5Njk1MyIgaW5rc2NhcGU6Y3VycmVudC1sYXllcj0ic3ZnMTk2OTUxIiBpbmtzY2FwZTpjeD0iMzIuMDAwMDE1IiBpbmtzY2FwZTpjeT0iMzIuMDAwNTg2IiBpbmtzY2FwZTpwYWdlb3BhY2l0eT0iMCIgaW5rc2NhcGU6cGFnZXNoYWRvdz0iMiIgaW5rc2NhcGU6d2luZG93LWhlaWdodD0iMTAxNyIgaW5rc2NhcGU6d2luZG93LW1heGltaXplZD0iMSIgaW5rc2NhcGU6d2luZG93LXdpZHRoPSIxOTIwIiBpbmtzY2FwZTp3aW5kb3cteD0iLTgiIGlua3NjYXBlOndpbmRvdy15PSItOCIgaW5rc2NhcGU6em9vbT0iMTAuMjcyOTE3IiBvYmplY3R0b2xlcmFuY2U9IjEwIiBwYWdlY29sb3I9IiNmZmZmZmYiIHNob3dncmlkPSJmYWxzZSI+JiN4YTsJPC9zb2RpcG9kaTpuYW1lZHZpZXc+JiN4YTs8ZyBpZD0iZzE5Njk0OSIgdHJhbnNmb3JtPSJ0cmFuc2xhdGUoLTcuNjUsLTcuNjQ5MjgwNikiPiYjeGE7CTx0aXRsZSBpZD0idGl0bGUxOTY5MDUiPlBhZ2UtMTwvdGl0bGU+JiN4YTsJPGcgaWQ9Imdyb3VwMTE3Ny0xIiB0cmFuc2Zvcm09InRyYW5zbGF0ZSg3LjY1LC03LjYxMzQyKSI+JiN4YTsJCTx0aXRsZSBpZD0idGl0bGUxOTY5MDciPlB5dGhvbiBUb29scyBhbmQgU0RLPC90aXRsZT4mI3hhOwkJPGcgaWQ9Imdyb3VwMTE3OC0yIj4mI3hhOwkJCTx0aXRsZSBpZD0idGl0bGUxOTY5MDkiPlNoZWV0LjExNzg8L3RpdGxlPiYjeGE7CQkJPGcgaWQ9Imdyb3VwMTE3OS0zIiB0cmFuc2Zvcm09InRyYW5zbGF0ZSgwLC0xMi4zMTQ3KSI+JiN4YTsJCQkJPHRpdGxlIGlkPSJ0aXRsZTE5NjkxMSI+U2hlZXQuMTE3OTwvdGl0bGU+JiN4YTsJCQkJPGcgaWQ9InNoYXBlMTE4MC00Ij4mI3hhOwkJCQkJPHRpdGxlIGlkPSJ0aXRsZTE5NjkxMyI+U2hlZXQuMTE4MDwvdGl0bGU+JiN4YTsJCQkJCTxwYXRoIGlkPSJwYXRoMTk2OTE1IiBpbmtzY2FwZTpjb25uZWN0b3ItY3VydmF0dXJlPSIwIiBzdHlsZT0iZmlsbDojMzc3MkE0OyIgZD0iTTAsNTEuMTdjMC4wMi0wLjA2LDAuMDQtMC4xMywwLjA1LTAuMiAgICAgICBjMC4wNC0wLjcsMC4wNC0xLjQsMC4xMS0yLjFjMC4yNC0yLjI2LDAuNzYtNC40NCwyLjE4LTYuMjhjMS4xLTEuNDQsMi41NC0yLjMsNC4zMy0yLjU0YzAuMjUtMC4wMywwLjUxLTAuMDQsMC43Ni0wLjA0ICAgICAgIGM1LjM5LDAsMTAuNzksMCwxNi4xOCwwYzAuMzEsMCwwLjMxLDAsMC4zMi0wLjMyYzAtMC4zNy0wLjAyLTAuNzUsMC0xLjEyYzAuMDEtMC4yMy0wLjA3LTAuMjktMC4yOS0wLjI5ICAgICAgIGMtMi45OCwwLjAxLTUuOTUsMC4wMS04LjkzLDAuMDFjLTAuNywwLTEuMzktMC4wMS0yLjA5LDBjLTAuMTksMC0wLjI2LTAuMDUtMC4yNS0wLjI1YzAtMS44My0wLjAxLTMuNjcsMC01LjUgICAgICAgYzAuMDEtMC44MiwwLjQtMS41MSwwLjkzLTIuMTFjMC43NC0wLjg0LDEuNjktMS4zNiwyLjcxLTEuNzVjMS4yNi0wLjQ4LDIuNTctMC43MywzLjg5LTAuODljMS44My0wLjIzLDMuNjYtMC4yNSw1LjQ5LTAuMTcgICAgICAgYzEuOTcsMC4wOCwzLjkyLDAuMzUsNS43OCwxLjA3YzEuMjYsMC40OSwyLjQsMS4xNiwzLjIzLDIuMjZjMC42OSwwLjkxLDEuMDEsMS45MiwwLjk1LDMuMDhjLTAuMDUsMC45My0wLjAyLDEuODctMC4wMSwyLjgxICAgICAgIGMwLDEuNzMsMC4wMSwzLjQ2LDAuMDEsNS4xOWMwLDEuMDIsMC4wMiwyLjA0LTAuMDUsMy4wNmMtMC4xNCwyLjQtMS4yOSw0LjExLTMuNTEsNS4wNGMtMS4wMSwwLjQyLTIuMDYsMC42MS0zLjE0LDAuNjEgICAgICAgYy0zLjgyLDAtNy42NS0wLjAxLTExLjQ3LDBjLTEuMjIsMC0yLjM5LDAuMjctMy40NSwwLjkxYy0xLjQsMC44NS0yLjIsMi4xNS0yLjY1LDMuN2MtMC4yMiwwLjc3LTAuMzEsMS41Ny0wLjMyLDIuMzcgICAgICAgYzAsMS43MywwLDMuNDYsMCw1LjE5YzAsMC4zNSwwLDAuMzUtMC4zNCwwLjM1Yy0xLjI1LDAtMi40OSwwLjA0LTMuNzQsMC4wMWMtMS4yNy0wLjA0LTIuMzctMC41NC0zLjMyLTEuMzcgICAgICAgYy0xLjEyLTAuOTYtMS44Mi0yLjE5LTIuMzEtMy41NmMtMC40Ni0xLjI1LTAuNzMtMi41NC0wLjg0LTMuODZjLTAuMDgtMC44NC0wLjExLTEuNjgtMC4xNi0yLjUyICAgICAgIEMwLjA0LDUxLjg3LDAuMDIsNTEuNzgsMCw1MS42OUMwLDUxLjUyLDAsNTEuMzUsMCw1MS4xN3oiLz4mI3hhOwkJCQk8L2c+JiN4YTsJCQkJPGcgaWQ9InNoYXBlMTE4MS02IiB0cmFuc2Zvcm09InRyYW5zbGF0ZSgxNS4yMDMzLC0yNy44MzIpIj4mI3hhOwkJCQkJPHRpdGxlIGlkPSJ0aXRsZTE5NjkxOCI+U2hlZXQuMTE4MTwvdGl0bGU+JiN4YTsJCQkJCTxwYXRoIGlkPSJwYXRoMTk2OTIwIiBpbmtzY2FwZTpjb25uZWN0b3ItY3VydmF0dXJlPSIwIiBkPSJNMCw2MS4xNWMwLDEuMTksMC45NCwyLjE1LDIuMTEsMi4xNWMxLjE1LDAsMi4xMS0wLjk3LDIuMTEtMi4xMyAgICAgICBjMC0xLjE5LTAuOTUtMi4xNi0yLjExLTIuMTVDMC45Myw1OS4wMywwLDU5Ljk3LDAsNjEuMTV6Ii8+JiN4YTsJCQkJPC9nPiYjeGE7CQkJCTxnIGlkPSJzaGFwZTExODItOCIgdHJhbnNmb3JtPSJ0cmFuc2xhdGUoMTUuMjAzMywtMjcuODMyKSI+JiN4YTsJCQkJCTx0aXRsZSBpZD0idGl0bGUxOTY5MjMiPlNoZWV0LjExODI8L3RpdGxlPiYjeGE7CQkJCQk8cGF0aCBpZD0icGF0aDE5NjkyNSIgaW5rc2NhcGU6Y29ubmVjdG9yLWN1cnZhdHVyZT0iMCIgc3R5bGU9ImZpbGw6I0ZGRkZGRjsiIGQ9Ik0wLDYxLjE1YzAtMS4xOCwwLjkzLTIuMTIsMi4xMS0yLjEzICAgICAgIGMxLjE2LTAuMDEsMi4xMSwwLjk2LDIuMTEsMi4xNWMwLDEuMTYtMC45NiwyLjEzLTIuMTEsMi4xM0MwLjk0LDYzLjMsMCw2Mi4zNCwwLDYxLjE1eiIvPiYjeGE7CQkJCTwvZz4mI3hhOwkJCTwvZz4mI3hhOwkJCTxnIGlkPSJncm91cDExODMtMTAiIHRyYW5zZm9ybT0idHJhbnNsYXRlKDEyLjU5NCkiPiYjeGE7CQkJCTx0aXRsZSBpZD0idGl0bGUxOTY5MjkiPlNoZWV0LjExODM8L3RpdGxlPiYjeGE7CQkJCTxnIGlkPSJzaGFwZTExODQtMTEiPiYjeGE7CQkJCQk8dGl0bGUgaWQ9InRpdGxlMTk2OTMxIj5TaGVldC4xMTg0PC90aXRsZT4mI3hhOwkJCQkJPHBhdGggaWQ9InBhdGgxOTY5MzMiIGlua3NjYXBlOmNvbm5lY3Rvci1jdXJ2YXR1cmU9IjAiIHN0eWxlPSJmaWxsOiNGRkRBNEI7IiBkPSJNMzUuNDEsMzkuNjZjLTAuMDIsMC4wNy0wLjA1LDAuMTQtMC4wNSwwLjIxICAgICAgIGMtMC4wNCwwLjctMC4wNSwxLjQtMC4xMiwyLjA5Yy0wLjIzLDIuMjctMC43NSw0LjQ1LTIuMTcsNi4yOWMtMS4xLDEuNDQtMi41NCwyLjMtNC4zNCwyLjUzYy0wLjI1LDAuMDQtMC41LDAuMDUtMC43NiwwLjA1ICAgICAgIGMtNS4zOSwwLTEwLjc4LDAtMTYuMTcsMGMtMC4zMiwwLTAuMzIsMC0wLjMyLDAuMzJjMCwwLjM3LDAuMDEsMC43NSwwLDEuMTJjLTAuMDIsMC4yMywwLjA3LDAuMjksMC4yOCwwLjI5ICAgICAgIGMyLjk4LTAuMDEsNS45Ni0wLjAxLDguOTQtMC4wMWMwLjY5LDAsMS4zOSwwLjAxLDIuMDksMGMwLjE5LDAsMC4yNSwwLjA1LDAuMjUsMC4yNWMtMC4wMSwxLjgzLDAuMDEsMy42Ny0wLjAxLDUuNSAgICAgICBjLTAuMDEsMC44Mi0wLjM5LDEuNTEtMC45MywyLjExYy0wLjc0LDAuODMtMS42OCwxLjM2LTIuNywxLjc1Yy0xLjI2LDAuNDgtMi41NywwLjcyLTMuOSwwLjg5Yy0xLjgyLDAuMjMtMy42NSwwLjI1LTUuNDgsMC4xNyAgICAgICBjLTEuOTctMC4wOS0zLjkyLTAuMzUtNS43OC0xLjA3Yy0xLjI2LTAuNDktMi40LTEuMTYtMy4yNC0yLjI3Yy0wLjY4LTAuOS0xLTEuOTItMC45NC0zLjA3YzAuMDUtMC45MywwLjAxLTEuODcsMC4wMS0yLjgxICAgICAgIGMwLTEuNzMtMC4wMS0zLjQ2LTAuMDEtNS4xOWMwLTEuMDItMC4wMi0yLjA0LDAuMDQtMy4wNmMwLjE0LTIuNCwxLjI5LTQuMTEsMy41Mi01LjA0YzEtMC40MywyLjA2LTAuNjEsMy4xNC0wLjYxICAgICAgIGMzLjgyLDAsNy42NCwwLjAxLDExLjQ2LDBjMS4yMywwLDIuNC0wLjI3LDMuNDYtMC45MWMxLjQtMC44NSwyLjItMi4xNSwyLjY0LTMuN2MwLjIyLTAuNzcsMC4zMi0xLjU3LDAuMzItMi4zNyAgICAgICBjMC4wMS0xLjczLDAtMy40NiwwLTUuMmMwLTAuMzQsMC0wLjM0LDAuMzUtMC4zNGMxLjI0LDAsMi40OS0wLjA0LDMuNzMtMC4wMWMxLjI3LDAuMDQsMi4zNywwLjU0LDMuMzMsMS4zNyAgICAgICBjMS4xMSwwLjk2LDEuODEsMi4xOSwyLjMxLDMuNTZjMC40NSwxLjI1LDAuNzIsMi41NCwwLjg0LDMuODZjMC4wNywwLjg0LDAuMTEsMS42OCwwLjE2LDIuNTFjMCwwLjEsMC4wMywwLjE5LDAuMDUsMC4yOCAgICAgICBDMzUuNDEsMzkuMzIsMzUuNDEsMzkuNDksMzUuNDEsMzkuNjZ6Ii8+JiN4YTsJCQkJPC9nPiYjeGE7CQkJCTxnIGlkPSJzaGFwZTExODUtMTMiIHRyYW5zZm9ybT0idHJhbnNsYXRlKDE1Ljk4MTMsLTMuOTEyKSI+JiN4YTsJCQkJCTx0aXRsZSBpZD0idGl0bGUxOTY5MzYiPlNoZWV0LjExODU8L3RpdGxlPiYjeGE7CQkJCQk8cGF0aCBpZD0icGF0aDE5NjkzOCIgaW5rc2NhcGU6Y29ubmVjdG9yLWN1cnZhdHVyZT0iMCIgZD0iTTQuMjIsNjEuMTZjMC0xLjE5LTAuOTQtMi4xNS0yLjExLTIuMTVDMC45Niw1OS4wMiwwLDU5Ljk4LDAsNjEuMTQgICAgICAgYzAsMS4xOSwwLjk1LDIuMTYsMi4xMiwyLjE1UzQuMjIsNjIuMzQsNC4yMiw2MS4xNnoiLz4mI3hhOwkJCQk8L2c+JiN4YTsJCQkJPGcgaWQ9InNoYXBlMTE4Ni0xNSIgdHJhbnNmb3JtPSJ0cmFuc2xhdGUoMTUuOTgwNywtMy45MTIpIj4mI3hhOwkJCQkJPHRpdGxlIGlkPSJ0aXRsZTE5Njk0MSI+U2hlZXQuMTE4NjwvdGl0bGU+JiN4YTsJCQkJCTxwYXRoIGlkPSJwYXRoMTk2OTQzIiBpbmtzY2FwZTpjb25uZWN0b3ItY3VydmF0dXJlPSIwIiBzdHlsZT0iZmlsbDojRkZGRkZGOyIgZD0iTTQuMjIsNjEuMTZjMCwxLjE4LTAuOTMsMi4xMi0yLjEsMi4xMyAgICAgICBDMC45NSw2My4zLDAsNjIuMzMsMCw2MS4xNGMwLTEuMTYsMC45Ni0yLjEyLDIuMTEtMi4xM0MzLjI4LDU5LjAxLDQuMjIsNTkuOTcsNC4yMiw2MS4xNnoiLz4mI3hhOwkJCQk8L2c+JiN4YTsJCQk8L2c+JiN4YTsJCTwvZz4mI3hhOwk8L2c+JiN4YTs8L2c+JiN4YTs8L3N2Zz4=;fontColor=#000000;" vertex="1" parent="1">
          <mxGeometry x="1230.9999999999998" y="431" width="48" height="48" as="geometry" />
        </mxCell>
        <mxCell id="izj6aGMY5wUGhT8EYzV--18" value="" style="shape=image;verticalLabelPosition=bottom;labelBackgroundColor=#ffffff;verticalAlign=top;aspect=fixed;imageAspect=0;image=data:image/svg+xml,PHN2ZyB4bWxuczpjYz0iaHR0cDovL2NyZWF0aXZlY29tbW9ucy5vcmcvbnMjIiB4bWxuczpkYz0iaHR0cDovL3B1cmwub3JnL2RjL2VsZW1lbnRzLzEuMS8iIHhtbG5zOmlua3NjYXBlPSJodHRwOi8vd3d3Lmlua3NjYXBlLm9yZy9uYW1lc3BhY2VzL2lua3NjYXBlIiB4bWxuczpyZGY9Imh0dHA6Ly93d3cudzMub3JnLzE5OTkvMDIvMjItcmRmLXN5bnRheC1ucyMiIHhtbG5zOnNvZGlwb2RpPSJodHRwOi8vc29kaXBvZGkuc291cmNlZm9yZ2UubmV0L0RURC9zb2RpcG9kaS0wLmR0ZCIgeG1sbnM6c3ZnPSJodHRwOi8vd3d3LnczLm9yZy8yMDAwL3N2ZyIgeG1sbnM9Imh0dHA6Ly93d3cudzMub3JnLzIwMDAvc3ZnIiB4bWxuczp4bGluaz0iaHR0cDovL3d3dy53My5vcmcvMTk5OS94bGluayIgdmVyc2lvbj0iMS4xIiBpZD0ic3ZnMTQ5NTIwIiBpbmtzY2FwZTp2ZXJzaW9uPSIwLjkyLjMgKDI0MDU1NDYsIDIwMTgtMDMtMTEpIiBzb2RpcG9kaTpkb2NuYW1lPSJkZXZlbG9wZXIuc3ZnIiB4PSIwcHgiIHk9IjBweCIgdmlld0JveD0iMCAwIDExOS4yNCA5Ny40NCIgc3R5bGU9ImVuYWJsZS1iYWNrZ3JvdW5kOm5ldyAwIDAgMTE5LjI0IDk3LjQ0OyIgeG1sOnNwYWNlPSJwcmVzZXJ2ZSI+JiN4YTs8c29kaXBvZGk6bmFtZWR2aWV3IGJvcmRlcmNvbG9yPSIjNjY2NjY2IiBib3JkZXJvcGFjaXR5PSIxIiBmaXQtbWFyZ2luLWJvdHRvbT0iMCIgZml0LW1hcmdpbi1sZWZ0PSIwIiBmaXQtbWFyZ2luLXJpZ2h0PSIwIiBmaXQtbWFyZ2luLXRvcD0iMCIgZ3JpZHRvbGVyYW5jZT0iMTAiIGd1aWRldG9sZXJhbmNlPSIxMCIgaWQ9Im5hbWVkdmlldzE0OTUyMiIgaW5rc2NhcGU6Y3VycmVudC1sYXllcj0ic3ZnMTQ5NTIwIiBpbmtzY2FwZTpjeD0iNzkuNDkwMjQ1IiBpbmtzY2FwZTpjeT0iNjQuOTYxNzI4IiBpbmtzY2FwZTpwYWdlb3BhY2l0eT0iMCIgaW5rc2NhcGU6cGFnZXNoYWRvdz0iMiIgaW5rc2NhcGU6d2luZG93LWhlaWdodD0iMTAxNyIgaW5rc2NhcGU6d2luZG93LW1heGltaXplZD0iMSIgaW5rc2NhcGU6d2luZG93LXdpZHRoPSIxOTIwIiBpbmtzY2FwZTp3aW5kb3cteD0iLTgiIGlua3NjYXBlOndpbmRvdy15PSItOCIgaW5rc2NhcGU6em9vbT0iNi41NzIzODgyIiBvYmplY3R0b2xlcmFuY2U9IjEwIiBwYWdlY29sb3I9IiNmZmZmZmYiIHNob3dncmlkPSJmYWxzZSI+JiN4YTsJPC9zb2RpcG9kaTpuYW1lZHZpZXc+JiN4YTs8ZyBpZD0iZzE0OTUxOCIgdHJhbnNmb3JtPSJ0cmFuc2xhdGUoLTAuNzUsLTAuNzQ4MzMzNzUpIj4mI3hhOwk8dGl0bGUgaWQ9InRpdGxlMTQ5MzkyIj5QYWdlLTE8L3RpdGxlPiYjeGE7CTxnIGlkPSJncm91cDM2MS0xIiB0cmFuc2Zvcm09InRyYW5zbGF0ZSgwLjc1LC0wLjc1KSI+JiN4YTsJCTx0aXRsZSBpZD0idGl0bGUxNDkzOTQiPkRldmVsb3BlcjwvdGl0bGU+JiN4YTsJCTxnIGlkPSJzaGFwZTM2Mi0yIiB0cmFuc2Zvcm09InRyYW5zbGF0ZSgxMC43NzY4LC0zNS44NTcyKSI+JiN4YTsJCQk8dGl0bGUgaWQ9InRpdGxlMTQ5Mzk2Ij5wYXRoNzczLjE5MjE8L3RpdGxlPiYjeGE7CQkJPHBhdGggaWQ9InBhdGgxNDkzOTgiIGlua3NjYXBlOmNvbm5lY3Rvci1jdXJ2YXR1cmU9IjAiIHN0eWxlPSJmaWxsOiNFQ0QxOEY7IiBkPSJNMCw0Mi4wMmg2NC42OXY1Ni45MkgwVjQyLjAyeiIvPiYjeGE7CQk8L2c+JiN4YTsJCTxnIGlkPSJzaGFwZTM2My00Ij4mI3hhOwkJCTx0aXRsZSBpZD0idGl0bGUxNDk0MDEiPnBhdGg3NzM8L3RpdGxlPiYjeGE7CQkJPHBhdGggaWQ9InBhdGgxNDk0MDMiIGlua3NjYXBlOmNvbm5lY3Rvci1jdXJ2YXR1cmU9IjAiIHN0eWxlPSJmaWxsOiNDMzk3NEY7IiBkPSJNMCw4My42N2gxMTkuMjR2MTUuMjdIMFY4My42N3oiLz4mI3hhOwkJPC9nPiYjeGE7CQk8ZyBpZD0ic2hhcGUzNjQtNiIgdHJhbnNmb3JtPSJ0cmFuc2xhdGUoNDYuMjExMywtMjQuMTY1NCkiPiYjeGE7CQkJPHRpdGxlIGlkPSJ0aXRsZTE0OTQwNiI+cGF0aDc3NTwvdGl0bGU+JiN4YTsJCQk8cGF0aCBpZD0icGF0aDE0OTQwOCIgaW5rc2NhcGU6Y29ubmVjdG9yLWN1cnZhdHVyZT0iMCIgc3R5bGU9ImZpbGw6I0ZGRkZGRjsiIGQ9Ik0yMi4xMSw3My4yNmwtMy4yLTcuMjNsLTAuMzgtMC4wN0wxLjIxLDY4Ljc3ICAgICBMMCw3Mi42M2wwLjI5LDQuNzRsMTEuNDYsMjEuNTdsOC4yNi0xMy4yMkwyMi4xMSw3My4yNnoiLz4mI3hhOwkJPC9nPiYjeGE7CQk8ZyBpZD0ic2hhcGUzNjUtOCIgdHJhbnNmb3JtPSJ0cmFuc2xhdGUoNDcuNzk3MSwtMzkuNDY1MSkiPiYjeGE7CQkJPHRpdGxlIGlkPSJ0aXRsZTE0OTQxMSI+cGF0aDc3NzwvdGl0bGU+JiN4YTsJCQk8cGF0aCBpZD0icGF0aDE0OTQxMyIgaW5rc2NhcGU6Y29ubmVjdG9yLWN1cnZhdHVyZT0iMCIgc3R5bGU9ImZpbGw6I0VDRDE4RjsiIGQ9Ik0yLjE4LDc4LjVMMCw4NC43NGwxLjEyLDYuMDNMNC4yNSw5NSAgICAgbDQuODMsMy45NGwwLjE1LTE1LjAybC0xLjY5LTAuMTlMMi4xOCw3OC41eiIvPiYjeGE7CQk8L2c+JiN4YTsJCTxnIGlkPSJzaGFwZTM2Ni0xMCIgdHJhbnNmb3JtPSJ0cmFuc2xhdGUoNDkuNzE1MywtMzkuMjU4NykiPiYjeGE7CQkJPHRpdGxlIGlkPSJ0aXRsZTE0OTQxNiI+cGF0aDc3OTwvdGl0bGU+JiN4YTsJCQk8cGF0aCBpZD0icGF0aDE0OTQxOCIgaW5rc2NhcGU6Y29ubmVjdG9yLWN1cnZhdHVyZT0iMCIgc3R5bGU9ImZpbGw6I0YxRERBRTsiIGQ9Ik0xNC45NSw3Ny41NWwtNi4wMyw1LjM4bC0xLjY5LDAuMTlsLTEuNy0wLjE5ICAgICBsLTUuMjYtNC42NGwwLjE1LDcuNkwwLDkxLjU4bDIuMzMsMy4yMmw0Ljk2LDQuMTRoMC4wNGw0Ljk2LTQuMTRsMi4zMy0zLjIybDAuNTEtNS45MUwxNC45NSw3Ny41NXoiLz4mI3hhOwkJPC9nPiYjeGE7CQk8ZyBpZD0ic2hhcGUzNjctMTIiIHRyYW5zZm9ybT0idHJhbnNsYXRlKDE4LjI0OTksLTExLjc5MDcpIj4mI3hhOwkJCTx0aXRsZSBpZD0idGl0bGUxNDk0MjEiPnBhdGg3ODE8L3RpdGxlPiYjeGE7CQkJPHBhdGggaWQ9InBhdGgxNDk0MjMiIGlua3NjYXBlOmNvbm5lY3Rvci1jdXJ2YXR1cmU9IjAiIHN0eWxlPSJmaWxsOiMwMzgyQkU7IiBkPSJNNC40MSw2OC4xM2w2LjY3LTUuNzlsOC4yMy0yLjE2bDMuMjEtMS44NCAgICAgbDMuMzYtMC4zOGwzLjQyLTUuMTNsMi40My0yLjAxbC0yLjE4LDYuMjVsLTAuMDksMy42MWwwLjU2LDMuOThsMi4xMywzLjE2bDUuNjcsNC43NGwxLjg5LDEyLjQxbC0wLjU1LDEzLjk3TDEuNDIsOTUuMzNMMCw5Mi43OSAgICAgbDAuNjktOC4wNWwyLjM5LTQuNzJMNC40MSw2OC4xM3oiLz4mI3hhOwkJPC9nPiYjeGE7CQk8ZyBpZD0ic2hhcGUzNjgtMTQiIHRyYW5zZm9ybT0idHJhbnNsYXRlKDQyLjI2OTMsLTM1Ljk4MTMpIj4mI3hhOwkJCTx0aXRsZSBpZD0idGl0bGUxNDk0MjYiPnBhdGg3ODM8L3RpdGxlPiYjeGE7CQkJPHBhdGggaWQ9InBhdGgxNDk0MjgiIGlua3NjYXBlOmNvbm5lY3Rvci1jdXJ2YXR1cmU9IjAiIHN0eWxlPSJmaWxsOiMwMDcxQTY7IiBkPSJNMCw4Ny41NWwxLjktNS40bDMuMzgtNS4xM2wyLjQzLTIuMDEgICAgIGwtMi4xMyw2LjI1bC0wLjA5LDMuNjFsMC41NiwzLjk4bDIuMTMsMy4xNmw1LjYyLDQuNzRsLTEyLDIuMTlMMCw4Ny41NXoiLz4mI3hhOwkJPC9nPiYjeGE7CQk8ZyBpZD0ic2hhcGUzNjktMTYiIHRyYW5zZm9ybT0idHJhbnNsYXRlKDU3LjQxMywtMTEuNzkwNykiPiYjeGE7CQkJPHRpdGxlIGlkPSJ0aXRsZTE0OTQzMSI+cGF0aDc4NTwvdGl0bGU+JiN4YTsJCQk8cGF0aCBpZD0icGF0aDE0OTQzMyIgaW5rc2NhcGU6Y29ubmVjdG9yLWN1cnZhdHVyZT0iMCIgc3R5bGU9ImZpbGw6IzAzODJCRTsiIGQ9Ik0zMi4zLDY1Ljg0bC00LjgxLTIuODJMMjMsNjEuOWwtNC4yLTIuMSAgICAgbC01LjM5LTEuMzFsLTEuOTUtMC42NGwtMy43NS00LjE5bDEuMTQsMy40MWwwLjA4LDMuNjFsLTAuNTUsMy45OEw3LjcyLDY4LjVsLTUuNDgsNS4ybC0xLjcsMTEuMzVMMCw5OC45NGwzNS40OC0zLjU3bDEuMDMtMi4wNCAgICAgbC0xLjI2LTcuMWwtMC4xNi0xMS40NEwzMi4zLDY1Ljg0eiIvPiYjeGE7CQk8L2c+JiN4YTsJCTxnIGlkPSJzaGFwZTM3MC0xOCIgdHJhbnNmb3JtPSJ0cmFuc2xhdGUoNTkuNjg4NSwtMzcuMDI4NCkiPiYjeGE7CQkJPHRpdGxlIGlkPSJ0aXRsZTE0OTQzNiI+cGF0aDc4NzwvdGl0bGU+JiN4YTsJCQk8cGF0aCBpZD0icGF0aDE0OTQzOCIgaW5rc2NhcGU6Y29ubmVjdG9yLWN1cnZhdHVyZT0iMCIgc3R5bGU9ImZpbGw6IzAwNzFBNjsiIGQ9Ik0xMi42Miw4OC44MmwwLjQyLTIuN2wtMy44Ni0zLjAzbC0zLjc0LTQuMiAgICAgbDEuMDgsMy40MWwwLjA5LDMuNjFMNi4wNSw4OS45bC0wLjY5LDMuOUwwLDk4Ljk0bDE0LjItMC44NkwxMi42Miw4OC44MnoiLz4mI3hhOwkJPC9nPiYjeGE7CQk8ZyBpZD0ic2hhcGUzNzEtMjAiIHRyYW5zZm9ybT0idHJhbnNsYXRlKDE5LjY2OTYsLTExLjA4NTkpIj4mI3hhOwkJCTx0aXRsZSBpZD0idGl0bGUxNDk0NDEiPnBhdGg3ODk8L3RpdGxlPiYjeGE7CQkJPHBhdGggaWQ9InBhdGgxNDk0NDMiIGlua3NjYXBlOmNvbm5lY3Rvci1jdXJ2YXR1cmU9IjAiIHN0eWxlPSJmaWxsOiNGMUREQUU7IiBkPSJNNSw4Mi40M2wtNC4wNiwzLjVMMCw5Mi43MmwzLjQyLDIuOCAgICAgbDE5Ljg5LDMuNDJsMi44My02LjMxTDUsODIuNDN6IE02OC4yNiw4Mi40M2w0LjA3LDMuNWwwLjk0LDYuNzlsLTMuNDMsMi44bC0xOS44OSwzLjQybC0yLjgzLTYuMzFMNjguMjYsODIuNDN6Ii8+JiN4YTsJCTwvZz4mI3hhOwkJPGcgaWQ9InNoYXBlMzcyLTIyIiB0cmFuc2Zvcm09InRyYW5zbGF0ZSg0Mi44MDgsLTUzLjk3NDQpIj4mI3hhOwkJCTx0aXRsZSBpZD0idGl0bGUxNDk0NDYiPnBhdGg3OTE8L3RpdGxlPiYjeGE7CQkJPHBhdGggaWQ9InBhdGgxNDk0NDgiIGlua3NjYXBlOmNvbm5lY3Rvci1jdXJ2YXR1cmU9IjAiIHN0eWxlPSJmaWxsOiNGN0VCRDA7IiBkPSJNMjcuNzUsNzYuMTVsLTEuMjcsMC41MmwtMC4yOS0xMi44OSAgICAgbC0xMS45Ny0wLjE3aC0wLjAxTDIuMjUsNjMuNzhsLTAuMywxMi44OWwtMS4yNy0wLjUyTDAsNzYuMjVsMC4wNiw1Ljg5bDEuNTcsMy4zbDEuOTUsMS4wMWwxLjM4LDQuODZsMy4wMiwzLjY2bDQuNTUsMy43OCAgICAgbDEuNjgsMC4xOWgwLjAxbDEuNjktMC4xOWw0LjU0LTMuNzhsMy4wMy0zLjY2bDEuMzgtNC44NmwxLjk1LTEuMDFsMS41Ny0zLjNsMC4wNS01Ljg5TDI3Ljc1LDc2LjE1eiIvPiYjeGE7CQk8L2c+JiN4YTsJCTxnIGlkPSJzaGFwZTM3My0yNCIgdHJhbnNmb3JtPSJ0cmFuc2xhdGUoNDUuOTI5NCwtNTMuOTY5NCkiPiYjeGE7CQkJPHRpdGxlIGlkPSJ0aXRsZTE0OTQ1MSI+cGF0aDc5MzwvdGl0bGU+JiN4YTsJCQk8cGF0aCBpZD0icGF0aDE0OTQ1MyIgaW5rc2NhcGU6Y29ubmVjdG9yLWN1cnZhdHVyZT0iMCIgc3R5bGU9ImZpbGw6IzRGNEQ0QjsiIGQ9Ik0yMS42Niw4NC4xOWwtMC41LDEuNjdsLTEuODMsMy4yM2wtMi42LDEuNzEgICAgIGwtMS4wNS0xLjc3TDExLjEsODguMmwtNC42MSwwLjgzTDUuNDUsOTAuOGwtMi42MS0xLjcxbC0xLjgzLTMuMjNMMC41LDg0LjE5TDAsODQuMDdsMC40NiwyLjM4bDEuMzcsNC44NmwzLjAyLDMuNjZMOC44LDk4LjcgICAgIGwyLjI4LDAuMjRsMi4yOS0wLjI0bDMuOTQtMy43M2wzLjAyLTMuNjZsMS40MS00Ljg2bDAuNDQtMi4zOEwyMS42Niw4NC4xOXogTTEzLjYxLDk0Ljc2bC0xLjM5LDAuMTRsLTEtMC43SDEwLjlsLTEuMDEsMC43ICAgICBsLTEuMzgtMC4xNGwtMi4zMi0yLjA1bDAuODMtMi44MWw0LjAzLTAuMDhsNC4wMiwwLjA4bDAuODYsMi44M0wxMy42MSw5NC43NnoiLz4mI3hhOwkJPC9nPiYjeGE7CQk8ZyBpZD0ic2hhcGUzNzQtMjYiIHRyYW5zZm9ybT0idHJhbnNsYXRlKDQ0Ljc0MTIsLTU5LjUyMjQpIj4mI3hhOwkJCTx0aXRsZSBpZD0idGl0bGUxNDk0NTYiPnBhdGg3OTU8L3RpdGxlPiYjeGE7CQkJPHBhdGggaWQ9InBhdGgxNDk0NTgiIGlua3NjYXBlOmNvbm5lY3Rvci1jdXJ2YXR1cmU9IjAiIHN0eWxlPSJmaWxsOiM0RjRENEI7IiBkPSJNMTMuMjcsOTcuNzVIMTEuM2wwLjUsMC45MWwwLjQ4LDAuMjd2MC4wMSAgICAgdi0wLjAxbDAuMDEsMC4wMXYtMC4wMWwwLjQ4LTAuMjdMMTMuMjcsOTcuNzV6IE0yNC41Nyw4MS41M2wtMS43MiwwLjIybC0wLjE5LTAuMDdsLTIuMzUtMC40NmgtMy44OWwtMy41OSwwLjU4SDExLjdsLTMuNTktMC41OCAgICAgSDQuMjRMMS45LDgxLjY4bC0wLjE4LDAuMDZMMCw4MS41M3YwLjY5bDAuOTMsMC4xMmwwLjcsMy4yNmwwLjYxLDAuNjFsMS44NSwwLjQ2aDMuMTNsMi43NC0wLjYzbDEuNDEtMi4yNmwwLjU3LTAuNjRoMC42NSAgICAgbDAuNTcsMC42NGwxLjQxLDIuMjZsMi43NCwwLjYzaDMuMTNsMS44NS0wLjQ2bDAuNjEtMC42MWwwLjctMy4yNmwwLjkzLTAuMTJMMjQuNTcsODEuNTN6IE0xMC4zOSw4My4yOGwtMC43NywyLjE4bC0yLjU3LDAuNTUgICAgIEg0LjAzbC0xLjM3LTAuMzRsLTAuNTEtMC40NGwtMC4zNi0yLjQxbDAuNDEtMC41MWwyLjAxLTAuMzhoMy44NWwyLjM1LDAuMzZMMTAuMzksODMuMjh6IE0yMi40MSw4NS4yMmwtMC41MSwwLjQ0bC0xLjM2LDAuMzUgICAgIGgtMy4wM2wtMi41Ni0wLjU2bC0wLjc4LTIuMTZ2LTEuMDFsMi4zNS0wLjM1aDMuODRsMi4wMSwwLjM4bDAuNDEsMC41TDIyLjQxLDg1LjIyeiIvPiYjeGE7CQk8L2c+JiN4YTsJCTxnIGlkPSJzaGFwZTM3NS0yOCIgdHJhbnNmb3JtPSJ0cmFuc2xhdGUoNDIuOTk0MywtNzYuMjQxOCkiPiYjeGE7CQkJPHRpdGxlIGlkPSJ0aXRsZTE0OTQ2MSI+cGF0aDc5NzwvdGl0bGU+JiN4YTsJCQk8cGF0aCBpZD0icGF0aDE0OTQ2MyIgaW5rc2NhcGU6Y29ubmVjdG9yLWN1cnZhdHVyZT0iMCIgc3R5bGU9ImZpbGw6IzRGNEQ0QjsiIGQ9Ik0yNy42NCw4NC4zbC0yLjEtMi4xNGwtMy4wNy0yLjAybC00LjQtMS44MSAgICAgbC00LjAzLTAuNTloLTAuMDFsLTQuMDQsMC41OWwtMy42NywyLjI1bC0zLjQsMy4zOWwtMC42NywwLjE3TDAsOTAuMzVsMC4xNiw2Ljc3bDAuMzQsMS4yOWwxLjI3LDAuNTNsMC40NC04LjdsMi44MS0zLjk1ICAgICBsNi40MSwwLjdsMi4yOCwyLjExaDAuNjRsMi4yOC0yLjExbDYuNDEtMC43bDIuODIsMy45NWwwLjQzLDguN2wxLjI3LTAuNTNsMC4zNS0xLjI5bDAuNTktNi44M0wyNy42NCw4NC4zeiIvPiYjeGE7CQk8L2c+JiN4YTsJCTxnIGlkPSJzaGFwZTM3Ni0zMCIgdHJhbnNmb3JtPSJ0cmFuc2xhdGUoNTQuNzE0NSwtNjUuNDM3OSkiPiYjeGE7CQkJPHRpdGxlIGlkPSJ0aXRsZTE0OTQ2NiI+cGF0aDc5OTwvdGl0bGU+JiN4YTsJCQk8cGF0aCBpZD0icGF0aDE0OTQ2OCIgaW5rc2NhcGU6Y29ubmVjdG9yLWN1cnZhdHVyZT0iMCIgc3R5bGU9ImZpbGw6I0VDRDE4RjsiIGQ9Ik0xLjYxLDk4LjVsLTEtMC4yMUwwLDk4LjYybDAuNSwwLjMyTDEuNjEsOTguNSAgICAgeiBNMy4wNiw5OC41bDAuOTktMC4yMWwwLjYxLDAuMzNsLTAuNTEsMC4zMkwzLjA2LDk4LjV6Ii8+JiN4YTsJCTwvZz4mI3hhOwkJPGcgaWQ9InNoYXBlMzc3LTMyIiB0cmFuc2Zvcm09InRyYW5zbGF0ZSg0MS4wNTEsLTY2LjA4NzMpIj4mI3hhOwkJCTx0aXRsZSBpZD0idGl0bGUxNDk0NzEiPnBhdGg4MDE8L3RpdGxlPiYjeGE7CQkJPHBhdGggaWQ9InBhdGgxNDk0NzMiIGlua3NjYXBlOmNvbm5lY3Rvci1jdXJ2YXR1cmU9IjAiIHN0eWxlPSJmaWxsOiMzRjU3NjU7IiBkPSJNMy43Myw4Ny44MmwwLjA5LDQuOTFsMS4wOCwzLjQ1bDAuNDQsMi4zOCAgICAgbC0xLjY1LDAuMzhIMi40NWwtMC4xNC0wLjY5SDAuOTRMMCw5My4yM2wwLjUtNC43MmwwLjksMC4yN2wwLjA0LTAuOTlMMy43Myw4Ny44MnogTTI4LjIyLDg3LjgybC0wLjA5LDQuOTFsLTEuMDgsMy40NSAgICAgbC0wLjQzLDIuMzhsMS42NCwwLjM4aDEuMjRsMC4xNC0wLjY5aDEuMzdsMC45NC01LjAybC0wLjUtNC43MmwtMC45LDAuMjdsLTAuMDUtMC45OUwyOC4yMiw4Ny44MnoiLz4mI3hhOwkJPC9nPiYjeGE7CQk8ZyBpZD0ic2hhcGUzNzgtMzQiIHRyYW5zZm9ybT0idHJhbnNsYXRlKDIxLjQxNjYsLTMuNTM0MTkpIj4mI3hhOwkJCTx0aXRsZSBpZD0idGl0bGUxNDk0NzYiPnBhdGg4MDM8L3RpdGxlPiYjeGE7CQkJPHBhdGggaWQ9InBhdGgxNDk0NzgiIGlua3NjYXBlOmNvbm5lY3Rvci1jdXJ2YXR1cmU9IjAiIHN0eWxlPSJmaWxsOiMzRjU3NjU7IiBkPSJNMjAuMzYsMTUuNDFsLTEuOTcsOC45N2wwLjI0LDUuMDN2MS40ICAgICBsMC4zOCwxLjNsMC44NC0wLjMybDAuMTctMS4xMWwtMC4yNC0xLjMxbDAuMDUtNC43MWwxLjc1LTguNDJsNS4yNy02LjI1bDguNzYtMS40NFY3LjE2bC05LjM2LDEuNDhMMjAuMzYsMTUuNDF6IE01MC44NiwxNS40MSAgICAgbC01Ljg5LTYuNzdsLTkuMzYtMS40OHYxLjM5bDguNzYsMS40NGw1LjI3LDYuMjVsMS43NSw4LjQybDAuMDYsNC43MWwtMC4yNSwxLjMxbDAuMTgsMS4xMWwwLjgzLDAuMzJsMC4zOC0xLjN2LTEuNGwwLjI1LTUuMDMgICAgIEw1MC44NiwxNS40MXogTTksOTguOTRsLTcuMzYtMS4zMUwwLDkzLjA1bDMuNTQtMy4yNGw2LjMxLTEuMmw4LjA1LTI0LjI3bDIuMDEtMTMuMDRsNC4wNi02LjIybC0xLjE1LTkuMzJsMS0wLjE2bDEuMjIsOS43ICAgICBsLTQuMTgsNi4zOGwtMiwxMi45NGwtOC4yNCwyNC44N2wtNi42MSwxLjI1bC0yLjg0LDIuNmwxLjIyLDMuNGw2LjgsMS4yMUw5LDk4Ljk0eiIvPiYjeGE7CQk8L2c+JiN4YTsJCTxnIGlkPSJzaGFwZTM3OS0zNiIgdHJhbnNmb3JtPSJ0cmFuc2xhdGUoMzAuMjY3MiwtMS45ODM1OCkiPiYjeGE7CQkJPHRpdGxlIGlkPSJ0aXRsZTE0OTQ4MSI+cGF0aDgwNTwvdGl0bGU+JiN4YTsJCQk8cGF0aCBpZD0icGF0aDE0OTQ4MyIgaW5rc2NhcGU6Y29ubmVjdG9yLWN1cnZhdHVyZT0iMCIgc3R5bGU9ImZpbGw6IzRGNEQ0QjsiIGQ9Ik01MC42Miw2NS4xNUgxLjMyTDAsNjYuMzl2MzIuNTVoNTEuOTRWNjYuNDYgICAgIEw1MC42Miw2NS4xNXoiLz4mI3hhOwkJPC9nPiYjeGE7CQk8ZyBpZD0iZ3JvdXAzODAtMzgiIHRyYW5zZm9ybT0idHJhbnNsYXRlKDUxLjYyMDgsLTE0LjI2NTMpIj4mI3hhOwkJCTx0aXRsZSBpZD0idGl0bGUxNDk0ODYiPk1pY3Jvc29mdDwvdGl0bGU+JiN4YTsJCQk8ZyBpZD0ic2hhcGUzODEtMzkiIHRyYW5zZm9ybT0idHJhbnNsYXRlKDAsLTQuODYyOTEpIj4mI3hhOwkJCQk8dGl0bGUgaWQ9InRpdGxlMTQ5NDg4Ij5IVFRQIEFQSSBBcHA8L3RpdGxlPiYjeGE7CQkJCTxwYXRoIGlkPSJwYXRoMTQ5NDkwIiBpbmtzY2FwZTpjb25uZWN0b3ItY3VydmF0dXJlPSIwIiBzdHlsZT0iZmlsbDojRjI1MDIyOyIgZD0iTTAsOTQuNTd2NC4zN2g0LjM3di00LjM3SDB6Ii8+JiN4YTsJCQk8L2c+JiN4YTsJCQk8ZyBpZD0ic2hhcGUzODItNDEiIHRyYW5zZm9ybT0idHJhbnNsYXRlKDQuODYwMDYsLTQuODYyOTEpIj4mI3hhOwkJCQk8dGl0bGUgaWQ9InRpdGxlMTQ5NDkzIj5IVFRQIEFQSSBBcHAuMTQ2MTwvdGl0bGU+JiN4YTsJCQkJPHBhdGggaWQ9InBhdGgxNDk0OTUiIGlua3NjYXBlOmNvbm5lY3Rvci1jdXJ2YXR1cmU9IjAiIHN0eWxlPSJmaWxsOiM3RkJBMDA7IiBkPSJNMCw5NC41N3Y0LjM3aDQuMzd2LTQuMzdIMHoiLz4mI3hhOwkJCTwvZz4mI3hhOwkJCTxnIGlkPSJzaGFwZTM4My00MyIgdHJhbnNmb3JtPSJ0cmFuc2xhdGUoNC44NjAwNikiPiYjeGE7CQkJCTx0aXRsZSBpZD0idGl0bGUxNDk0OTgiPkhUVFAgQVBJIEFwcC4xNDYyPC90aXRsZT4mI3hhOwkJCQk8cGF0aCBpZD0icGF0aDE0OTUwMCIgaW5rc2NhcGU6Y29ubmVjdG9yLWN1cnZhdHVyZT0iMCIgc3R5bGU9ImZpbGw6I0ZGQjkwMDsiIGQ9Ik0wLDk0LjU3djQuMzdoNC4zN3YtNC4zN0gweiIvPiYjeGE7CQkJPC9nPiYjeGE7CQkJPGcgaWQ9InNoYXBlMzg0LTQ1Ij4mI3hhOwkJCQk8dGl0bGUgaWQ9InRpdGxlMTQ5NTAzIj5IVFRQIEFQSSBBcHAuMTQ2MzwvdGl0bGU+JiN4YTsJCQkJPHBhdGggaWQ9InBhdGgxNDk1MDUiIGlua3NjYXBlOmNvbm5lY3Rvci1jdXJ2YXR1cmU9IjAiIHN0eWxlPSJmaWxsOiMwMEE0RUY7IiBkPSJNMCw5NC41N3Y0LjM3aDQuMzd2LTQuMzdIMHoiLz4mI3hhOwkJCTwvZz4mI3hhOwkJPC9nPiYjeGE7CQk8ZyBpZD0iZ3JvdXAzODUtNDciIHRyYW5zZm9ybT0idHJhbnNsYXRlKDE1LjM4MzUsLTcwLjc0NDUpIj4mI3hhOwkJCTx0aXRsZSBpZD0idGl0bGUxNDk1MDkiPlZpc3VhbCBTdHVkaW88L3RpdGxlPiYjeGE7CQkJPGcgaWQ9InNoYXBlMzg2LTQ4Ij4mI3hhOwkJCQk8dGl0bGUgaWQ9InRpdGxlMTQ5NTExIj5TaGVldC4zODY8L3RpdGxlPiYjeGE7CQkJCTxwYXRoIGlkPSJwYXRoMTQ5NTEzIiBpbmtzY2FwZTpjb25uZWN0b3ItY3VydmF0dXJlPSIwIiBzdHlsZT0iZmlsbDojNjgyMTdBOyIgZD0iTTEzLjA5LDkzLjQ3bC00LjI2LTMuMzlsNC4yNi0zLjM4VjkzLjQ3eiAgICAgICBNMS45MSw5Mi41N3YtNC44NmwyLjMyLDIuNDlMMS45MSw5Mi41N3ogTTEzLjE4LDgxLjUybC02Ljc2LDYuNDNsLTQuMjQtMi45OEwwLDg1Ljc1djguNzNsMS41MSwxLjExbDQuNy0zLjU0bDYuOTEsNi44OSAgICAgIGw0LjI5LTEuNzRWODMuMjZMMTMuMTgsODEuNTJ6Ii8+JiN4YTsJCQk8L2c+JiN4YTsJCTwvZz4mI3hhOwk8L2c+JiN4YTs8L2c+JiN4YTs8L3N2Zz4=;fontColor=#000000;" vertex="1" parent="1">
          <mxGeometry x="120" y="120" width="135.88" height="110.75" as="geometry" />
        </mxCell>
        <mxCell id="izj6aGMY5wUGhT8EYzV--20" value="Login with User/Password" style="text;strokeColor=none;align=center;fillColor=none;html=1;verticalAlign=middle;whiteSpace=wrap;rounded=0;fontColor=#000000;" vertex="1" parent="1">
          <mxGeometry x="250" y="110" width="170" height="30" as="geometry" />
        </mxCell>
        <mxCell id="izj6aGMY5wUGhT8EYzV--21" value="" style="shape=image;verticalLabelPosition=bottom;labelBackgroundColor=#ffffff;verticalAlign=top;aspect=fixed;imageAspect=0;image=data:image/svg+xml,PHN2ZyB4bWxuczpkYz0iaHR0cDovL3B1cmwub3JnL2RjL2VsZW1lbnRzLzEuMS8iIHhtbG5zOmNjPSJodHRwOi8vY3JlYXRpdmVjb21tb25zLm9yZy9ucyMiIHhtbG5zOnJkZj0iaHR0cDovL3d3dy53My5vcmcvMTk5OS8wMi8yMi1yZGYtc3ludGF4LW5zIyIgeG1sbnM6c3ZnPSJodHRwOi8vd3d3LnczLm9yZy8yMDAwL3N2ZyIgeG1sbnM9Imh0dHA6Ly93d3cudzMub3JnLzIwMDAvc3ZnIiB4bWxuczpzb2RpcG9kaT0iaHR0cDovL3NvZGlwb2RpLnNvdXJjZWZvcmdlLm5ldC9EVEQvc29kaXBvZGktMC5kdGQiIHhtbG5zOmlua3NjYXBlPSJodHRwOi8vd3d3Lmlua3NjYXBlLm9yZy9uYW1lc3BhY2VzL2lua3NjYXBlIiB2ZXJzaW9uPSIxLjEiIGlkPSJzdmc4MjQ1OSIgaW5rc2NhcGU6dmVyc2lvbj0iMC45Mi4zICgyNDA1NTQ2LCAyMDE4LTAzLTExKSIgc29kaXBvZGk6ZG9jbmFtZT0ia2V5X3ZhdWx0LnN2ZyIgeD0iMHB4IiB5PSIwcHgiIHZpZXdCb3g9IjAgMCA4OS42OSAxMDAuMTEiIHN0eWxlPSJlbmFibGUtYmFja2dyb3VuZDpuZXcgMCAwIDg5LjY5IDEwMC4xMTsiIHhtbDpzcGFjZT0icHJlc2VydmUiPjxtZXRhZGF0YSBpZD0ibWV0YWRhdGEyMzQ4Ij48cmRmOlJERj48Y2M6V29yayByZGY6YWJvdXQ9IiI+PGRjOmZvcm1hdD5pbWFnZS9zdmcreG1sPC9kYzpmb3JtYXQ+PGRjOnR5cGUgcmRmOnJlc291cmNlPSJodHRwOi8vcHVybC5vcmcvZGMvZGNtaXR5cGUvU3RpbGxJbWFnZSIvPjxkYzp0aXRsZS8+PC9jYzpXb3JrPjwvcmRmOlJERj48L21ldGFkYXRhPjxkZWZzIGlkPSJkZWZzMjM0NiIvPiYjeGE7PGZpbHRlciBpZD0iZmlsdGVyXzIiPiYjeGE7CTxmZUdhdXNzaWFuQmx1ciBpZD0iZmVHYXVzc2lhbkJsdXI4MjQzMiIgc3RkRGV2aWF0aW9uPSIyIi8+JiN4YTs8L2ZpbHRlcj4mI3hhOzxzb2RpcG9kaTpuYW1lZHZpZXcgYm9yZGVyY29sb3I9IiM2NjY2NjYiIGJvcmRlcm9wYWNpdHk9IjEiIGZpdC1tYXJnaW4tYm90dG9tPSIwIiBmaXQtbWFyZ2luLWxlZnQ9IjAiIGZpdC1tYXJnaW4tcmlnaHQ9IjAiIGZpdC1tYXJnaW4tdG9wPSIwIiBncmlkdG9sZXJhbmNlPSIxMCIgZ3VpZGV0b2xlcmFuY2U9IjEwIiBpZD0ibmFtZWR2aWV3ODI0NjEiIGlua3NjYXBlOmN1cnJlbnQtbGF5ZXI9InN2ZzgyNDU5IiBpbmtzY2FwZTpjeD0iNzMuODY0NzI3IiBpbmtzY2FwZTpjeT0iNTIuMzM5MjAxIiBpbmtzY2FwZTpwYWdlb3BhY2l0eT0iMCIgaW5rc2NhcGU6cGFnZXNoYWRvdz0iMiIgaW5rc2NhcGU6d2luZG93LWhlaWdodD0iMTAxNyIgaW5rc2NhcGU6d2luZG93LW1heGltaXplZD0iMSIgaW5rc2NhcGU6d2luZG93LXdpZHRoPSIxOTIwIiBpbmtzY2FwZTp3aW5kb3cteD0iLTgiIGlua3NjYXBlOndpbmRvdy15PSItOCIgaW5rc2NhcGU6em9vbT0iMy42OTA2MTY0IiBvYmplY3R0b2xlcmFuY2U9IjEwIiBwYWdlY29sb3I9IiNmZmZmZmYiIHNob3dncmlkPSJmYWxzZSI+JiN4YTsJPC9zb2RpcG9kaTpuYW1lZHZpZXc+JiN4YTsmI3hhOzxwYXRoIGlkPSJwYXRoODI0NDUiIGlua3NjYXBlOmNvbm5lY3Rvci1jdXJ2YXR1cmU9IjAiIHN0eWxlPSJmaWxsOiM3RkJBMDA7IiBkPSJNODkuNjksNTUuMjZjMC0xNC42Mi03LTI3LjQzLTE3LjYxLTM1LjY0ICBjMCwwLjQsMCwxLDAsMS40YzAsNC40MS0xLjIxLDguNjEtMy4wMSwxMi4yMWM1LjIxLDUuODEsOC40MSwxMy40Miw4LjQxLDIxLjgzYzAsMTguMDItMTQuNjEsMzIuNjMtMzIuNjMsMzIuNjMgIFMxMi4yMSw3My4wOCwxMi4yMSw1NS4wNmMwLTkuMDEsMy42MS0xNy4wMiw5LjQxLTIzLjAzYy0xLjYtMy40LTIuNi03LjItMi42LTExLjIxYzAtMC44LDAtMS44LDAuMi0yLjZDNy42MSwyNi4yMywwLDM5Ljg0LDAsNTUuMDYgIGMwLDI1LjAyLDIwLjAyLDQ1LjA1LDQ0Ljg1LDQ1LjA1QzY5LjY3LDEwMC4xMSw4OS42OSw4MC4wOCw4OS42OSw1NS4yNnoiLz4mI3hhOyYjeGE7PHBhdGggaWQ9InBhdGg4MjQ1MyIgaW5rc2NhcGU6Y29ubmVjdG9yLWN1cnZhdHVyZT0iMCIgc3R5bGU9ImZpbGw6I0ZDRDExNjsiIGQ9Ik00NS40NSwwQzM0LjA0LDAsMjQuODMsOS4yMSwyNC44MywyMC42MiAgYzAsOS40MSw2LjIxLDE3LjIyLDE0LjgyLDE5LjgydjIwLjQzaC05LjYxdjEwLjQxaDkuNjF2Ny42MWgxMS40MVY0MC4yNGM4LjYxLTIuNCwxNC44MS0xMC40MSwxNC44MS0xOS44MiAgQzY2LjA3LDkuMjEsNTYuODYsMCw0NS40NSwweiBNNDUuNDUsMTAuODFjNS40MSwwLDkuODEsNC40MSw5LjgxLDkuODFjMCw1LjQxLTQuNCw5LjgxLTkuODEsOS44MWMtNS40LDAtOS44MS00LjQtOS44MS05LjgxICBDMzUuNjQsMTUuMjIsNDAuMDUsMTAuODEsNDUuNDUsMTAuODF6Ii8+JiN4YTs8L3N2Zz4=;fontColor=#000000;" vertex="1" parent="1">
          <mxGeometry x="1046" y="140" width="56.7" height="63" as="geometry" />
        </mxCell>
        <mxCell id="izj6aGMY5wUGhT8EYzV--22" value="Widget.Milestone-consult.de" style="text;strokeColor=none;align=center;fillColor=none;html=1;verticalAlign=middle;whiteSpace=wrap;rounded=0;fontColor=#000000;" vertex="1" parent="1">
          <mxGeometry x="100" y="750" width="170" height="30" as="geometry" />
        </mxCell>
        <mxCell id="izj6aGMY5wUGhT8EYzV--23" value="User&lt;br&gt;&amp;nbsp;Password &lt;br&gt;&amp;nbsp;API Key&amp;nbsp;&amp;nbsp;" style="text;strokeColor=none;align=center;fillColor=none;html=1;verticalAlign=middle;whiteSpace=wrap;rounded=0;fontColor=#000000;" vertex="1" parent="1">
          <mxGeometry x="940" y="146.12" width="110" height="60" as="geometry" />
        </mxCell>
        <mxCell id="izj6aGMY5wUGhT8EYzV--27" value="API Server" style="text;strokeColor=none;align=center;fillColor=none;html=1;verticalAlign=middle;whiteSpace=wrap;rounded=0;fontColor=#000000;fontSize=19;" vertex="1" parent="1">
          <mxGeometry x="990" y="419" width="180" height="30" as="geometry" />
        </mxCell>
        <mxCell id="izj6aGMY5wUGhT8EYzV--88" style="edgeStyle=orthogonalEdgeStyle;rounded=0;orthogonalLoop=1;jettySize=auto;html=1;entryX=0;entryY=0.5;entryDx=0;entryDy=0;" edge="1" parent="1" source="izj6aGMY5wUGhT8EYzV--37" target="izj6aGMY5wUGhT8EYzV--83">
          <mxGeometry relative="1" as="geometry" />
        </mxCell>
        <mxCell id="izj6aGMY5wUGhT8EYzV--89" value="Request with trusted Origin" style="edgeLabel;html=1;align=center;verticalAlign=middle;resizable=0;points=[];" vertex="1" connectable="0" parent="izj6aGMY5wUGhT8EYzV--88">
          <mxGeometry x="-0.5162" relative="1" as="geometry">
            <mxPoint as="offset" />
          </mxGeometry>
        </mxCell>
        <mxCell id="izj6aGMY5wUGhT8EYzV--37" value="" style="shape=image;verticalLabelPosition=bottom;labelBackgroundColor=#ffffff;verticalAlign=top;aspect=fixed;imageAspect=0;image=data:image/svg+xml,PHN2ZyB4bWxuczpjYz0iaHR0cDovL2NyZWF0aXZlY29tbW9ucy5vcmcvbnMjIiB4bWxuczpkYz0iaHR0cDovL3B1cmwub3JnL2RjL2VsZW1lbnRzLzEuMS8iIHhtbG5zOmlua3NjYXBlPSJodHRwOi8vd3d3Lmlua3NjYXBlLm9yZy9uYW1lc3BhY2VzL2lua3NjYXBlIiB4bWxuczpyZGY9Imh0dHA6Ly93d3cudzMub3JnLzE5OTkvMDIvMjItcmRmLXN5bnRheC1ucyMiIHhtbG5zOnNvZGlwb2RpPSJodHRwOi8vc29kaXBvZGkuc291cmNlZm9yZ2UubmV0L0RURC9zb2RpcG9kaS0wLmR0ZCIgeG1sbnM6c3ZnPSJodHRwOi8vd3d3LnczLm9yZy8yMDAwL3N2ZyIgeG1sbnM9Imh0dHA6Ly93d3cudzMub3JnLzIwMDAvc3ZnIiB4bWxuczp4bGluaz0iaHR0cDovL3d3dy53My5vcmcvMTk5OS94bGluayIgdmVyc2lvbj0iMS4xIiBpZD0ic3ZnMTA2MjkiIGlua3NjYXBlOnZlcnNpb249IjAuOTIuMyAoMjQwNTU0NiwgMjAxOC0wMy0xMSkiIHNvZGlwb2RpOmRvY25hbWU9IndlYl9hcHBsaWNhdGlvbi5zdmciIHg9IjBweCIgeT0iMHB4IiB2aWV3Qm94PSIwIDAgNjMuNDkgNDMuOTgiIHN0eWxlPSJlbmFibGUtYmFja2dyb3VuZDpuZXcgMCAwIDYzLjQ5IDQzLjk4OyIgeG1sOnNwYWNlPSJwcmVzZXJ2ZSI+JiN4YTs8c29kaXBvZGk6bmFtZWR2aWV3IGJvcmRlcmNvbG9yPSIjNjY2NjY2IiBib3JkZXJvcGFjaXR5PSIxIiBmaXQtbWFyZ2luLWJvdHRvbT0iMCIgZml0LW1hcmdpbi1sZWZ0PSIwIiBmaXQtbWFyZ2luLXJpZ2h0PSIwIiBmaXQtbWFyZ2luLXRvcD0iMCIgZ3JpZHRvbGVyYW5jZT0iMTAiIGd1aWRldG9sZXJhbmNlPSIxMCIgaWQ9Im5hbWVkdmlldzEwNjMxIiBpbmtzY2FwZTpjdXJyZW50LWxheWVyPSJzdmcxMDYyOSIgaW5rc2NhcGU6Y3g9IjQyLjg1MzQzMyIgaW5rc2NhcGU6Y3k9IjIyLjQxNzU4MyIgaW5rc2NhcGU6cGFnZW9wYWNpdHk9IjAiIGlua3NjYXBlOnBhZ2VzaGFkb3c9IjIiIGlua3NjYXBlOndpbmRvdy1oZWlnaHQ9IjEwMTciIGlua3NjYXBlOndpbmRvdy1tYXhpbWl6ZWQ9IjEiIGlua3NjYXBlOndpbmRvdy13aWR0aD0iMTkyMCIgaW5rc2NhcGU6d2luZG93LXg9Ii04IiBpbmtzY2FwZTp3aW5kb3cteT0iLTgiIGlua3NjYXBlOnpvb209IjkuODMwNjYzOSIgb2JqZWN0dG9sZXJhbmNlPSIxMCIgcGFnZWNvbG9yPSIjZmZmZmZmIiBzaG93Z3JpZD0iZmFsc2UiPiYjeGE7CTwvc29kaXBvZGk6bmFtZWR2aWV3PiYjeGE7PGcgaWQ9ImcxMDYyNyIgdHJhbnNmb3JtPSJ0cmFuc2xhdGUoLTcuMjQxNDQzMWUtNSwtMC4wMDMzNikiPiYjeGE7CTx0aXRsZSBpZD0idGl0bGUxMDUzNiI+UGFnZS0xPC90aXRsZT4mI3hhOwk8ZyBpZD0iZ3JvdXA0MzM1LTEiPiYjeGE7CQk8dGl0bGUgaWQ9InRpdGxlMTA1MzgiPldlYiBBcHBsaWNhdGlvbjwvdGl0bGU+JiN4YTsJCTxnIGlkPSJncm91cDQzMzYtMiIgdHJhbnNmb3JtPSJ0cmFuc2xhdGUoMCwtOS4yNjY2NCkiPiYjeGE7CQkJPHRpdGxlIGlkPSJ0aXRsZTEwNTQwIj5XZWJzaXRlcyAjMjwvdGl0bGU+JiN4YTsJCQk8ZyBpZD0iZ3JvdXA0MzM3LTMiPiYjeGE7CQkJCTx0aXRsZSBpZD0idGl0bGUxMDU0MiI+TG9naWMgQXBwcyAjMTwvdGl0bGU+JiN4YTsJCQkJPGcgaWQ9InNoYXBlNDMzOC00Ij4mI3hhOwkJCQkJPHRpdGxlIGlkPSJ0aXRsZTEwNTQ0Ij5TaGVldC40MzM4PC90aXRsZT4mI3hhOwkJCQkJPHBhdGggaWQ9InBhdGgxMDU0NiIgaW5rc2NhcGU6Y29ubmVjdG9yLWN1cnZhdHVyZT0iMCIgc3R5bGU9ImZpbGw6IzNGNTc2NTsiIGQ9Ik00OS4yNyw5LjI3Yy00Ny4zOCwwLTQ3LjM4LDAtNDcuMzgsMCAgICAgICBDMC4zMiw5LjI3LDAsOS42NCwwLDExLjIyYzAsMzMuNjYsMCwzMy42NiwwLDMzLjY2YzAsMS41OCwwLjMyLDEuODksMS44OSwxLjg5YzQ3LjM4LDAsNDcuMzgsMCw0Ny4zOCwwICAgICAgIGMxLjY0LDAsMS45NS0wLjMxLDEuOTUtMS44OWMwLTMzLjY2LDAtMzMuNjYsMC0zMy42NkM1MS4yMiw5LjY0LDUwLjkxLDkuMjcsNDkuMjcsOS4yN3oiLz4mI3hhOwkJCQk8L2c+JiN4YTsJCQkJPGcgaWQ9InNoYXBlNDMzOS02IiB0cmFuc2Zvcm09InRyYW5zbGF0ZSgxLjI2MDAzLC0xLjc2MTk4KSI+JiN4YTsJCQkJCTx0aXRsZSBpZD0idGl0bGUxMDU0OSI+U2hlZXQuNDMzOTwvdGl0bGU+JiN4YTsJCQkJCTxwYXRoIGlkPSJwYXRoMTA1NTEiIGlua3NjYXBlOmNvbm5lY3Rvci1jdXJ2YXR1cmU9IjAiIHN0eWxlPSJmaWxsOiMwMEIwNTA7IiBkPSJNMCwxOC4wOHYyOC42OWg0OC43VjE4LjA4SDB6Ii8+JiN4YTsJCQkJPC9nPiYjeGE7CQkJCTxnIGlkPSJzaGFwZTQzNDAtOCIgdHJhbnNmb3JtPSJ0cmFuc2xhdGUoMS4zMjMwMywtMzEuNDYzOSkiPiYjeGE7CQkJCQk8dGl0bGUgaWQ9InRpdGxlMTA1NTQiPlNoZWV0LjQzNDA8L3RpdGxlPiYjeGE7CQkJCQk8cGF0aCBpZD0icGF0aDEwNTU2IiBpbmtzY2FwZTpjb25uZWN0b3ItY3VydmF0dXJlPSIwIiBzdHlsZT0iZmlsbDojMjZBOUUwOyIgZD0iTTUuMSw0NC4yNWMwLDEuNDUtMS4xMywyLjUyLTIuNTIsMi41MiAgICAgICBDMS4yLDQ2Ljc3LDAsNDUuNywwLDQ0LjI1YzAtMS4zOCwxLjItMi41MSwyLjU4LTIuNTFDMy45Nyw0MS43NCw1LjEsNDIuODcsNS4xLDQ0LjI1eiIvPiYjeGE7CQkJCTwvZz4mI3hhOwkJCQk8ZyBpZD0ic2hhcGU0MzQxLTEwIiB0cmFuc2Zvcm09InRyYW5zbGF0ZSgyLjM5NDA1LC0zMi44NDg0KSI+JiN4YTsJCQkJCTx0aXRsZSBpZD0idGl0bGUxMDU1OSI+U2hlZXQuNDM0MTwvdGl0bGU+JiN4YTsJCQkJCTxwYXRoIGlkPSJwYXRoMTA1NjEiIGlua3NjYXBlOmNvbm5lY3Rvci1jdXJ2YXR1cmU9IjAiIHN0eWxlPSJmaWxsOiNGRkZGRkY7IiBkPSJNMS4wMSw0NS4zOWwwLjg4LTAuODJIMS4yTDAsNDUuNjRsMS4yLDEuMTMgICAgICAgaDAuNjlsLTAuODgtMC44OGgyLjAxdi0wLjVIMS4wMXoiLz4mI3hhOwkJCQk8L2c+JiN4YTsJCQkJPGcgaWQ9InNoYXBlNDM0Mi0xMiIgdHJhbnNmb3JtPSJ0cmFuc2xhdGUoNy4zNzExNiwtMzIuODQ4NCkiPiYjeGE7CQkJCQk8dGl0bGUgaWQ9InRpdGxlMTA1NjQiPlNoZWV0LjQzNDI8L3RpdGxlPiYjeGE7CQkJCQk8cGF0aCBpZD0icGF0aDEwNTY2IiBpbmtzY2FwZTpjb25uZWN0b3ItY3VydmF0dXJlPSIwIiBzdHlsZT0iZmlsbDojRkZGRkZGOyIgZD0iTTAsNDQuMzh2Mi4zOWg0Mi42NXYtMi4zOUgweiIvPiYjeGE7CQkJCTwvZz4mI3hhOwkJCQk8ZyBpZD0ic2hhcGU0MzQzLTE0IiB0cmFuc2Zvcm09InRyYW5zbGF0ZSgxMy4xNjczLC0xMC45NDk1KSI+JiN4YTsJCQkJCTx0aXRsZSBpZD0idGl0bGUxMDU2OSI+U2hlZXQuNDM0MzwvdGl0bGU+JiN4YTsJCQkJCTxwYXRoIGlkPSJwYXRoMTA1NzEiIGlua3NjYXBlOmNvbm5lY3Rvci1jdXJ2YXR1cmU9IjAiIHN0eWxlPSJmaWxsOiNGRkZGRkY7IiBkPSJNMjQsNDEuM2MwLTEuMjYtMS0yLjMzLTIuMzMtMi4zMyAgICAgICBjLTMuNTMsMC0zLjUzLDAtMy41MywwYy0zLjA4LTMuMDItMy4wOC0zLjAyLTMuMDgtMy4wMmMtNy41NiwwLTcuNTYsMC03LjU2LDBjLTMuMjIsMy4wOC0zLjIyLDMuMDgtMy4yMiwzLjA4ICAgICAgIGMtMS45NSwwLjE5LTMuNTIsMS44My0zLjUyLDMuODRjMCwwLjc2LDAsMC43NiwwLDAuNzZjLTAuNzYsMC0wLjc2LDAtMC43NiwwYzAsMS41MSwwLDEuNTEsMCwxLjUxYzMuMjgsMCwzLjI4LDAsMy4yOCwwICAgICAgIGMwLjMxLDAuOTQsMS4xOSwxLjYzLDIuMiwxLjYzczEuODMtMC42OSwyLjE0LTEuNjNjOS41OCwwLDkuNTgsMCw5LjU4LDBjMC4zOCwwLjk0LDEuMiwxLjYzLDIuMiwxLjYzICAgICAgIGMxLjAxLDAsMS44My0wLjY5LDIuMjEtMS42M2MzLjE1LDAsMy4xNSwwLDMuMTUsMGMwLTEuNTEsMC0xLjUxLDAtMS41MWMtMC43NiwwLTAuNzYsMC0wLjc2LDBWNDEuM3ogTTIyLjQ5LDQxLjMgICAgICAgYzAsMi4zMywwLDIuMzMsMCwyLjMzYy0wLjg4LDAtMC44OCwwLTAuODgsMGMtMC4zOC0wLjg5LTEuMi0xLjU4LTIuMjEtMS41OGMtMSwwLTEuODIsMC42OS0yLjIsMS41OGMtNi4zNiwwLTYuMzYsMC02LjM2LDAgICAgICAgYzAtMy4wOSwwLTMuMDksMC0zLjA5YzEwLjgzLDAsMTAuODMsMCwxMC44MywwQzIyLjE4LDQwLjU0LDIyLjQ5LDQwLjg2LDIyLjQ5LDQxLjN6IE0xNS45NCwzOC45N2MtNS4xLDAtNS4xLDAtNS4xLDAgICAgICAgYzAtMS41MSwwLTEuNTEsMC0xLjUxYzMuNTksMCwzLjU5LDAsMy41OSwwTDE1Ljk0LDM4Ljk3eiBNOC4wNiwzNy40NmMxLjI2LDAsMS4yNiwwLDEuMjYsMGMwLDEuNTEsMCwxLjUxLDAsMS41MSAgICAgICBjLTIuNzcsMC0yLjc3LDAtMi43NywwTDguMDYsMzcuNDZ6IE0yLjMzLDQyLjg3YzAtMS4zMiwxLjAxLTIuMzMsMi40LTIuMzNjNC41OSwwLDQuNTksMCw0LjU5LDBjMCwzLjA5LDAsMy4wOSwwLDMuMDkgICAgICAgYy0xLjcsMC0xLjcsMC0xLjcsMGMtMC4zMS0wLjg5LTEuMTMtMS41OC0yLjE0LTEuNThzLTEuODksMC42OS0yLjIsMS41OGMtMC45NSwwLTAuOTUsMC0wLjk1LDBWNDIuODd6IE01LjQ4LDQ1LjE0ICAgICAgIGMtMC40NCwwLTAuNzUtMC4zMi0wLjc1LTAuNzZjMC0wLjM4LDAuMzEtMC43NSwwLjc1LTAuNzVjMC4zOCwwLDAuNzYsMC4zNywwLjc2LDAuNzVDNi4yNCw0NC44Miw1Ljg2LDQ1LjE0LDUuNDgsNDUuMTR6ICAgICAgICBNMTkuNCw0NS4xNGMtMC40NCwwLTAuNzUtMC4zMi0wLjc1LTAuNzZjMC0wLjM4LDAuMzEtMC43NSwwLjc1LTAuNzVjMC40NSwwLDAuNzYsMC4zNywwLjc2LDAuNzUgICAgICAgQzIwLjE2LDQ0LjgyLDE5Ljg1LDQ1LjE0LDE5LjQsNDUuMTR6Ii8+JiN4YTsJCQkJPC9nPiYjeGE7CQkJCTxnIGlkPSJzaGFwZTQzNDQtMTYiIHRyYW5zZm9ybT0idHJhbnNsYXRlKDEuMDk4MjUsLTEuNzMzMDUpIj4mI3hhOwkJCQkJPHRpdGxlIGlkPSJ0aXRsZTEwNTc0Ij5TaGVldC40MzQ0PC90aXRsZT4mI3hhOwkJCQkJPHBhdGggaWQ9InBhdGgxMDU3NiIgaW5rc2NhcGU6Y29ubmVjdG9yLWN1cnZhdHVyZT0iMCIgc3R5bGU9ImZpbGw6IzAwQjBGMDsiIGQ9Ik0wLDE4LjA3djI4LjdoNDguNzd2LTI4LjdIMHoiLz4mI3hhOwkJCQk8L2c+JiN4YTsJCQk8L2c+JiN4YTsJCTwvZz4mI3hhOwkJPGcgaWQ9Imdyb3VwNDM0NS0xOCIgdHJhbnNmb3JtPSJ0cmFuc2xhdGUoMzQuMjEyMikiPiYjeGE7CQkJPHRpdGxlIGlkPSJ0aXRsZTEwNTgxIj5XZWIgU2VydmljZS43ODY8L3RpdGxlPiYjeGE7CQkJPGcgaWQ9InNoYXBlNDM0Ni0xOSIgdHJhbnNmb3JtPSJ0cmFuc2xhdGUoNC4zODM0OSwtNy4zOTYyMSkiPiYjeGE7CQkJCTx0aXRsZSBpZD0idGl0bGUxMDU4MyI+cGF0aDk2MTA8L3RpdGxlPiYjeGE7CQkJCSYjeGE7CQkJCQk8cGF0aCBpZD0icGF0aDEwNTg1IiBpbmtzY2FwZTpjb25uZWN0b3ItY3VydmF0dXJlPSIwIiBzdHlsZT0iZmlsbDojRkZGRkZGO3N0cm9rZTojNTU2QThBO3N0cm9rZS13aWR0aDowLjc1O3N0cm9rZS1taXRlcmxpbWl0OjM7IiBkPSIgICAgICBNMjQuNTIsMzYuNjJjMCw3LjkzLTYuNDMsMTQuMzYtMTQuMzYsMTQuMzZTLTQuMiw0NC41NS00LjIsMzYuNjJjMC03LjkzLDYuNDItMTQuMzYsMTQuMzUtMTQuMzYgICAgICBDMTguMDgsMjIuMjYsMjQuNTEsMjguNjksMjQuNTIsMzYuNjJ6Ii8+JiN4YTsJCQk8L2c+JiN4YTsJCQk8ZyBpZD0ic2hhcGU0MzQ3LTIxIiB0cmFuc2Zvcm09InRyYW5zbGF0ZSgwLjE3NzIxNiwtMy4xODk5NCkiPiYjeGE7CQkJCTx0aXRsZSBpZD0idGl0bGUxMDU4OCI+cGF0aDk2MTI8L3RpdGxlPiYjeGE7CQkJCTxwYXRoIGlkPSJwYXRoMTA1OTAiIGlua3NjYXBlOmNvbm5lY3Rvci1jdXJ2YXR1cmU9IjAiIHN0eWxlPSJmaWxsOiNBQ0U4Rjk7IiBkPSJNMjguNzIsMzIuNDFjLTAuMSw3LjkzLTYuNjEsMTQuMjgtMTQuNTQsMTQuMTggICAgICBDNi4zOSw0Ni41LDAuMSw0MC4yLDAsMzIuNDFIMjguNzJ6Ii8+JiN4YTsJCQk8L2c+JiN4YTsJCQk8ZyBpZD0ic2hhcGU0MzQ4LTIzIiB0cmFuc2Zvcm09InRyYW5zbGF0ZSgxLjA5Mzg4LC03LjE4MDE1KSI+JiN4YTsJCQkJPHRpdGxlIGlkPSJ0aXRsZTEwNTkzIj5wYXRoOTYxNDwvdGl0bGU+JiN4YTsJCQkJPHBhdGggaWQ9InBhdGgxMDU5NSIgaW5rc2NhcGU6Y29ubmVjdG9yLWN1cnZhdHVyZT0iMCIgc3R5bGU9ImZpbGw6IzU1NkE4QTsiIGQ9Ik0xMy40NCwyMi45NmM3LjQzLDAsMTMuNDUsNi4wMSwxMy40NSwxMy40NCAgICAgIHMtNi4wMSwxMy40NS0xMy40NCwxMy40NVMwLDQzLjgzLDAsMzYuNDFjMCwwLDAtMC4wMSwwLTAuMDFDMCwyOC45OCw2LjAyLDIyLjk2LDEzLjQ0LDIyLjk2eiBNMTMuNDQsMjEuNzMgICAgICBjLTguMSwwLTE0LjY3LDYuNTctMTQuNjYsMTQuNjdjMCw4LjEsNi41NywxNC42NywxNC42NywxNC42NmM4LjEsMCwxNC42Ni02LjU3LDE0LjY2LTE0LjY2QzI4LjExLDI4LjMsMjEuNTUsMjEuNzMsMTMuNDQsMjEuNzMgICAgICBDMTMuNDQsMjEuNzMsMTMuNDQsMjEuNzMsMTMuNDQsMjEuNzN6Ii8+JiN4YTsJCQk8L2c+JiN4YTsJCQk8ZyBpZD0iZ3JvdXA0MzQ5LTI1IiB0cmFuc2Zvcm09InRyYW5zbGF0ZSgwLC0yLjg4NDM4KSI+JiN4YTsJCQkJPHRpdGxlIGlkPSJ0aXRsZTEwNTk4Ij5nOTYyMDwvdGl0bGU+JiN4YTsJCQkJPGcgaWQ9InNoYXBlNDM1MC0yNiIgdHJhbnNmb3JtPSJ0cmFuc2xhdGUoNy44MTYxKSI+JiN4YTsJCQkJCTx0aXRsZSBpZD0idGl0bGUxMDYwMCI+cGF0aDk2MTY8L3RpdGxlPiYjeGE7CQkJCQk8cGF0aCBpZD0icGF0aDEwNjAyIiBpbmtzY2FwZTpjb25uZWN0b3ItY3VydmF0dXJlPSIwIiBzdHlsZT0iZmlsbDojNTU2QThBOyIgZD0iTTYuNDIsMTguODNjMi40NCwwLDUuMTksNS43MSw1LjE5LDEzLjM1ICAgICAgIGMwLDcuNjUtMi43NSwxMy4zNy01LjE5LDEzLjM3Yy0yLjQ1LDAtNS4yLTUuNzEtNS4yLTEzLjM2QzEuMjIsMjQuNTUsMy45NywxOC44Myw2LjQyLDE4LjgzeiBNNi40MiwxNy42ICAgICAgIEMyLjg3LDE3LjYsMCwyNC4xMywwLDMyLjE4YzAsOC4wNiwyLjg3LDE0LjU5LDYuNDIsMTQuNTljMy41NCwwLDYuNDEtNi41Myw2LjQxLTE0LjU4UzkuOTYsMTcuNiw2LjQyLDE3LjZ6Ii8+JiN4YTsJCQkJPC9nPiYjeGE7CQkJCTxnIGlkPSJzaGFwZTQzNTEtMjgiIHRyYW5zZm9ybT0idHJhbnNsYXRlKDAsLTE0LjY2NjcpIj4mI3hhOwkJCQkJPHRpdGxlIGlkPSJ0aXRsZTEwNjA1Ij5saW5lOTYxODwvdGl0bGU+JiN4YTsJCQkJCSYjeGE7CQkJCQkJPHBhdGggaWQ9InBhdGgxMDYwNyIgaW5rc2NhcGU6Y29ubmVjdG9yLWN1cnZhdHVyZT0iMCIgc3R5bGU9ImZpbGw6bm9uZTtzdHJva2U6IzU1NkE4QTtzdHJva2Utd2lkdGg6MS41O3N0cm9rZS1taXRlcmxpbWl0OjM7IiBkPSIgICAgICAgTTAsNDYuNzdoMjguNTkiLz4mI3hhOwkJCQk8L2c+JiN4YTsJCQk8L2c+JiN4YTsJCQk8ZyBpZD0ic2hhcGU0MzUyLTMxIiB0cmFuc2Zvcm09InRyYW5zbGF0ZSgzLjU0NDQ0LC0yNC44ODQ0KSI+JiN4YTsJCQkJPHRpdGxlIGlkPSJ0aXRsZTEwNjExIj5wYXRoOTYyMjwvdGl0bGU+JiN4YTsJCQkJPHBhdGggaWQ9InBhdGgxMDYxMyIgaW5rc2NhcGU6Y29ubmVjdG9yLWN1cnZhdHVyZT0iMCIgc3R5bGU9ImZpbGw6bm9uZTsiIGQ9Ik0wLDQ1LjEyYzIuNjgsMS4wNCw2LjYyLDEuNjUsMTAuOTksMS42NSAgICAgIGM0LjM4LDAsOC4zMS0wLjYxLDExLTEuNjVIMHoiLz4mI3hhOwkJCQkmI3hhOwkJCQkJPHBhdGggaWQ9InBhdGgxMDYxNSIgaW5rc2NhcGU6Y29ubmVjdG9yLWN1cnZhdHVyZT0iMCIgc3R5bGU9ImZpbGw6bm9uZTtzdHJva2U6IzU1NkE4QTtzdHJva2Utd2lkdGg6MS41O3N0cm9rZS1taXRlcmxpbWl0OjM7IiBkPSIgICAgICBNMCw0NS4xMmMyLjY4LDEuMDQsNi42MiwxLjY1LDEwLjk5LDEuNjVjNC4zOCwwLDguMzEtMC42MSwxMS0xLjY1Ii8+JiN4YTsJCQk8L2c+JiN4YTsJCQk8ZyBpZD0ic2hhcGU0MzUzLTM0IiB0cmFuc2Zvcm09InRyYW5zbGF0ZSgzLjU0NDQ0LC04LjU2MTYpIj4mI3hhOwkJCQk8dGl0bGUgaWQ9InRpdGxlMTA2MTgiPnBhdGg5NjI0PC90aXRsZT4mI3hhOwkJCQk8cGF0aCBpZD0icGF0aDEwNjIwIiBpbmtzY2FwZTpjb25uZWN0b3ItY3VydmF0dXJlPSIwIiBzdHlsZT0iZmlsbDpub25lOyIgZD0iTTAsNDYuNzdjMi42OC0xLjA0LDYuNjItMS42NSwxMC45OS0xLjY1ICAgICAgYzQuMzgsMCw4LjMxLDAuNjEsMTEsMS42NUgweiIvPiYjeGE7CQkJCSYjeGE7CQkJCQk8cGF0aCBpZD0icGF0aDEwNjIyIiBpbmtzY2FwZTpjb25uZWN0b3ItY3VydmF0dXJlPSIwIiBzdHlsZT0iZmlsbDpub25lO3N0cm9rZTojNTU2QThBO3N0cm9rZS13aWR0aDoxLjU7c3Ryb2tlLW1pdGVybGltaXQ6MzsiIGQ9IiAgICAgIE0wLDQ2Ljc3YzIuNjgtMS4wNCw2LjYyLTEuNjUsMTAuOTktMS42NWM0LjM4LDAsOC4zMSwwLjYxLDExLDEuNjUiLz4mI3hhOwkJCTwvZz4mI3hhOwkJPC9nPiYjeGE7CTwvZz4mI3hhOzwvZz4mI3hhOzwvc3ZnPg==;fontColor=#000000;" vertex="1" parent="1">
          <mxGeometry x="132.66999999999996" y="650" width="123" height="85.9" as="geometry" />
        </mxCell>
        <mxCell id="izj6aGMY5wUGhT8EYzV--9" value="" style="shape=image;verticalLabelPosition=bottom;labelBackgroundColor=#ffffff;verticalAlign=top;aspect=fixed;imageAspect=0;image=data:image/svg+xml,PHN2ZyB4bWxuczpjYz0iaHR0cDovL2NyZWF0aXZlY29tbW9ucy5vcmcvbnMjIiB4bWxuczpkYz0iaHR0cDovL3B1cmwub3JnL2RjL2VsZW1lbnRzLzEuMS8iIHhtbG5zOmlua3NjYXBlPSJodHRwOi8vd3d3Lmlua3NjYXBlLm9yZy9uYW1lc3BhY2VzL2lua3NjYXBlIiB4bWxuczpyZGY9Imh0dHA6Ly93d3cudzMub3JnLzE5OTkvMDIvMjItcmRmLXN5bnRheC1ucyMiIHhtbG5zOnNvZGlwb2RpPSJodHRwOi8vc29kaXBvZGkuc291cmNlZm9yZ2UubmV0L0RURC9zb2RpcG9kaS0wLmR0ZCIgeG1sbnM6c3ZnPSJodHRwOi8vd3d3LnczLm9yZy8yMDAwL3N2ZyIgeG1sbnM9Imh0dHA6Ly93d3cudzMub3JnLzIwMDAvc3ZnIiB4bWxuczp4bGluaz0iaHR0cDovL3d3dy53My5vcmcvMTk5OS94bGluayIgdmVyc2lvbj0iMS4xIiBpZD0ic3ZnMTgxMDA3IiBpbmtzY2FwZTp2ZXJzaW9uPSIwLjkyLjMgKDI0MDU1NDYsIDIwMTgtMDMtMTEpIiBzb2RpcG9kaTpkb2NuYW1lPSJqYXZhc2NyaXB0LnN2ZyIgeD0iMHB4IiB5PSIwcHgiIHZpZXdCb3g9IjAgMCA0NSA0NSIgc3R5bGU9ImVuYWJsZS1iYWNrZ3JvdW5kOm5ldyAwIDAgNDUgNDU7IiB4bWw6c3BhY2U9InByZXNlcnZlIj4mI3hhOzxzb2RpcG9kaTpuYW1lZHZpZXcgYm9yZGVyY29sb3I9IiM2NjY2NjYiIGJvcmRlcm9wYWNpdHk9IjEiIGZpdC1tYXJnaW4tYm90dG9tPSIwIiBmaXQtbWFyZ2luLWxlZnQ9IjAiIGZpdC1tYXJnaW4tcmlnaHQ9IjAiIGZpdC1tYXJnaW4tdG9wPSIwIiBncmlkdG9sZXJhbmNlPSIxMCIgZ3VpZGV0b2xlcmFuY2U9IjEwIiBpZD0ibmFtZWR2aWV3MTgxMDA5IiBpbmtzY2FwZTpjdXJyZW50LWxheWVyPSJzdmcxODEwMDciIGlua3NjYXBlOmN4PSIyOS45OTk5ODUiIGlua3NjYXBlOmN5PSIyOS45OTk5ODUiIGlua3NjYXBlOnBhZ2VvcGFjaXR5PSIwIiBpbmtzY2FwZTpwYWdlc2hhZG93PSIyIiBpbmtzY2FwZTp3aW5kb3ctaGVpZ2h0PSIxMDE3IiBpbmtzY2FwZTp3aW5kb3ctbWF4aW1pemVkPSIxIiBpbmtzY2FwZTp3aW5kb3ctd2lkdGg9IjE5MjAiIGlua3NjYXBlOndpbmRvdy14PSItOCIgaW5rc2NhcGU6d2luZG93LXk9Ii04IiBpbmtzY2FwZTp6b29tPSIxMy45ODM4NzgiIG9iamVjdHRvbGVyYW5jZT0iMTAiIHBhZ2Vjb2xvcj0iI2ZmZmZmZiIgc2hvd2dyaWQ9ImZhbHNlIj4mI3hhOwk8L3NvZGlwb2RpOm5hbWVkdmlldz4mI3hhOzxnIGlkPSJnMTgxMDA1IiB0cmFuc2Zvcm09InRyYW5zbGF0ZSgtMC43NSwtMC43NSkiPiYjeGE7CTx0aXRsZSBpZD0idGl0bGUxODA5ODMiPlBhZ2UtMTwvdGl0bGU+JiN4YTsJPGcgaWQ9Imdyb3VwMTExOC0xIiB0cmFuc2Zvcm09InRyYW5zbGF0ZSgwLjc1LC0wLjc1KSI+JiN4YTsJCTx0aXRsZSBpZD0idGl0bGUxODA5ODUiPkphdmFTY3JpcHQ8L3RpdGxlPiYjeGE7CQk8ZyBpZD0ic2hhcGUxMTE5LTIiPiYjeGE7CQkJPHRpdGxlIGlkPSJ0aXRsZTE4MDk4NyI+cmVjdDcwNzU8L3RpdGxlPiYjeGE7CQkJPHJlY3QgaWQ9InJlY3QxODA5ODkiIHk9IjEuNSIgc3R5bGU9ImZpbGw6I0U0Q0I1ODsiIHdpZHRoPSI0NSIgaGVpZ2h0PSI0NSIvPiYjeGE7CQk8L2c+JiN4YTsJCTxnIGlkPSJzaGFwZTExMjAtNCIgdHJhbnNmb3JtPSJ0cmFuc2xhdGUoMTIuMzM3NSwtMi41MTI1KSI+JiN4YTsJCQk8dGl0bGUgaWQ9InRpdGxlMTgwOTkyIj5wYXRoNzA3NzwvdGl0bGU+JiN4YTsJCQk8cGF0aCBpZD0icGF0aDE4MDk5NCIgaW5rc2NhcGU6Y29ubmVjdG9yLWN1cnZhdHVyZT0iMCIgc3R5bGU9ImZpbGw6IzQ0NDQ0NDsiIGQ9Ik04LjIzLDI1LjIzaDMuODZ2MTUuMzUgICAgIGMwLDMuNjctMi40Niw1LjkyLTUuNzIsNS45MkMxLjIzLDQ2LjUsMCw0Mi43NSwwLDQyLjc1bDMuNDEtMi4wOGMwLDAsMC45MiwyLjE2LDIuNiwyLjE2YzEuNjcsMCwyLjI1LTAuOTMsMi4yNS0yLjgyTDguMjMsMjUuMjMgICAgIHoiLz4mI3hhOwkJPC9nPiYjeGE7CQk8ZyBpZD0ic2hhcGUxMTIxLTYiIHRyYW5zZm9ybT0idHJhbnNsYXRlKDI2LjU1LC0yLjc3NSkiPiYjeGE7CQkJPHRpdGxlIGlkPSJ0aXRsZTE4MDk5NyI+cGF0aDcwNzk8L3RpdGxlPiYjeGE7CQkJPHBhdGggaWQ9InBhdGgxODA5OTkiIGlua3NjYXBlOmNvbm5lY3Rvci1jdXJ2YXR1cmU9IjAiIHN0eWxlPSJmaWxsOiM0NDQ0NDQ7IiBkPSJNOS43NiwzMC44OGwzLTEuOTcgICAgIGMtMC45OS0yLjEtMy4xMy0zLjQyLTUuNDYtMy4zNmMtNC4wOCwwLTYuMTEsMi41OC02LjExLDUuOTNzMy4xOSw1LjE2LDUuMzIsNi4wN2MyLjI1LDAuOTYsMy40MywxLjc5LDMuNDMsMy4xNyAgICAgYzAsMS4wMS0wLjg0LDIuMDEtMi42NCwyLjA3Yy0yLjg2LDAuMDktNC4wOS0yLjYyLTQuMDktMi42MkwwLDQyLjMzYzAsMCwxLjgsNC4xNyw3LjQyLDQuMTdjNS42MywwLDYuNi0zLjk3LDYuNi01LjgzICAgICBzLTAuNjYtNC40Ni00LjY1LTYuMjVjLTQtMS43OS00LjIzLTIuNjItNC4yMy0zLjU5YzAtMC45NiwwLjg0LTEuNywyLjE2LTEuN3MyLjQ2LDEuNywyLjQ2LDEuN0w5Ljc2LDMwLjg4eiIvPiYjeGE7CQkJPHBhdGggaWQ9InBhdGgxODEwMDEiIGlua3NjYXBlOmNvbm5lY3Rvci1jdXJ2YXR1cmU9IjAiIHN0eWxlPSJmaWxsOm5vbmU7IiBkPSJNOS43NiwzMC44OGwzLTEuOTdjLTAuOTktMi4xLTMuMTMtMy40Mi01LjQ2LTMuMzYgICAgIGMtNC4wOCwwLTYuMTEsMi41OC02LjExLDUuOTNzMy4xOSw1LjE2LDUuMzIsNi4wN2MyLjI1LDAuOTYsMy40MywxLjc5LDMuNDMsMy4xN2MwLDEuMDEtMC44NCwyLjAxLTIuNjQsMi4wNyAgICAgYy0yLjg2LDAuMDktNC4wOS0yLjYyLTQuMDktMi42MkwwLDQyLjMzYzAsMCwxLjgsNC4xNyw3LjQyLDQuMTdjNS42MywwLDYuNi0zLjk3LDYuNi01Ljgzcy0wLjY2LTQuNDYtNC42NS02LjI1ICAgICBjLTQtMS43OS00LjIzLTIuNjItNC4yMy0zLjU5YzAtMC45NiwwLjg0LTEuNywyLjE2LTEuN3MyLjQ2LDEuNywyLjQ2LDEuNyIvPiYjeGE7CQk8L2c+JiN4YTsJPC9nPiYjeGE7PC9nPiYjeGE7PC9zdmc+;fontColor=#000000;" vertex="1" parent="1">
          <mxGeometry x="112.67" y="699" width="29" height="29" as="geometry" />
        </mxCell>
        <mxCell id="izj6aGMY5wUGhT8EYzV--44" value="Check Credentials" style="text;strokeColor=none;align=center;fillColor=none;html=1;verticalAlign=middle;whiteSpace=wrap;rounded=0;fontColor=#000000;" vertex="1" parent="1">
          <mxGeometry x="940" y="320" width="170" height="30" as="geometry" />
        </mxCell>
        <mxCell id="izj6aGMY5wUGhT8EYzV--51" style="edgeStyle=orthogonalEdgeStyle;rounded=0;orthogonalLoop=1;jettySize=auto;html=1;fillColor=#d5e8d4;strokeColor=#82b366;fontColor=#000000;" edge="1" parent="1" source="izj6aGMY5wUGhT8EYzV--46">
          <mxGeometry relative="1" as="geometry">
            <mxPoint x="210" y="240" as="targetPoint" />
          </mxGeometry>
        </mxCell>
        <mxCell id="izj6aGMY5wUGhT8EYzV--54" style="edgeStyle=orthogonalEdgeStyle;rounded=0;orthogonalLoop=1;jettySize=auto;html=1;exitX=0.5;exitY=0;exitDx=0;exitDy=0;entryX=1;entryY=0.5;entryDx=0;entryDy=0;fillColor=#f8cecc;strokeColor=#b85450;fontColor=#000000;" edge="1" parent="1" source="izj6aGMY5wUGhT8EYzV--46" target="izj6aGMY5wUGhT8EYzV--18">
          <mxGeometry relative="1" as="geometry" />
        </mxCell>
        <mxCell id="izj6aGMY5wUGhT8EYzV--46" value="" style="rhombus;whiteSpace=wrap;html=1;verticalAlign=top;labelBackgroundColor=#ffffff;fontColor=#000000;" vertex="1" parent="1">
          <mxGeometry x="272" y="293" width="80" height="70" as="geometry" />
        </mxCell>
        <mxCell id="izj6aGMY5wUGhT8EYzV--49" value="Credentials vaild" style="text;strokeColor=none;align=center;fillColor=none;html=1;verticalAlign=middle;whiteSpace=wrap;rounded=0;fontColor=#000000;" vertex="1" parent="1">
          <mxGeometry x="202" y="338" width="80" height="30" as="geometry" />
        </mxCell>
        <mxCell id="izj6aGMY5wUGhT8EYzV--52" style="edgeStyle=orthogonalEdgeStyle;rounded=0;orthogonalLoop=1;jettySize=auto;html=1;entryX=0.45;entryY=-0.023;entryDx=0;entryDy=0;entryPerimeter=0;fillColor=#d5e8d4;strokeColor=#82b366;fontColor=#000000;" edge="1" parent="1" source="izj6aGMY5wUGhT8EYzV--18" target="izj6aGMY5wUGhT8EYzV--37">
          <mxGeometry relative="1" as="geometry" />
        </mxCell>
        <mxCell id="izj6aGMY5wUGhT8EYzV--53" value="&amp;nbsp;User Authorised" style="text;strokeColor=none;align=center;fillColor=none;html=1;verticalAlign=middle;whiteSpace=wrap;rounded=0;fontColor=#000000;" vertex="1" parent="1">
          <mxGeometry x="70" y="420" width="120" height="30" as="geometry" />
        </mxCell>
        <mxCell id="izj6aGMY5wUGhT8EYzV--55" value="Credentials invaild" style="text;align=center;html=1;verticalAlign=middle;whiteSpace=wrap;rounded=0;fontColor=#000000;" vertex="1" parent="1">
          <mxGeometry x="302" y="246" width="90" height="37" as="geometry" />
        </mxCell>
        <mxCell id="izj6aGMY5wUGhT8EYzV--58" value="" style="shape=image;verticalLabelPosition=bottom;labelBackgroundColor=#ffffff;verticalAlign=top;aspect=fixed;imageAspect=0;image=data:image/svg+xml,PHN2ZyB4bWxuczpjYz0iaHR0cDovL2NyZWF0aXZlY29tbW9ucy5vcmcvbnMjIiB4bWxuczpkYz0iaHR0cDovL3B1cmwub3JnL2RjL2VsZW1lbnRzLzEuMS8iIHhtbG5zOmlua3NjYXBlPSJodHRwOi8vd3d3Lmlua3NjYXBlLm9yZy9uYW1lc3BhY2VzL2lua3NjYXBlIiB4bWxuczpyZGY9Imh0dHA6Ly93d3cudzMub3JnLzE5OTkvMDIvMjItcmRmLXN5bnRheC1ucyMiIHhtbG5zOnNvZGlwb2RpPSJodHRwOi8vc29kaXBvZGkuc291cmNlZm9yZ2UubmV0L0RURC9zb2RpcG9kaS0wLmR0ZCIgeG1sbnM6c3ZnPSJodHRwOi8vd3d3LnczLm9yZy8yMDAwL3N2ZyIgeG1sbnM9Imh0dHA6Ly93d3cudzMub3JnLzIwMDAvc3ZnIiB4bWxuczp4bGluaz0iaHR0cDovL3d3dy53My5vcmcvMTk5OS94bGluayIgdmVyc2lvbj0iMS4xIiBpZD0ic3ZnNjMxMjkiIGlua3NjYXBlOnZlcnNpb249IjAuOTIuMyAoMjQwNTU0NiwgMjAxOC0wMy0xMSkiIHNvZGlwb2RpOmRvY25hbWU9Imh0dHBzX2FkYXB0ZXJfMS5zdmciIHg9IjBweCIgeT0iMHB4IiB2aWV3Qm94PSIwIDAgNjQuMjggNTAuMzEiIHN0eWxlPSJlbmFibGUtYmFja2dyb3VuZDpuZXcgMCAwIDY0LjI4IDUwLjMxOyIgeG1sOnNwYWNlPSJwcmVzZXJ2ZSI+JiN4YTs8c29kaXBvZGk6bmFtZWR2aWV3IGJvcmRlcmNvbG9yPSIjNjY2NjY2IiBib3JkZXJvcGFjaXR5PSIxIiBmaXQtbWFyZ2luLWJvdHRvbT0iMCIgZml0LW1hcmdpbi1sZWZ0PSIwIiBmaXQtbWFyZ2luLXJpZ2h0PSIwIiBmaXQtbWFyZ2luLXRvcD0iMCIgZ3JpZHRvbGVyYW5jZT0iMTAiIGd1aWRldG9sZXJhbmNlPSIxMCIgaWQ9Im5hbWVkdmlldzYzMTMxIiBpbmtzY2FwZTpjdXJyZW50LWxheWVyPSJzdmc2MzEyOSIgaW5rc2NhcGU6Y3g9IjMyLjI3NDIwNiIgaW5rc2NhcGU6Y3k9IjE3LjQyMzEyOSIgaW5rc2NhcGU6cGFnZW9wYWNpdHk9IjAiIGlua3NjYXBlOnBhZ2VzaGFkb3c9IjIiIGlua3NjYXBlOndpbmRvdy1oZWlnaHQ9IjEwMTciIGlua3NjYXBlOndpbmRvdy1tYXhpbWl6ZWQ9IjEiIGlua3NjYXBlOndpbmRvdy13aWR0aD0iMTkyMCIgaW5rc2NhcGU6d2luZG93LXg9Ii04IiBpbmtzY2FwZTp3aW5kb3cteT0iLTgiIGlua3NjYXBlOnpvb209IjQuNDM3NjE2MSIgb2JqZWN0dG9sZXJhbmNlPSIxMCIgcGFnZWNvbG9yPSIjZmZmZmZmIiBzaG93Z3JpZD0iZmFsc2UiPiYjeGE7CTwvc29kaXBvZGk6bmFtZWR2aWV3PiYjeGE7PGcgaWQ9Imc2MzEyNyIgdHJhbnNmb3JtPSJ0cmFuc2xhdGUoLTAuNzUwMDM2ODgsLTAuNzQ4NCkiPiYjeGE7CTx0aXRsZSBpZD0idGl0bGU2MzA0NiI+UGFnZS0xPC90aXRsZT4mI3hhOwk8ZyBpZD0iZ3JvdXAzODQ3LTEiIHRyYW5zZm9ybT0idHJhbnNsYXRlKDAuNzUsLTEuNSkiPiYjeGE7CQk8dGl0bGUgaWQ9InRpdGxlNjMwNDgiPkhUVFBTIEFkYXB0ZXIgIzE8L3RpdGxlPiYjeGE7CQk8ZyBpZD0iZ3JvdXAzODQ4LTIiIHRyYW5zZm9ybT0idHJhbnNsYXRlKDEuMjg0OTQpIj4mI3hhOwkJCTx0aXRsZSBpZD0idGl0bGU2MzA1MCI+QWRhcHRlci9Db25uZWN0b3IuMTIxMzQ8L3RpdGxlPiYjeGE7CQkJPGcgaWQ9InNoYXBlMzg0OS0zIiB0cmFuc2Zvcm09InJvdGF0ZSgtOTAsMTEuNjI1LDM1LjY4MTcpIj4mI3hhOwkJCQk8dGl0bGUgaWQ9InRpdGxlNjMwNTIiPmxpbmUxNTU5ODwvdGl0bGU+JiN4YTsJCQkJJiN4YTsJCQkJCTxwYXRoIGlkPSJwYXRoNjMwNTQiIGlua3NjYXBlOmNvbm5lY3Rvci1jdXJ2YXR1cmU9IjAiIHN0eWxlPSJmaWxsOm5vbmU7c3Ryb2tlOiM1NTZBOEE7c3Ryb2tlLXdpZHRoOjEuNTtzdHJva2UtbWl0ZXJsaW1pdDozOyIgZD0iICAgICAgTTAsNTEuODFoMjkuMjUiLz4mI3hhOwkJCTwvZz4mI3hhOwkJCTxnIGlkPSJzaGFwZTM4NTAtNiIgdHJhbnNmb3JtPSJyb3RhdGUoOTAsMzMuNzUsNTEuODA2NykiPiYjeGE7CQkJCTx0aXRsZSBpZD0idGl0bGU2MzA1NyI+bGluZTE1NjAwPC90aXRsZT4mI3hhOwkJCQkmI3hhOwkJCQkJPHBhdGggaWQ9InBhdGg2MzA1OSIgaW5rc2NhcGU6Y29ubmVjdG9yLWN1cnZhdHVyZT0iMCIgc3R5bGU9ImZpbGw6bm9uZTtzdHJva2U6IzU1NkE4QTtzdHJva2Utd2lkdGg6MS41O3N0cm9rZS1taXRlcmxpbWl0OjM7IiBkPSIgICAgICBNMCw1MS44MWgyNyIvPiYjeGE7CQkJPC9nPiYjeGE7CQkJPGcgaWQ9InNoYXBlMzg1MS05IiB0cmFuc2Zvcm09InJvdGF0ZSgxODAsMzAuNzUsNDcuMzA2NjUpIj4mI3hhOwkJCQk8dGl0bGUgaWQ9InRpdGxlNjMwNjIiPmxpbmUxNTYwMjwvdGl0bGU+JiN4YTsJCQkJJiN4YTsJCQkJCTxwYXRoIGlkPSJwYXRoNjMwNjQiIGlua3NjYXBlOmNvbm5lY3Rvci1jdXJ2YXR1cmU9IjAiIHN0eWxlPSJmaWxsOm5vbmU7c3Ryb2tlOiM1NTZBOEE7c3Ryb2tlLXdpZHRoOjEuNTtzdHJva2UtbWl0ZXJsaW1pdDozOyIgZD0iICAgICAgTTAsNTEuODFoNjEuNSIvPiYjeGE7CQkJPC9nPiYjeGE7CQkJPGcgaWQ9InNoYXBlMzg1Mi0xMiIgdHJhbnNmb3JtPSJyb3RhdGUoMTgwLDMwLjc1LDUwLjMwNjUpIj4mI3hhOwkJCQk8dGl0bGUgaWQ9InRpdGxlNjMwNjciPmxpbmUxNTYwNDwvdGl0bGU+JiN4YTsJCQkJJiN4YTsJCQkJCTxwYXRoIGlkPSJwYXRoNjMwNjkiIGlua3NjYXBlOmNvbm5lY3Rvci1jdXJ2YXR1cmU9IjAiIHN0eWxlPSJmaWxsOm5vbmU7c3Ryb2tlOiM1NTZBOEE7c3Ryb2tlLXdpZHRoOjEuNTtzdHJva2UtbWl0ZXJsaW1pdDozOyIgZD0iICAgICAgTTAsNTEuODFoNjEuNSIvPiYjeGE7CQkJPC9nPiYjeGE7CQkJPGcgaWQ9InNoYXBlMzg1My0xNSIgdHJhbnNmb3JtPSJ0cmFuc2xhdGUoMjEuNzUpIj4mI3hhOwkJCQk8dGl0bGUgaWQ9InRpdGxlNjMwNzIiPnJlY3QxNTYwNjwvdGl0bGU+JiN4YTsJCQkJJiN4YTsJCQkJCTxwYXRoIGlkPSJwYXRoNjMwNzQiIGlua3NjYXBlOmNvbm5lY3Rvci1jdXJ2YXR1cmU9IjAiIHN0eWxlPSJmaWxsOiM5MjczQjY7c3Ryb2tlOiM1NTZBOEE7c3Ryb2tlLXdpZHRoOjEuNTtzdHJva2UtbWl0ZXJsaW1pdDozOyIgZD0iICAgICAgTTAsNDguODFjMCwxLjY2LDEuMzQsMywzLDNoMTJjMS42NiwwLDMtMS4zNCwzLTN2LTZjMC0xLjY2LTEuMzQtMy0zLTNIM2MtMS42NiwwLTMsMS4zNC0zLDNWNDguODF6Ii8+JiN4YTsJCQk8L2c+JiN4YTsJCTwvZz4mI3hhOwkJPGcgaWQ9Imdyb3VwMzg1NC0xNyIgdHJhbnNmb3JtPSJ0cmFuc2xhdGUoMCwtMjMuOTYxNikiPiYjeGE7CQkJPHRpdGxlIGlkPSJ0aXRsZTYzMDc4Ij5TaGVldC4zODU0PC90aXRsZT4mI3hhOwkJCTxnIGlkPSJzaGFwZTM4NTUtMTgiPiYjeGE7CQkJCTx0aXRsZSBpZD0idGl0bGU2MzA4MCI+U2hlZXQuMzg1NTwvdGl0bGU+JiN4YTsJCQkJPHBhdGggaWQ9InBhdGg2MzA4MiIgaW5rc2NhcGU6Y29ubmVjdG9yLWN1cnZhdHVyZT0iMCIgc3R5bGU9ImZpbGw6IzI3NDE1RTsiIGQ9Ik0xLjg2LDI2LjIxaDYwLjU2YzEuMDIsMCwxLjg2LDAuNjQsMS44NiwxLjQzICAgICAgdjIyLjc0YzAsMC43OS0wLjg0LDEuNDMtMS44NiwxLjQzSDEuODZDMC44Myw1MS44MSwwLDUxLjE3LDAsNTAuMzhWMjcuNjRDMCwyNi44NSwwLjgzLDI2LjIxLDEuODYsMjYuMjF6Ii8+JiN4YTsJCQk8L2c+JiN4YTsJCQk8ZyBpZD0ic2hhcGUzODU2LTIwIiB0cmFuc2Zvcm09InRyYW5zbGF0ZSg0Ny4wMTg2LC04Ljk4ODA3KSI+JiN4YTsJCQkJPHRpdGxlIGlkPSJ0aXRsZTYzMDg1Ij5TaGVldC4zODU2PC90aXRsZT4mI3hhOwkJCQk8cGF0aCBpZD0icGF0aDYzMDg3IiBpbmtzY2FwZTpjb25uZWN0b3ItY3VydmF0dXJlPSIwIiBzdHlsZT0iZmlsbDojRkZGRkZGOyIgZD0iTTEuNzEsNTEuODF2LTEuNzlIMHYxLjc5SDEuNzF6IE0xLjcxLDQ2LjgzICAgICAgdi0xLjc5SDB2MS43OUgxLjcxeiIvPiYjeGE7CQkJPC9nPiYjeGE7CQkJPGcgaWQ9InNoYXBlMzg1Ny0yMiIgdHJhbnNmb3JtPSJ0cmFuc2xhdGUoNTAuMzAxLC03LjY5NjU3KSI+JiN4YTsJCQkJPHRpdGxlIGlkPSJ0aXRsZTYzMDkwIj5TaGVldC4zODU3PC90aXRsZT4mI3hhOwkJCQk8cGF0aCBpZD0icGF0aDYzMDkyIiBpbmtzY2FwZTpjb25uZWN0b3ItY3VydmF0dXJlPSIwIiBzdHlsZT0iZmlsbDojRkZGRkZGOyIgZD0iTTQuODQsNDAuOEgzLjI4TDAsNTEuODFoMS41N0w0Ljg0LDQwLjh6Ii8+JiN4YTsJCQk8L2c+JiN4YTsJCQk8ZyBpZD0ic2hhcGUzODU4LTI0IiB0cmFuc2Zvcm09InRyYW5zbGF0ZSg1NS4xMTc3LC03LjY5NjU3KSI+JiN4YTsJCQkJPHRpdGxlIGlkPSJ0aXRsZTYzMDk1Ij5TaGVldC4zODU4PC90aXRsZT4mI3hhOwkJCQk8cGF0aCBpZD0icGF0aDYzMDk3IiBpbmtzY2FwZTpjb25uZWN0b3ItY3VydmF0dXJlPSIwIiBzdHlsZT0iZmlsbDojRkZGRkZGOyIgZD0iTTQuODQsNDAuOEgzLjI4TDAsNTEuODFoMS41N0w0Ljg0LDQwLjh6Ii8+JiN4YTsJCQk8L2c+JiN4YTsJCQk8ZyBpZD0ic2hhcGUzODU5LTI2IiB0cmFuc2Zvcm09InRyYW5zbGF0ZSg3LjY5MTY3LC03LjczNTkxKSI+JiN4YTsJCQkJPHRpdGxlIGlkPSJ0aXRsZTYzMTAwIj5TaGVldC4zODU5PC90aXRsZT4mI3hhOwkJCQk8cGF0aCBpZD0icGF0aDYzMTAyIiBpbmtzY2FwZTpjb25uZWN0b3ItY3VydmF0dXJlPSIwIiBzdHlsZT0iZmlsbDojRkZGRkZGOyIgZD0iTTIsNDcuNTdoMi45NHY0LjI0aDJ2LTkuODloLTJ2NEgydi00SDB2OS44OWgyICAgICAgVjQ3LjU3eiIvPiYjeGE7CQkJPC9nPiYjeGE7CQkJPGcgaWQ9InNoYXBlMzg2MC0yOCIgdHJhbnNmb3JtPSJ0cmFuc2xhdGUoMTUuNTczOCwtNy43MzU5MSkiPiYjeGE7CQkJCTx0aXRsZSBpZD0idGl0bGU2MzEwNSI+U2hlZXQuMzg2MDwvdGl0bGU+JiN4YTsJCQkJPHBhdGggaWQ9InBhdGg2MzEwNyIgaW5rc2NhcGU6Y29ubmVjdG9yLWN1cnZhdHVyZT0iMCIgc3R5bGU9ImZpbGw6I0ZGRkZGRjsiIGQ9Ik0yLjQxLDUxLjgxaDJ2LTguMjRoMi40N3YtMS42NUgwdjEuNjVoMi40MSAgICAgIFY1MS44MXoiLz4mI3hhOwkJCTwvZz4mI3hhOwkJCTxnIGlkPSJzaGFwZTM4NjEtMzAiIHRyYW5zZm9ybT0idHJhbnNsYXRlKDIzLjI3OTQsLTcuNzM1OTEpIj4mI3hhOwkJCQk8dGl0bGUgaWQ9InRpdGxlNjMxMTAiPlNoZWV0LjM4NjE8L3RpdGxlPiYjeGE7CQkJCTxwYXRoIGlkPSJwYXRoNjMxMTIiIGlua3NjYXBlOmNvbm5lY3Rvci1jdXJ2YXR1cmU9IjAiIHN0eWxlPSJmaWxsOiNGRkZGRkY7IiBkPSJNMi40MSw1MS44MWgydi04LjI0aDIuNDF2LTEuNjVIMHYxLjY1aDIuNDEgICAgICBWNTEuODF6Ii8+JiN4YTsJCQk8L2c+JiN4YTsJCQk8ZyBpZD0ic2hhcGUzODYyLTMyIiB0cmFuc2Zvcm09InRyYW5zbGF0ZSgzMC45ODUsLTcuNjc3MDkpIj4mI3hhOwkJCQk8dGl0bGUgaWQ9InRpdGxlNjMxMTUiPlNoZWV0LjM4NjI8L3RpdGxlPiYjeGE7CQkJCTxwYXRoIGlkPSJwYXRoNjMxMTciIGlua3NjYXBlOmNvbm5lY3Rvci1jdXJ2YXR1cmU9IjAiIHN0eWxlPSJmaWxsOiNGRkZGRkY7IiBkPSJNMiw0OC4yOGgxLjM1YzEsMCwxLjgzLTAuMywyLjQxLTAuODMgICAgICBjMC41OS0wLjUzLDAuODktMS4zNSwwLjg5LTIuMjlzLTAuMy0xLjc2LTAuODktMi4zNWMtMC41OC0wLjU5LTEuMzUtMC44OS0yLjM1LTAuODlIMHY5Ljg5aDJWNDguMjh6IE0yLDQzLjUxaDEuNDEgICAgICBjMC4zNSwwLDAuNjUsMC4xOCwwLjg4LDAuNDdjMC4yNCwwLjMsMC4zLDAuNzEsMC4zLDEuMThzLTAuMTIsMC44Mi0wLjMsMS4xMmMtMC4xNywwLjIzLTAuNDcsMC4zNS0wLjg4LDAuMzVIMi4wNnYtMy4xMkgyeiIvPiYjeGE7CQkJPC9nPiYjeGE7CQkJPGcgaWQ9InNoYXBlMzg2My0zNCIgdHJhbnNmb3JtPSJ0cmFuc2xhdGUoMzguMDQzNiwtNy42NzcwOSkiPiYjeGE7CQkJCTx0aXRsZSBpZD0idGl0bGU2MzEyMCI+U2hlZXQuMzg2MzwvdGl0bGU+JiN4YTsJCQkJPHBhdGggaWQ9InBhdGg2MzEyMiIgaW5rc2NhcGU6Y29ubmVjdG9yLWN1cnZhdHVyZT0iMCIgc3R5bGU9ImZpbGw6I0ZGRkZGRjsiIGQ9Ik0zLjQxLDUwLjIyYy0wLjQ3LDAtMC44OC0wLjEyLTEuMDYtMC40MSAgICAgIEMyLjEyLDQ5LjU3LDIsNDkuMTYsMiw0OC41N0gwYzAsMC42NSwwLjE4LDEuMjQsMC40NywxLjcxYzAuMjksMC40NywwLjcxLDAuODgsMS4yNCwxLjExYzAuNTMsMC4zLDEuMTEsMC40MiwxLjc2LDAuNDIgICAgICBjMC45NCwwLDEuNzEtMC4yNCwyLjI0LTAuNzFjMC41My0wLjQ3LDAuODItMS4xOCwwLjgyLTJjMC0wLjc2LTAuMjQtMS40MS0wLjY1LTEuOTRzLTEuMTItMC45NC0yLjEyLTEuMjkgICAgICBjLTAuNTItMC4yNC0wLjk0LTAuNDctMS4xNy0wLjcxYy0wLjI0LTAuMjQtMC4zLTAuNDctMC4zLTAuNzFjMC0wLjM1LDAuMTItMC42NCwwLjMtMC44MmMwLjE3LTAuMTgsMC40Ny0wLjI5LDAuODItMC4yOSAgICAgIHMwLjY1LDAuMTEsMC44OCwwLjM1YzAuMTgsMC4yMywwLjMsMC41OSwwLjMsMS4wNmgyYzAtMC41OS0wLjEyLTEuMTItMC4zNS0xLjU5QzYsNDIuNjksNS41OSw0Mi4zNCw1LjEyLDQyLjEgICAgICBjLTAuNDctMC4yMy0xLTAuMzUtMS42NS0wLjM1Yy0wLjg4LDAtMS42NSwwLjIzLTIuMjMsMC43NmMtMC41OSwwLjUzLTAuODksMS4xOC0wLjg5LDJjMCwwLjcxLDAuMjQsMS4zLDAuNjUsMS43NyAgICAgIGMwLjQxLDAuNTMsMS4xOCwwLjk0LDIuMTIsMS4zNWMwLjUzLDAuMjQsMC45NCwwLjQxLDEuMTIsMC42NWMwLjIzLDAuMjMsMC4yOSwwLjUzLDAuMjksMC45NEM0LjQ3LDQ5Ljg3LDQuMTIsNTAuMjIsMy40MSw1MC4yMiAgICAgIHoiLz4mI3hhOwkJCTwvZz4mI3hhOwkJPC9nPiYjeGE7CTwvZz4mI3hhOzwvZz4mI3hhOzwvc3ZnPg==;fontColor=#000000;" vertex="1" parent="1">
          <mxGeometry x="43.670000000000016" y="752" width="64" height="50" as="geometry" />
        </mxCell>
        <mxCell id="izj6aGMY5wUGhT8EYzV--60" value="" style="shape=image;verticalLabelPosition=bottom;labelBackgroundColor=#ffffff;verticalAlign=top;aspect=fixed;imageAspect=0;image=data:image/svg+xml,PHN2ZyB4bWxuczpjYz0iaHR0cDovL2NyZWF0aXZlY29tbW9ucy5vcmcvbnMjIiB4bWxuczpkYz0iaHR0cDovL3B1cmwub3JnL2RjL2VsZW1lbnRzLzEuMS8iIHhtbG5zOmlua3NjYXBlPSJodHRwOi8vd3d3Lmlua3NjYXBlLm9yZy9uYW1lc3BhY2VzL2lua3NjYXBlIiB4bWxuczpyZGY9Imh0dHA6Ly93d3cudzMub3JnLzE5OTkvMDIvMjItcmRmLXN5bnRheC1ucyMiIHhtbG5zOnNvZGlwb2RpPSJodHRwOi8vc29kaXBvZGkuc291cmNlZm9yZ2UubmV0L0RURC9zb2RpcG9kaS0wLmR0ZCIgeG1sbnM6c3ZnPSJodHRwOi8vd3d3LnczLm9yZy8yMDAwL3N2ZyIgeG1sbnM9Imh0dHA6Ly93d3cudzMub3JnLzIwMDAvc3ZnIiB4bWxuczp4bGluaz0iaHR0cDovL3d3dy53My5vcmcvMTk5OS94bGluayIgdmVyc2lvbj0iMS4xIiBpZD0ic3ZnMjE1NTEwIiBpbmtzY2FwZTp2ZXJzaW9uPSIwLjkyLjMgKDI0MDU1NDYsIDIwMTgtMDMtMTEpIiBzb2RpcG9kaTpkb2NuYW1lPSJ2aXN1YWxfc3R1ZGlvLnN2ZyIgeD0iMHB4IiB5PSIwcHgiIHZpZXdCb3g9IjAgMCA1MS4yNSA1MS4yNCIgc3R5bGU9ImVuYWJsZS1iYWNrZ3JvdW5kOm5ldyAwIDAgNTEuMjUgNTEuMjQ7IiB4bWw6c3BhY2U9InByZXNlcnZlIj4mI3hhOzxzb2RpcG9kaTpuYW1lZHZpZXcgYm9yZGVyY29sb3I9IiM2NjY2NjYiIGJvcmRlcm9wYWNpdHk9IjEiIGZpdC1tYXJnaW4tYm90dG9tPSIwIiBmaXQtbWFyZ2luLWxlZnQ9IjAiIGZpdC1tYXJnaW4tcmlnaHQ9IjAiIGZpdC1tYXJnaW4tdG9wPSIwIiBncmlkdG9sZXJhbmNlPSIxMCIgZ3VpZGV0b2xlcmFuY2U9IjEwIiBpZD0ibmFtZWR2aWV3MjE1NTEyIiBpbmtzY2FwZTpjdXJyZW50LWxheWVyPSJzdmcyMTU1MTAiIGlua3NjYXBlOmN4PSIzNC4xNjc4NjIiIGlua3NjYXBlOmN5PSIzNC4xNjI1OTUiIGlua3NjYXBlOnBhZ2VvcGFjaXR5PSIwIiBpbmtzY2FwZTpwYWdlc2hhZG93PSIyIiBpbmtzY2FwZTp3aW5kb3ctaGVpZ2h0PSIxMDE3IiBpbmtzY2FwZTp3aW5kb3ctbWF4aW1pemVkPSIxIiBpbmtzY2FwZTp3aW5kb3ctd2lkdGg9IjE5MjAiIGlua3NjYXBlOndpbmRvdy14PSItOCIgaW5rc2NhcGU6d2luZG93LXk9Ii04IiBpbmtzY2FwZTp6b29tPSIxMC42NzQiIG9iamVjdHRvbGVyYW5jZT0iMTAiIHBhZ2Vjb2xvcj0iI2ZmZmZmZiIgc2hvd2dyaWQ9ImZhbHNlIj4mI3hhOwk8L3NvZGlwb2RpOm5hbWVkdmlldz4mI3hhOzxnIGlkPSJnMjE1NTA4IiB0cmFuc2Zvcm09InRyYW5zbGF0ZSgtNC44Mzg1NiwtNC44NDE0NCkiPiYjeGE7CTx0aXRsZSBpZD0idGl0bGUyMTU1MDEiPlBhZ2UtMTwvdGl0bGU+JiN4YTsJPGcgaWQ9InNoYXBlMzM1LTEiIHRyYW5zZm9ybT0idHJhbnNsYXRlKDQuODM4NTYsLTQuODM4NTYpIj4mI3hhOwkJPHRpdGxlIGlkPSJ0aXRsZTIxNTUwMyI+VmlzdWFsIFN0dWRpbzwvdGl0bGU+JiN4YTsJCTxwYXRoIGlkPSJwYXRoMjE1NTA1IiBpbmtzY2FwZTpjb25uZWN0b3ItY3VydmF0dXJlPSIwIiBzdHlsZT0iZmlsbDojNjYyRjhGOyIgZD0iTTM4LjQ0LDkuNjhMMTguMSwzMC4wMUw1LjEzLDE5LjkyTDAsMjIuNDkgICAgdjI1LjYybDUuMTMsMi41NkwxOC4xLDQwLjU4bDIwLjM0LDIwLjM0bDEyLjgxLTUuMTJ2LTQxTDM4LjQ0LDkuNjh6IE01LjEzLDQyLjk4VjI3LjYxbDcuNjgsNy42OUw1LjEzLDQyLjk4eiBNMjQuODksMzUuMyAgICBsMTMuNTUtMTAuNTR2MjEuMDdMMjQuODksMzUuM3oiLz4mI3hhOwk8L2c+JiN4YTs8L2c+JiN4YTs8L3N2Zz4=;fontColor=#000000;" vertex="1" parent="1">
          <mxGeometry x="950" y="657.45" width="51" height="51" as="geometry" />
        </mxCell>
        <mxCell id="izj6aGMY5wUGhT8EYzV--63" value="" style="shape=image;verticalLabelPosition=bottom;labelBackgroundColor=#ffffff;verticalAlign=top;aspect=fixed;imageAspect=0;image=data:image/svg+xml,PHN2ZyB4bWxuczpkYz0iaHR0cDovL3B1cmwub3JnL2RjL2VsZW1lbnRzLzEuMS8iIHhtbG5zOmNjPSJodHRwOi8vY3JlYXRpdmVjb21tb25zLm9yZy9ucyMiIHhtbG5zOnJkZj0iaHR0cDovL3d3dy53My5vcmcvMTk5OS8wMi8yMi1yZGYtc3ludGF4LW5zIyIgeG1sbnM6c3ZnPSJodHRwOi8vd3d3LnczLm9yZy8yMDAwL3N2ZyIgeG1sbnM9Imh0dHA6Ly93d3cudzMub3JnLzIwMDAvc3ZnIiB4bWxuczp4bGluaz0iaHR0cDovL3d3dy53My5vcmcvMTk5OS94bGluayIgeG1sbnM6c29kaXBvZGk9Imh0dHA6Ly9zb2RpcG9kaS5zb3VyY2Vmb3JnZS5uZXQvRFREL3NvZGlwb2RpLTAuZHRkIiB4bWxuczppbmtzY2FwZT0iaHR0cDovL3d3dy5pbmtzY2FwZS5vcmcvbmFtZXNwYWNlcy9pbmtzY2FwZSIgdmVyc2lvbj0iMS4xIiBpZD0iTGF5ZXJfMSIgeD0iMHB4IiB5PSIwcHgiIHZpZXdCb3g9IjAgMCA0Ny42OTAwMSA0Ny42ODA0NjIiIHhtbDpzcGFjZT0icHJlc2VydmUiIHNvZGlwb2RpOmRvY25hbWU9InZhbGlkLnN2ZyIgd2lkdGg9IjQ3LjY5MDAxIiBoZWlnaHQ9IjQ3LjY4MDQ2MiIgaW5rc2NhcGU6dmVyc2lvbj0iMC45Mi4zICgyNDA1NTQ2LCAyMDE4LTAzLTExKSI+PG1ldGFkYXRhIGlkPSJtZXRhZGF0YTQ3NzQyIj48cmRmOlJERj48Y2M6V29yayByZGY6YWJvdXQ9IiI+PGRjOmZvcm1hdD5pbWFnZS9zdmcreG1sPC9kYzpmb3JtYXQ+PGRjOnR5cGUgcmRmOnJlc291cmNlPSJodHRwOi8vcHVybC5vcmcvZGMvZGNtaXR5cGUvU3RpbGxJbWFnZSIvPjxkYzp0aXRsZS8+PC9jYzpXb3JrPjwvcmRmOlJERj48L21ldGFkYXRhPjxkZWZzIGlkPSJkZWZzNDc3NDAiLz48c29kaXBvZGk6bmFtZWR2aWV3IHBhZ2Vjb2xvcj0iI2ZmZmZmZiIgYm9yZGVyY29sb3I9IiM2NjY2NjYiIGJvcmRlcm9wYWNpdHk9IjEiIG9iamVjdHRvbGVyYW5jZT0iMTAiIGdyaWR0b2xlcmFuY2U9IjEwIiBndWlkZXRvbGVyYW5jZT0iMTAiIGlua3NjYXBlOnBhZ2VvcGFjaXR5PSIwIiBpbmtzY2FwZTpwYWdlc2hhZG93PSIyIiBpbmtzY2FwZTp3aW5kb3ctd2lkdGg9IjE5MjAiIGlua3NjYXBlOndpbmRvdy1oZWlnaHQ9IjEwMTciIGlkPSJuYW1lZHZpZXc0NzczOCIgc2hvd2dyaWQ9ImZhbHNlIiBmaXQtbWFyZ2luLXRvcD0iMCIgZml0LW1hcmdpbi1sZWZ0PSIwIiBmaXQtbWFyZ2luLXJpZ2h0PSIwIiBmaXQtbWFyZ2luLWJvdHRvbT0iMCIgaW5rc2NhcGU6em9vbT0iMS4wMzAzMDMiIGlua3NjYXBlOmN4PSItNDIuMjE0OTk2IiBpbmtzY2FwZTpjeT0iLTI4OC43OTYwMSIgaW5rc2NhcGU6d2luZG93LXg9Ii04IiBpbmtzY2FwZTp3aW5kb3cteT0iLTgiIGlua3NjYXBlOndpbmRvdy1tYXhpbWl6ZWQ9IjEiIGlua3NjYXBlOmN1cnJlbnQtbGF5ZXI9IkxheWVyXzEiLz4mI3hhOyYjeGE7PGcgaWQ9Imc0NzczNSIgdHJhbnNmb3JtPSJ0cmFuc2xhdGUoLTMzOS41OSwtNDUuNDUwMDAxKSI+JiN4YTsJPGRlZnMgaWQ9ImRlZnM0NzcxOCI+JiN4YTsJCTxyZWN0IGlkPSJTVkdJRF8zXyIgeD0iMzM5LjU5IiB5PSI0NS40NTAwMDEiIHdpZHRoPSI0OCIgaGVpZ2h0PSI0OCIvPiYjeGE7CTwvZGVmcz4mI3hhOwk8Y2xpcFBhdGggaWQ9IlNWR0lEXzRfIj4mI3hhOwkJPHVzZSB4bGluazpocmVmPSIjU1ZHSURfM18iIHN0eWxlPSJvdmVyZmxvdzp2aXNpYmxlIiBpZD0idXNlNDc3MjAiIHg9IjAiIHk9IjAiIHdpZHRoPSIxMDAlIiBoZWlnaHQ9IjEwMCUiLz4mI3hhOwk8L2NsaXBQYXRoPiYjeGE7CTxnIGNsaXAtcGF0aD0idXJsKCNTVkdJRF80XykiIGlkPSJnNDc3MzMiPiYjeGE7CQk8ZGVmcyBpZD0iZGVmczQ3NzI0Ij4mI3hhOwkJCTxyZWN0IGlkPSJTVkdJRF81XyIgeD0iMzM5LjU5IiB5PSI0NS40NTAwMDEiIHdpZHRoPSI0OCIgaGVpZ2h0PSI0OCIvPiYjeGE7CQk8L2RlZnM+JiN4YTsJCTxjbGlwUGF0aCBpZD0iU1ZHSURfNl8iPiYjeGE7CQkJPHVzZSB4bGluazpocmVmPSIjU1ZHSURfNV8iIHN0eWxlPSJvdmVyZmxvdzp2aXNpYmxlIiBpZD0idXNlNDc3MjYiIHg9IjAiIHk9IjAiIHdpZHRoPSIxMDAlIiBoZWlnaHQ9IjEwMCUiLz4mI3hhOwkJPC9jbGlwUGF0aD4mI3hhOwkJPHBhdGggc3R5bGU9ImZpbGw6IzgxYzc4NCIgZD0ibSAzNjMuNCw0NS40NSBjIC05LjYzLDAgLTE4LjMyLDUuODEgLTIxLjk5LDE0Ljc0IC0zLjcxLDguOSAtMS42NSwxOS4xNiA1LjE4LDI1Ljk1IDYuNzksNi44MyAxNy4wNSw4Ljg2IDI1Ljk1LDUuMTggOC45MywtMy43MSAxNC43NCwtMTIuNCAxNC43NCwtMjIuMDMgQyAzODcuMjksNTYuMSAzNzYuNjEsNDUuNDIgMzYzLjQsNDUuNDUgWiIgY2xpcC1wYXRoPSJ1cmwoI1NWR0lEXzZfKSIgaWQ9InBhdGg0NzcyOSIgaW5rc2NhcGU6Y29ubmVjdG9yLWN1cnZhdHVyZT0iMCIvPiYjeGE7CQk8cG9seWdvbiBzdHlsZT0iZmlsbDojZmZmZmZmIiBwb2ludHM9IjM1My44NCw2Ny4wMiAzNTkuNTksNzIuNzcgMzcyLjE2LDYwLjIzIDM3NS44LDYzLjg3IDM1OS41OSw4MC4wOSAzNTAuMiw3MC43ICIgY2xpcC1wYXRoPSJ1cmwoI1NWR0lEXzZfKSIgaWQ9InBvbHlnb240NzczMSIvPiYjeGE7CTwvZz4mI3hhOzwvZz4mI3hhOzwvc3ZnPg==;" vertex="1" parent="1">
          <mxGeometry x="240" y="368" width="20" height="20" as="geometry" />
        </mxCell>
        <mxCell id="izj6aGMY5wUGhT8EYzV--64" value="" style="shape=image;verticalLabelPosition=bottom;labelBackgroundColor=#ffffff;verticalAlign=top;aspect=fixed;imageAspect=0;image=data:image/svg+xml,PHN2ZyB4bWxuczpjYz0iaHR0cDovL2NyZWF0aXZlY29tbW9ucy5vcmcvbnMjIiB4bWxuczpkYz0iaHR0cDovL3B1cmwub3JnL2RjL2VsZW1lbnRzLzEuMS8iIHhtbG5zOmlua3NjYXBlPSJodHRwOi8vd3d3Lmlua3NjYXBlLm9yZy9uYW1lc3BhY2VzL2lua3NjYXBlIiB4bWxuczpyZGY9Imh0dHA6Ly93d3cudzMub3JnLzE5OTkvMDIvMjItcmRmLXN5bnRheC1ucyMiIHhtbG5zOnNvZGlwb2RpPSJodHRwOi8vc29kaXBvZGkuc291cmNlZm9yZ2UubmV0L0RURC9zb2RpcG9kaS0wLmR0ZCIgeG1sbnM6c3ZnPSJodHRwOi8vd3d3LnczLm9yZy8yMDAwL3N2ZyIgeG1sbnM9Imh0dHA6Ly93d3cudzMub3JnLzIwMDAvc3ZnIiB4bWxuczp4bGluaz0iaHR0cDovL3d3dy53My5vcmcvMTk5OS94bGluayIgdmVyc2lvbj0iMS4xIiBpZD0ic3ZnOTUwMjEiIGlua3NjYXBlOnZlcnNpb249IjAuOTIuMyAoMjQwNTU0NiwgMjAxOC0wMy0xMSkiIHNvZGlwb2RpOmRvY25hbWU9InJlbW92ZV8xLnN2ZyIgeD0iMHB4IiB5PSIwcHgiIHZpZXdCb3g9IjAgMCAzNS44NSAzNS44NSIgc3R5bGU9ImVuYWJsZS1iYWNrZ3JvdW5kOm5ldyAwIDAgMzUuODUgMzUuODU7IiB4bWw6c3BhY2U9InByZXNlcnZlIj4mI3hhOzxzb2RpcG9kaTpuYW1lZHZpZXcgYm9yZGVyY29sb3I9IiM2NjY2NjYiIGJvcmRlcm9wYWNpdHk9IjEiIGZpdC1tYXJnaW4tYm90dG9tPSIwIiBmaXQtbWFyZ2luLWxlZnQ9IjAiIGZpdC1tYXJnaW4tcmlnaHQ9IjAiIGZpdC1tYXJnaW4tdG9wPSIwIiBncmlkdG9sZXJhbmNlPSIxMCIgZ3VpZGV0b2xlcmFuY2U9IjEwIiBpZD0ibmFtZWR2aWV3OTUwMjMiIGlua3NjYXBlOmN1cnJlbnQtbGF5ZXI9InN2Zzk1MDIxIiBpbmtzY2FwZTpjeD0iMjMuODk5MTUyIiBpbmtzY2FwZTpjeT0iMjMuODk5OTUyIiBpbmtzY2FwZTpwYWdlb3BhY2l0eT0iMCIgaW5rc2NhcGU6cGFnZXNoYWRvdz0iMiIgaW5rc2NhcGU6d2luZG93LWhlaWdodD0iMTAxNyIgaW5rc2NhcGU6d2luZG93LW1heGltaXplZD0iMSIgaW5rc2NhcGU6d2luZG93LXdpZHRoPSIxOTIwIiBpbmtzY2FwZTp3aW5kb3cteD0iLTgiIGlua3NjYXBlOndpbmRvdy15PSItOCIgaW5rc2NhcGU6em9vbT0iMTguMTM4MDYzIiBvYmplY3R0b2xlcmFuY2U9IjEwIiBwYWdlY29sb3I9IiNmZmZmZmYiIHNob3dncmlkPSJmYWxzZSI+JiN4YTsJPC9zb2RpcG9kaTpuYW1lZHZpZXc+JiN4YTs8ZyBpZD0iZzk1MDE5IiB0cmFuc2Zvcm09InRyYW5zbGF0ZSgwLC00Ljk0NTM1NDVlLTUpIj4mI3hhOwk8dGl0bGUgaWQ9InRpdGxlOTQ5OTkiPlBhZ2UtMTwvdGl0bGU+JiN4YTsJPGcgaWQ9Imdyb3VwNTkwMS0xIj4mI3hhOwkJPHRpdGxlIGlkPSJ0aXRsZTk1MDAxIj5SZW1vdmUgIzE8L3RpdGxlPiYjeGE7CQk8ZyBpZD0ic2hhcGU1OTAyLTIiPiYjeGE7CQkJPHRpdGxlIGlkPSJ0aXRsZTk1MDAzIj5TaGVldC41OTAyPC90aXRsZT4mI3hhOwkJCTxwYXRoIGlkPSJwYXRoOTUwMDUiIGlua3NjYXBlOmNvbm5lY3Rvci1jdXJ2YXR1cmU9IjAiIHN0eWxlPSJmaWxsOiNGNEFFN0E7IiBkPSJNMzUuODUsMTcuOTNjMCw5LjkyLTguMDQsMTcuOTItMTcuOTMsMTcuOTIgICAgIEM4LDM1Ljg1LDAsMjcuODUsMCwxNy45M0MwLDguMDQsOCwwLDE3LjkyLDBDMjcuODEsMCwzNS44NSw4LjA0LDM1Ljg1LDE3LjkzeiIvPiYjeGE7CQk8L2c+JiN4YTsJCTxnIGlkPSJzaGFwZTU5MDMtNCIgdHJhbnNmb3JtPSJ0cmFuc2xhdGUoNi43NjAyNywtNi44Mzc3NykiPiYjeGE7CQkJPHRpdGxlIGlkPSJ0aXRsZTk1MDA4Ij5TaGVldC41OTAzPC90aXRsZT4mI3hhOwkJCTxwYXRoIGlkPSJwYXRoOTUwMTAiIGlua3NjYXBlOmNvbm5lY3Rvci1jdXJ2YXR1cmU9IjAiIHN0eWxlPSJmaWxsOiNGRkZGRkY7IiBkPSJNMjIuMzMsMzEuOTVsLTMuOSwzLjlMMCwxNy40NmwzLjk0LTMuOSAgICAgTDIyLjMzLDMxLjk1eiIvPiYjeGE7CQk8L2c+JiN4YTsJCTxnIGlkPSJzaGFwZTU5MDQtNiIgdHJhbnNmb3JtPSJ0cmFuc2xhdGUoNi43OTg5LC02LjgzNzc3KSI+JiN4YTsJCQk8dGl0bGUgaWQ9InRpdGxlOTUwMTMiPlNoZWV0LjU5MDQ8L3RpdGxlPiYjeGE7CQkJPHBhdGggaWQ9InBhdGg5NTAxNSIgaW5rc2NhcGU6Y29ubmVjdG9yLWN1cnZhdHVyZT0iMCIgc3R5bGU9ImZpbGw6I0ZGRkZGRjsiIGQ9Ik0xOC4zOSwxMy41NmwzLjksMy45TDMuOSwzNS44NUwwLDMxLjk1ICAgICBMMTguMzksMTMuNTZ6Ii8+JiN4YTsJCTwvZz4mI3hhOwk8L2c+JiN4YTs8L2c+JiN4YTs8L3N2Zz4=;" vertex="1" parent="1">
          <mxGeometry x="337" y="283" width="20" height="20" as="geometry" />
        </mxCell>
        <mxCell id="izj6aGMY5wUGhT8EYzV--67" value="&lt;b&gt;Origin&lt;/b&gt;: Widget.Milestone-consult.de" style="text;strokeColor=none;align=center;fillColor=none;html=1;verticalAlign=middle;whiteSpace=wrap;rounded=0;fontColor=#000000;" vertex="1" parent="1">
          <mxGeometry x="1035" y="674.9500000000002" width="196" height="30" as="geometry" />
        </mxCell>
        <mxCell id="izj6aGMY5wUGhT8EYzV--71" value="" style="shape=image;verticalLabelPosition=bottom;labelBackgroundColor=#ffffff;verticalAlign=top;aspect=fixed;imageAspect=0;image=data:image/svg+xml,PHN2ZyB4bWxuczpjYz0iaHR0cDovL2NyZWF0aXZlY29tbW9ucy5vcmcvbnMjIiB4bWxuczpkYz0iaHR0cDovL3B1cmwub3JnL2RjL2VsZW1lbnRzLzEuMS8iIHhtbG5zOmlua3NjYXBlPSJodHRwOi8vd3d3Lmlua3NjYXBlLm9yZy9uYW1lc3BhY2VzL2lua3NjYXBlIiB4bWxuczpyZGY9Imh0dHA6Ly93d3cudzMub3JnLzE5OTkvMDIvMjItcmRmLXN5bnRheC1ucyMiIHhtbG5zOnNvZGlwb2RpPSJodHRwOi8vc29kaXBvZGkuc291cmNlZm9yZ2UubmV0L0RURC9zb2RpcG9kaS0wLmR0ZCIgeG1sbnM6c3ZnPSJodHRwOi8vd3d3LnczLm9yZy8yMDAwL3N2ZyIgeG1sbnM9Imh0dHA6Ly93d3cudzMub3JnLzIwMDAvc3ZnIiB4bWxuczp4bGluaz0iaHR0cDovL3d3dy53My5vcmcvMTk5OS94bGluayIgdmVyc2lvbj0iMS4xIiBpZD0ic3ZnODA1NTEiIGlua3NjYXBlOnZlcnNpb249IjAuOTIuMyAoMjQwNTU0NiwgMjAxOC0wMy0xMSkiIHNvZGlwb2RpOmRvY25hbWU9ImRldm9wcy5zdmciIHg9IjBweCIgeT0iMHB4IiB2aWV3Qm94PSIwIDAgNzIuNDQgNDkuNCIgc3R5bGU9ImVuYWJsZS1iYWNrZ3JvdW5kOm5ldyAwIDAgNzIuNDQgNDkuNDsiIHhtbDpzcGFjZT0icHJlc2VydmUiPiYjeGE7PHNvZGlwb2RpOm5hbWVkdmlldyBib3JkZXJjb2xvcj0iIzY2NjY2NiIgYm9yZGVyb3BhY2l0eT0iMSIgZml0LW1hcmdpbi1ib3R0b209IjAiIGZpdC1tYXJnaW4tbGVmdD0iMCIgZml0LW1hcmdpbi1yaWdodD0iMCIgZml0LW1hcmdpbi10b3A9IjAiIGdyaWR0b2xlcmFuY2U9IjEwIiBndWlkZXRvbGVyYW5jZT0iMTAiIGlkPSJuYW1lZHZpZXc4MDU1MyIgaW5rc2NhcGU6Y3VycmVudC1sYXllcj0ic3ZnODA1NTEiIGlua3NjYXBlOmN4PSI0OC4yOTQ5OTciIGlua3NjYXBlOmN5PSIzMi45MzQ3ODUiIGlua3NjYXBlOnBhZ2VvcGFjaXR5PSIwIiBpbmtzY2FwZTpwYWdlc2hhZG93PSIyIiBpbmtzY2FwZTp3aW5kb3ctaGVpZ2h0PSIxMDE3IiBpbmtzY2FwZTp3aW5kb3ctbWF4aW1pemVkPSIxIiBpbmtzY2FwZTp3aW5kb3ctd2lkdGg9IjE5MjAiIGlua3NjYXBlOndpbmRvdy14PSItOCIgaW5rc2NhcGU6d2luZG93LXk9Ii04IiBpbmtzY2FwZTp6b29tPSIxMi43NzU1OTkiIG9iamVjdHRvbGVyYW5jZT0iMTAiIHBhZ2Vjb2xvcj0iI2ZmZmZmZiIgc2hvd2dyaWQ9ImZhbHNlIj4mI3hhOwk8L3NvZGlwb2RpOm5hbWVkdmlldz4mI3hhOzxnIGlkPSJnODA1NDkiIHRyYW5zZm9ybT0idHJhbnNsYXRlKC0wLjc1MDAzMzUxLC0wLjc1MTA1NzM3KSI+JiN4YTsJPHRpdGxlIGlkPSJ0aXRsZTgwNTI1Ij5QYWdlLTE8L3RpdGxlPiYjeGE7CTxnIGlkPSJncm91cDUzNjQtMSIgdHJhbnNmb3JtPSJ0cmFuc2xhdGUoMC43NTAxMTUsLTAuNzUpIj4mI3hhOwkJPHRpdGxlIGlkPSJ0aXRsZTgwNTI3Ij5EZXZPcHM8L3RpdGxlPiYjeGE7CQk8ZyBpZD0ic2hhcGU1MzY1LTIiIHRyYW5zZm9ybT0idHJhbnNsYXRlKDQ0Ljc5NzUsLTI5LjgzNSkiPiYjeGE7CQkJPHRpdGxlIGlkPSJ0aXRsZTgwNTI5Ij5wYXRoODk4MTwvdGl0bGU+JiN4YTsJCQk8cGF0aCBpZD0icGF0aDgwNTMxIiBpbmtzY2FwZTpjb25uZWN0b3ItY3VydmF0dXJlPSIwIiBzdHlsZT0iZmlsbDojQUFEMkYyOyIgZD0iTTEzLjcxLDMzLjM1Yy0wLjIsMC4yMy0wLjUzLDAuMy0wLjgxLDAuMTcgICAgIGMtMC4xMSwwLjEtMC4yOS0wLjMxLTAuMzgtMC42MWwtMC4zMy0xLjIyYy0wLjE4LTAuNC0wLjU4LTAuNDItMC43LTAuMTJsLTAuOTQsMC44N2MtMC4yMiwwLjM5LDAuMiwwLDAsMGwtMS4zLDAuMDRsLTAuODYtMC45NCAgICAgYy0wLjI4LTAuMzEtMC41OS0wLjIyLTAuNywwLjA3bC0wLjU3LDEuMjhjLTAuMTEsMC4yNy0wLjI1LDAuNTItMC40MywwLjc1Yy0wLjIzLTAuMS0wLjQ2LTAuMjEtMC42OC0wLjMzbC0xLjE5LTAuNDYgICAgIGMtMC4zOS0wLjIyLTAuNiwwLTAuNjEsMC4zN2wwLjAzLDEuMzFjMC4wNCwwLjI4LTAuMDQsMC41Ny0wLjIzLDAuNzljLTAuMjMsMC4wNS0wLjQ2LDAuMDgtMC43LDAuMDZsLTEuMi0wLjA1ICAgICBjLTAuNCwwLTAuNjEsMC4xNy0wLjQzLDAuNTlsMC41NSwxLjIyYzAuMDksMC4zMSwwLjE2LDAuODEsMC4xNiwwLjgxYy0wLjIzLDAuMTMtMC40OSwwLjIyLTAuNzUsMC4yN2wtMS4yMiwwLjU1ICAgICBDMC4xMSwzOC44NSwwLDM5LjE0LDAuMjgsMzkuNDVsMC45NiwwLjg1YzAuMTgsMC4yNCwwLjM0LDAuNDksMC40NywwLjc1Yy0wLjE2LDAuMjQtMC4zMywwLjQ3LTAuNTMsMC42OGwtMC45NCwwLjg1ICAgICBjLTAuMjEsMC4xOS0wLjEyLDAuNSwwLjE3LDAuNjFsMS4xOCwwLjQ2YzAuMjksMC4xMSwwLjY4LDAuMzMsMC42NywwLjUzYy0wLjAxLDAuMjQtMC4wNiwwLjQ3LTAuMTMsMC43bC0wLjY1LDEuMTcgICAgIGMtMC4xMiwwLjI5LDAuMDcsMC41LDAuMzcsMC42MWwxLjMxLTAuMDRjMC4zLTAuMDIsMC42MSwwLjAzLDAuODksMC4xNWMwLjE0LDAuMjEsMC4xNiwwLjQ3LDAuMDcsMC43MWwtMC4wNiwxLjQgICAgIGMwLDAuNCwwLjI3LDAuNTEsMC41NywwLjQzbDEuMTQtMC42NWMwLjI3LTAuMTYsMC42MS0wLjE4LDAuOS0wLjA2YzAuMTEtMC4xLDAuMTksMC4yMSwwLjM4LDAuNjFsMC4zNCwxLjIyICAgICBjMC4xOCwwLjQsMC40OSwwLjMyLDAuNywwLjEzbDAuOTYtMC44N2MwLjE3LTAuMzEsMC40OC0wLjUyLDAuODMtMC41NmwwLjQ4LDAuNTNsMC44NSwwLjkzYzAuMjksMC4zMiwwLjU5LDAuMjMsMC43MS0wLjA2ICAgICBsMC40Ni0xLjM4YzAuMTMtMC4yNiwwLjMxLTAuNDksMC41My0wLjY4YzAuMjQsMC4wOSwwLjQ3LDAuMjEsMC42OSwwLjMzbDEuMTcsMC40NmMwLjM5LDAuMjIsMC42LDAsMC42Mi0wLjM4bC0wLjE0LTEuMiAgICAgYzAtMC4zNCwwLjA4LTAuNjgsMC4yNC0wLjk5aDAuODFsMS4yLDAuMDVjMC4zOSwwLDAuNTEtMC4yOCwwLjQyLTAuNThsLTAuNTQtMS4yMmMtMC4wOS0wLjMxLTAuMTctMC44MS0wLjE3LTAuODEgICAgIGMwLjE3LTAuMTgsMC4zOS0wLjMxLDAuNjItMC4zOGwxLjMyLTAuNDRjMC4zLTAuMDksMC40Mi0wLjM4LDAuMTItMC43bC0wLjk2LTAuODRjLTAuMTktMC4yMy0wLjM0LTAuNDgtMC40Ni0wLjc1ICAgICBjLTAuMS0wLjExLDAuMjItMC4zOSwwLjQzLTAuNTlsMS4wOC0wLjkxYzAuMjEtMC4xOCwwLjEyLTAuNDktMC4xOC0wLjZsLTEuMTctMC40NWMtMC4zLTAuMTItMC43NS0wLjQ0LTAuNjgtMC41NCAgICAgYy0wLjEtMC4xLDAtMC4zOSwwLjE0LTAuNjlsMC42NS0xLjE3YzAuMTEtMC4zLTAuMDgtMC41MS0wLjQ4LTAuNTNsLTEuMi0wLjA1Yy0wLjMtMC4wMi0wLjYtMC4wNy0wLjg5LTAuMTQgICAgIGMtMC4xNC0wLjI0LTAuMi0wLjUzLTAuMTctMC44MWwwLjE2LTEuM2MwLTAuNC0wLjI4LTAuNTEtMC41OC0wLjQzTDEzLjcxLDMzLjM1eiBNMTEuMiw0MC4wNWMwLjQ2LDAuODMsMC4xNiwxLjg4LTAuNjcsMi4zNSAgICAgYy0wLjc1LDAuNDItMS43LDAuMjItMi4yMi0wLjQ4Yy0wLjQ3LTAuNzMtMC4yNS0xLjcxLDAuNDgtMi4xOGMwLjA0LTAuMDMsMC4wOS0wLjA1LDAuMTMtMC4wN2MwLjc0LTAuNDYsMS43Mi0wLjI5LDIuMjUsMC40MSAgICAgTDExLjIsNDAuMDV6Ii8+JiN4YTsJCQk8cGF0aCBpZD0icGF0aDgwNTMzIiBpbmtzY2FwZTpjb25uZWN0b3ItY3VydmF0dXJlPSIwIiBzdHlsZT0iZmlsbDpub25lOyIgZD0iTTEzLjcxLDMzLjM1Yy0wLjIsMC4yMy0wLjUzLDAuMy0wLjgxLDAuMTcgICAgIGMtMC4xMSwwLjEtMC4yOS0wLjMxLTAuMzgtMC42MWwtMC4zMy0xLjIyYy0wLjE4LTAuNC0wLjU4LTAuNDItMC43LTAuMTJsLTAuOTQsMC44N2MtMC4yMiwwLjM5LDAuMiwwLDAsMGwtMS4zLDAuMDRsLTAuODYtMC45NCAgICAgYy0wLjI4LTAuMzEtMC41OS0wLjIyLTAuNywwLjA3bC0wLjU3LDEuMjhjLTAuMTEsMC4yNy0wLjI1LDAuNTItMC40MywwLjc1Yy0wLjIzLTAuMS0wLjQ2LTAuMjEtMC42OC0wLjMzbC0xLjE5LTAuNDYgICAgIGMtMC4zOS0wLjIyLTAuNiwwLTAuNjEsMC4zN2wwLjAzLDEuMzFjMC4wNCwwLjI4LTAuMDQsMC41Ny0wLjIzLDAuNzljLTAuMjMsMC4wNS0wLjQ2LDAuMDgtMC43LDAuMDZsLTEuMi0wLjA1ICAgICBjLTAuNCwwLTAuNjEsMC4xNy0wLjQzLDAuNTlsMC41NSwxLjIyYzAuMDksMC4zMSwwLjE2LDAuODEsMC4xNiwwLjgxYy0wLjIzLDAuMTMtMC40OSwwLjIyLTAuNzUsMC4yN2wtMS4yMiwwLjU1ICAgICBDMC4xMSwzOC44NSwwLDM5LjE0LDAuMjgsMzkuNDVsMC45NiwwLjg1YzAuMTgsMC4yNCwwLjM0LDAuNDksMC40NywwLjc1Yy0wLjE2LDAuMjQtMC4zMywwLjQ3LTAuNTMsMC42OGwtMC45NCwwLjg1ICAgICBjLTAuMjEsMC4xOS0wLjEyLDAuNSwwLjE3LDAuNjFsMS4xOCwwLjQ2YzAuMjksMC4xMSwwLjY4LDAuMzMsMC42NywwLjUzYy0wLjAxLDAuMjQtMC4wNiwwLjQ3LTAuMTMsMC43bC0wLjY1LDEuMTcgICAgIGMtMC4xMiwwLjI5LDAuMDcsMC41LDAuMzcsMC42MWwxLjMxLTAuMDRjMC4zLTAuMDIsMC42MSwwLjAzLDAuODksMC4xNWMwLjE0LDAuMjEsMC4xNiwwLjQ3LDAuMDcsMC43MWwtMC4wNiwxLjQgICAgIGMwLDAuNCwwLjI3LDAuNTEsMC41NywwLjQzbDEuMTQtMC42NWMwLjI3LTAuMTYsMC42MS0wLjE4LDAuOS0wLjA2YzAuMTEtMC4xLDAuMTksMC4yMSwwLjM4LDAuNjFsMC4zNCwxLjIyICAgICBjMC4xOCwwLjQsMC40OSwwLjMyLDAuNywwLjEzbDAuOTYtMC44N2MwLjE3LTAuMzEsMC40OC0wLjUyLDAuODMtMC41NmwwLjQ4LDAuNTNsMC44NSwwLjkzYzAuMjksMC4zMiwwLjU5LDAuMjMsMC43MS0wLjA2ICAgICBsMC40Ni0xLjM4YzAuMTMtMC4yNiwwLjMxLTAuNDksMC41My0wLjY4YzAuMjQsMC4wOSwwLjQ3LDAuMjEsMC42OSwwLjMzbDEuMTcsMC40NmMwLjM5LDAuMjIsMC42LDAsMC42Mi0wLjM4bC0wLjE0LTEuMiAgICAgYzAtMC4zNCwwLjA4LTAuNjgsMC4yNC0wLjk5aDAuODFsMS4yLDAuMDVjMC4zOSwwLDAuNTEtMC4yOCwwLjQyLTAuNThsLTAuNTQtMS4yMmMtMC4wOS0wLjMxLTAuMTctMC44MS0wLjE3LTAuODEgICAgIGMwLjE3LTAuMTgsMC4zOS0wLjMxLDAuNjItMC4zOGwxLjMyLTAuNDRjMC4zLTAuMDksMC40Mi0wLjM4LDAuMTItMC43bC0wLjk2LTAuODRjLTAuMTktMC4yMy0wLjM0LTAuNDgtMC40Ni0wLjc1ICAgICBjLTAuMS0wLjExLDAuMjItMC4zOSwwLjQzLTAuNTlsMS4wOC0wLjkxYzAuMjEtMC4xOCwwLjEyLTAuNDktMC4xOC0wLjZsLTEuMTctMC40NWMtMC4zLTAuMTItMC43NS0wLjQ0LTAuNjgtMC41NCAgICAgYy0wLjEtMC4xLDAtMC4zOSwwLjE0LTAuNjlsMC42NS0xLjE3YzAuMTEtMC4zLTAuMDgtMC41MS0wLjQ4LTAuNTNsLTEuMi0wLjA1Yy0wLjMtMC4wMi0wLjYtMC4wNy0wLjg5LTAuMTQgICAgIGMtMC4xNC0wLjI0LTAuMi0wLjUzLTAuMTctMC44MWwwLjE2LTEuM2MwLTAuNC0wLjI4LTAuNTEtMC41OC0wLjQzTDEzLjcxLDMzLjM1IE0xMS4yLDQwLjA1YzAuNDYsMC44MywwLjE2LDEuODgtMC42NywyLjM1ICAgICBjLTAuNzUsMC40Mi0xLjcsMC4yMi0yLjIyLTAuNDhjLTAuNDctMC43My0wLjI1LTEuNzEsMC40OC0yLjE4YzAuMDQtMC4wMywwLjA5LTAuMDUsMC4xMy0wLjA3YzAuNzQtMC40NiwxLjcyLTAuMjksMi4yNSwwLjQxIi8+JiN4YTsJCTwvZz4mI3hhOwkJPGcgaWQ9InNoYXBlNTM2Ni01Ij4mI3hhOwkJCTx0aXRsZSBpZD0idGl0bGU4MDUzNiI+cGF0aDg5ODM8L3RpdGxlPiYjeGE7CQkJPHBhdGggaWQ9InBhdGg4MDUzOCIgaW5rc2NhcGU6Y29ubmVjdG9yLWN1cnZhdHVyZT0iMCIgc3R5bGU9ImZpbGw6I0FBQjVDNTsiIGQ9Ik00MC43OSwxNC40YzAuMzItMC4zNCwwLjM0LTAuODYsMC4wNS0xLjIyICAgICBsLTEuNjMtMS44Yy0wLjM2LTAuMjYtMC44NC0wLjI4LTEuMjItMC4wNWwtMi43OSwxLjg0Yy0wLjYtMC40LTEuMzEtMC45My0xLjkxLTEuMzJsMC44Ni0zLjQxYzAuMTItMC40LTAuMDctMC44My0wLjQ1LTEuMDEgICAgIGwtMi4wNC0wLjk1Yy0wLjM0LTAuMjQtMC44MS0wLjE1LTEuMDQsMC4xOGMtMC4wMywwLjA0LTAuMDUsMC4wOC0wLjA3LDAuMTNMMjguNTcsOS44Yy0wLjY5LTAuMzEtMS40My0wLjUxLTIuMTktMC41OSAgICAgbC0wLjMzLTMuNDZjMC4wMy0wLjQ2LTAuMzEtMC44Ni0wLjc4LTAuOWMtMC4wMSwwLTAuMDMsMC0wLjA0LDBIMjIuOWMtMC4zNi0wLjE0LTAuNzUsMC4yMS0wLjg4LDAuNThsLTAuNzUsMy41MiAgICAgYy0wLjc3LDAuMDEtMS41MywwLjE0LTIuMjUsMC4zOWwtMS43LTMuMTRjLTAuMjctMC4zMS0wLjY3LTAuNDctMS4wOC0wLjQybC0yLjI1LDAuODhjLTAuMzksMC4xNC0wLjYyLDAuNTUtMC41MywwLjk2bDAuNywzLjM0ICAgICBjLTAuNjMsMC4zNC0xLjI3LDAuOTItMS45LDEuMjdsLTIuNzItMi4yMUM5LjIxLDkuNzQsOC43Miw5Ljc3LDguNDMsMTAuMWwtMS42NywxLjQ5Yy0wLjM0LDAuMjYtMC40MiwwLjc0LTAuMTcsMS4xbDEuOTUsMi45MSAgICAgYy0wLjU3LDAuNjEtMS4wNSwxLjI5LTEuNDUsMi4wMmwtMy4zOC0xLjEzYy0wLjQ2LTAuMDgtMC45MSwwLjE1LTEuMTMsMC41NkwxLjYzLDE5LjFjLTAuMTYsMC40NywwLjAyLDAuOTgsMC40NCwxLjI0bDIuODMsMS44OSAgICAgYy0wLjI3LDAuNzUtMC4zMSwxLjQ2LTAuNTksMi4xOGwtMy40NiwwLjM0Yy0wLjQyLDAuMTMtMC43MiwwLjUtMC43NSwwLjk0TDAsMjcuOWMtMC4wMSwwLjQ1LDAuMjcsMC44NSwwLjY5LDEuMDFsMy41NCwwLjUyICAgICBjMC4wNSwwLjg0LDAuMTgsMS42NywwLjM3LDIuNDhsLTMuMTUsMS43Yy0wLjM5LDAuMTMtMC42MSwwLjU1LTAuNDgsMC45NEMwLjk4LDM0LjYsMSwzNC42NSwxLjAzLDM0LjdsMC43NSwyLjEyICAgICBjMC4yLDAuNDIsMC42MiwwLjY4LDEuMDgsMC42NmwzLjMzLTAuNzlsMS4xNiwxLjg2TDUuMSw0MS4yN2MtMC4xNywwLjM2LTAuMTQsMC43OCwwLjA3LDEuMTFsMS42NCwxLjc5ICAgICBjMC4yOSwwLjI5LDAuNzMsMC4zNiwxLjA5LDAuMTdsMi45OS0xLjk1YzAuNiwwLjQsMS4zMSwwLjkzLDEuOTEsMS4zMmwtMC44OSwzLjM5Yy0wLjEzLDAuNCwwLjA2LDAuODMsMC40NCwxLjAxbDIuMTYsMS4wOCAgICAgYzAuNCwwLjEzLDAuODUsMCwxLjEyLTAuMzJMMTcuNDksNDZjMC43NSwwLDEuNDYsMC4zMSwyLjIsMC4zNWwwLjIxLDMuNTdjMC4xMywwLjQyLDAuNTEsMC43MiwwLjk1LDAuNzVsMi4zMiwwLjIzICAgICBjMC40LTAuMTMsMC43My0wLjQzLDAuOS0wLjgybDAuNjUtMy40YzAuODYtMC4wOSwxLjYxLTAuMywyLjQ3LTAuMzlsMS41OSwzYzAuMTksMC40MSwwLjY3LDAuNiwxLjA5LDAuNDJsMi4xMi0wLjc1ICAgICBjMC40NS0wLjE1LDAuNzMtMC42LDAuNjctMS4wN0wzMS45LDQ0LjZjMC42OS0wLjM0LDEuMzItMC43NywxLjktMS4yN2wyLjcyLDIuMjFjMC4yOCwwLjM1LDAuOCwwLjQsMS4xNSwwLjEyICAgICBjMC4wMy0wLjAyLDAuMDUtMC4wNCwwLjA3LTAuMDdsMS42Ny0xLjQ5YzAuMzUtMC4yOCwwLjQxLTAuOCwwLjEzLTEuMTVjLTAuMDItMC4wMy0wLjA0LTAuMDUtMC4wNy0wLjA3bC0xLjk2LTIuOTIgICAgIGMwLjYyLTAuNTcsMS4xMS0xLjI2LDEuNDUtMi4wM2wzLjM5LDEuMTNjMC40LDAuMTMsMC44My0wLjA2LDEuMDEtMC40NGwxLjA4LTIuMTZjMC4wOS0wLjQtMC4wMy0wLjgyLTAuMzItMS4xMmwtMy0xLjk4ICAgICBjMC4yNy0wLjY2LDAuNDMtMS4zNiwwLjQ3LTIuMDdsMy41OC0wLjQ1YzAuMzgtMC4xLDAuNzUtMC40NSwwLjc1LTAuN2wwLjExLTIuNDVjMC4wMy0wLjQ2LTAuMzEtMC44Ni0wLjc4LTAuOSAgICAgYy0wLjAxLDAtMC4wMywwLTAuMDQsMGwtMy40MS0wLjY1Yy0wLjAyLTAuNzktMC4xLTEuNTgtMC4yNi0yLjM1bDIuOS0xLjcxYzAuNDctMC4xNSwwLjczLTAuNjUsMC41OC0xLjEyICAgICBjLTAuMDEtMC4wMy0wLjAyLTAuMDUtMC4wMy0wLjA4bC0wLjc1LTIuMTJjLTAuMTMtMC4zOS0wLjU1LTAuNjEtMC45NC0wLjQ4Yy0wLjA1LDAuMDItMC4xLDAuMDQtMC4xNCwwLjA2bC0zLjM4LDAuNTdsLTEuMS0xLjg3ICAgICBsMi4wOC0yLjYxTDQwLjc5LDE0LjR6IE0yNS42MywyNS4wOGMxLjQxLDEuMzcsMS40MywzLjYzLDAuMDYsNS4wNHMtMy42MywxLjQzLTUuMDQsMC4wNmMtMC4xLTAuMDktMC4xOS0wLjE5LTAuMjctMC4zICAgICBjLTEuNDEtMS4zNy0xLjQzLTMuNjMtMC4wNi01LjA0YzEuMzctMS40MSwzLjYzLTEuNDMsNS4wNC0wLjA2QzI1LjQ1LDI0Ljg4LDI1LjU0LDI0Ljk4LDI1LjYzLDI1LjA4eiIvPiYjeGE7CQkJPHBhdGggaWQ9InBhdGg4MDU0MCIgaW5rc2NhcGU6Y29ubmVjdG9yLWN1cnZhdHVyZT0iMCIgc3R5bGU9ImZpbGw6bm9uZTsiIGQ9Ik00MC43OSwxNC40YzAuMzItMC4zNCwwLjM0LTAuODYsMC4wNS0xLjIyICAgICBsLTEuNjMtMS44Yy0wLjM2LTAuMjYtMC44NC0wLjI4LTEuMjItMC4wNWwtMi43OSwxLjg0Yy0wLjYtMC40LTEuMzEtMC45My0xLjkxLTEuMzJsMC44Ni0zLjQxYzAuMTItMC40LTAuMDctMC44My0wLjQ1LTEuMDEgICAgIGwtMi4wNC0wLjk1Yy0wLjM0LTAuMjQtMC44MS0wLjE1LTEuMDQsMC4xOGMtMC4wMywwLjA0LTAuMDUsMC4wOC0wLjA3LDAuMTNMMjguNTcsOS44Yy0wLjY5LTAuMzEtMS40My0wLjUxLTIuMTktMC41OSAgICAgbC0wLjMzLTMuNDZjMC4wMy0wLjQ2LTAuMzEtMC44Ni0wLjc4LTAuOWMtMC4wMSwwLTAuMDMsMC0wLjA0LDBIMjIuOWMtMC4zNi0wLjE0LTAuNzUsMC4yMS0wLjg4LDAuNThsLTAuNzUsMy41MiAgICAgYy0wLjc3LDAuMDEtMS41MywwLjE0LTIuMjUsMC4zOWwtMS43LTMuMTRjLTAuMjctMC4zMS0wLjY3LTAuNDctMS4wOC0wLjQybC0yLjI1LDAuODhjLTAuMzksMC4xNC0wLjYyLDAuNTUtMC41MywwLjk2bDAuNywzLjM0ICAgICBjLTAuNjMsMC4zNC0xLjI3LDAuOTItMS45LDEuMjdsLTIuNzItMi4yMUM5LjIxLDkuNzQsOC43Miw5Ljc3LDguNDMsMTAuMWwtMS42NywxLjQ5Yy0wLjM0LDAuMjYtMC40MiwwLjc0LTAuMTcsMS4xbDEuOTUsMi45MSAgICAgYy0wLjU3LDAuNjEtMS4wNSwxLjI5LTEuNDUsMi4wMmwtMy4zOC0xLjEzYy0wLjQ2LTAuMDgtMC45MSwwLjE1LTEuMTMsMC41NkwxLjYzLDE5LjFjLTAuMTYsMC40NywwLjAyLDAuOTgsMC40NCwxLjI0bDIuODMsMS44OSAgICAgYy0wLjI3LDAuNzUtMC4zMSwxLjQ2LTAuNTksMi4xOGwtMy40NiwwLjM0Yy0wLjQyLDAuMTMtMC43MiwwLjUtMC43NSwwLjk0TDAsMjcuOWMtMC4wMSwwLjQ1LDAuMjcsMC44NSwwLjY5LDEuMDFsMy41NCwwLjUyICAgICBjMC4wNSwwLjg0LDAuMTgsMS42NywwLjM3LDIuNDhsLTMuMTUsMS43Yy0wLjM5LDAuMTMtMC42MSwwLjU1LTAuNDgsMC45NEMwLjk4LDM0LjYsMSwzNC42NSwxLjAzLDM0LjdsMC43NSwyLjEyICAgICBjMC4yLDAuNDIsMC42MiwwLjY4LDEuMDgsMC42NmwzLjMzLTAuNzlsMS4xNiwxLjg2TDUuMSw0MS4yN2MtMC4xNywwLjM2LTAuMTQsMC43OCwwLjA3LDEuMTFsMS42NCwxLjc5ICAgICBjMC4yOSwwLjI5LDAuNzMsMC4zNiwxLjA5LDAuMTdsMi45OS0xLjk1YzAuNiwwLjQsMS4zMSwwLjkzLDEuOTEsMS4zMmwtMC44OSwzLjM5Yy0wLjEzLDAuNCwwLjA2LDAuODMsMC40NCwxLjAxbDIuMTYsMS4wOCAgICAgYzAuNCwwLjEzLDAuODUsMCwxLjEyLTAuMzJMMTcuNDksNDZjMC43NSwwLDEuNDYsMC4zMSwyLjIsMC4zNWwwLjIxLDMuNTdjMC4xMywwLjQyLDAuNTEsMC43MiwwLjk1LDAuNzVsMi4zMiwwLjIzICAgICBjMC40LTAuMTMsMC43My0wLjQzLDAuOS0wLjgybDAuNjUtMy40YzAuODYtMC4wOSwxLjYxLTAuMywyLjQ3LTAuMzlsMS41OSwzYzAuMTksMC40MSwwLjY3LDAuNiwxLjA5LDAuNDJsMi4xMi0wLjc1ICAgICBjMC40NS0wLjE1LDAuNzMtMC42LDAuNjctMS4wN0wzMS45LDQ0LjZjMC42OS0wLjM0LDEuMzItMC43NywxLjktMS4yN2wyLjcyLDIuMjFjMC4yOCwwLjM1LDAuOCwwLjQsMS4xNSwwLjEyICAgICBjMC4wMy0wLjAyLDAuMDUtMC4wNCwwLjA3LTAuMDdsMS42Ny0xLjQ5YzAuMzUtMC4yOCwwLjQxLTAuOCwwLjEzLTEuMTVjLTAuMDItMC4wMy0wLjA0LTAuMDUtMC4wNy0wLjA3bC0xLjk2LTIuOTIgICAgIGMwLjYyLTAuNTcsMS4xMS0xLjI2LDEuNDUtMi4wM2wzLjM5LDEuMTNjMC40LDAuMTMsMC44My0wLjA2LDEuMDEtMC40NGwxLjA4LTIuMTZjMC4wOS0wLjQtMC4wMy0wLjgyLTAuMzItMS4xMmwtMy0xLjk4ICAgICBjMC4yNy0wLjY2LDAuNDMtMS4zNiwwLjQ3LTIuMDdsMy41OC0wLjQ1YzAuMzgtMC4xLDAuNzUtMC40NSwwLjc1LTAuN2wwLjExLTIuNDVjMC4wMy0wLjQ2LTAuMzEtMC44Ni0wLjc4LTAuOSAgICAgYy0wLjAxLDAtMC4wMywwLTAuMDQsMGwtMy40MS0wLjY1Yy0wLjAyLTAuNzktMC4xLTEuNTgtMC4yNi0yLjM1bDIuOS0xLjcxYzAuNDctMC4xNSwwLjczLTAuNjUsMC41OC0xLjEyICAgICBjLTAuMDEtMC4wMy0wLjAyLTAuMDUtMC4wMy0wLjA4bC0wLjc1LTIuMTJjLTAuMTMtMC4zOS0wLjU1LTAuNjEtMC45NC0wLjQ4Yy0wLjA1LDAuMDItMC4xLDAuMDQtMC4xNCwwLjA2bC0zLjM4LDAuNTdsLTEuMS0xLjg3ICAgICBsMi4wOC0yLjYxIE0yNS42MywyNS4wOGMxLjQxLDEuMzcsMS40MywzLjYzLDAuMDYsNS4wNHMtMy42MywxLjQzLTUuMDQsMC4wNmMtMC4xLTAuMDktMC4xOS0wLjE5LTAuMjctMC4zICAgICBjLTEuNDEtMS4zNy0xLjQzLTMuNjMtMC4wNi01LjA0YzEuMzctMS40MSwzLjYzLTEuNDMsNS4wNC0wLjA2QzI1LjQ1LDI0Ljg4LDI1LjU0LDI0Ljk4LDI1LjYzLDI1LjA4Ii8+JiN4YTsJCTwvZz4mI3hhOwkJPGcgaWQ9InNoYXBlNTM2Ny04IiB0cmFuc2Zvcm09InRyYW5zbGF0ZSg0Ni4xOTI1LC0yLjU1KSI+JiN4YTsJCQk8dGl0bGUgaWQ9InRpdGxlODA1NDMiPnBhdGg4OTg1PC90aXRsZT4mI3hhOwkJCTxwYXRoIGlkPSJwYXRoODA1NDUiIGlua3NjYXBlOmNvbm5lY3Rvci1jdXJ2YXR1cmU9IjAiIHN0eWxlPSJmaWxsOiM4MEJDRUI7IiBkPSJNMjUuNjYsMzYuMTVsLTMtMC4zMyAgICAgYy0wLjI0LTAuMDMtMC40My0wLjItMC40OC0wLjQ0Yy0wLjE4LTAuNzctMC40NS0xLjUxLTAuODItMi4yYy0wLjExLTAuMjMtMC4wOS0wLjQ5LDAuMDYtMC43bDEuOTYtMi40MyAgICAgYzAuMTktMC4yNCwwLjE3LTAuNTgtMC4wNS0wLjhsLTEuNjMtMS42NWMtMC4yMi0wLjIxLTAuNTYtMC4yMy0wLjc5LTAuMDVsLTIuMzcsMS45Yy0wLjIsMC4xNi0wLjQ3LDAuMTgtMC42OSwwLjA1ICAgICBjLTAuNjQtMC4zOC0xLjMzLTAuNjctMi4wNC0wLjg4Yy0wLjI0LTAuMDctMC40MS0wLjI3LTAuNDQtMC41MmwtMC4zMy0yLjljLTAuMDMtMC4zMS0wLjMtMC41NC0wLjYxLTAuNTRoLTIuMzMgICAgIGMtMC4zMSwwLjAxLTAuNTcsMC4yNC0wLjYxLDAuNTVsLTAuMzEsMi44NmMtMC4wMywwLjIzLTAuMTksMC40Mi0wLjQyLDAuNDhjLTAuODIsMC4yLTEuNjEsMC41Mi0yLjM1LDAuOTQgICAgIGMtMC4yMSwwLjEzLTAuNDksMC4xMS0wLjY4LTAuMDVsLTIuMTUtMS43M2MtMC40Mi0wLjM1LTAuNzUtMC4zMy0wLjk4LTAuMTFsLTEuNjUsMS42NGMtMC4yMSwwLjIyLTAuMjMsMC41Ni0wLjA1LDAuOGwxLjkxLDIuMzggICAgIGMwLjE1LDAuMTksMC4xNywwLjQ1LDAuMDUsMC42NkM0LjQ5LDMzLjgsNC4yLDM0LjU1LDQsMzUuMzRjLTAuMDYsMC4yNi0wLjI3LDAuNDUtMC41MywwLjQ4bC0yLjkzLDAuMzMgICAgIEMwLjIzLDM2LjE4LDAsMzYuNDUsMCwzNi43NnYyLjMzYzAsMC4zMSwwLjIzLDAuNTcsMC41NCwwLjYxbDMuMTYsMC4zNGMwLjIzLDAuMDMsMC40MiwwLjE5LDAuNDksMC40ICAgICBjMC4xOSwwLjU5LDAuNDQsMS4xNiwwLjc0LDEuNzFjMC4xMSwwLjIyLDAuMDksMC40OS0wLjA1LDAuNjlsLTEuOTQsMi40MmMtMC4xOSwwLjI0LTAuMTcsMC41OCwwLjA1LDAuNzlsMS42NCwxLjY1ICAgICBjMC4yMiwwLjIxLDAuNTYsMC4yMywwLjgsMC4wNGwyLjM4LTEuOTJjMC4yLTAuMTUsMC40Ny0wLjE3LDAuNjgtMC4wNGMwLjYyLDAuMzYsMS4yOCwwLjY0LDEuOTcsMC44NSAgICAgYzAuMjQsMC4wNiwwLjQxLDAuMjcsMC40NCwwLjUxbDAuMzYsMy4yNGMwLjAzLDAuMywwLjI5LDAuNTMsMC41OSwwLjUzbDIuMzIsMGMwLjMsMCwwLjU2LTAuMjMsMC41OS0wLjUzbDAuMzUtMy4yMiAgICAgYzAuMDMtMC4yNCwwLjItMC40NCwwLjQ0LTAuNWMwLjc5LTAuMjEsMS41NS0wLjUyLDIuMjUtMC45M2MwLjIyLTAuMTMsMC40OS0wLjExLDAuNjgsMC4wNGwyLjQ0LDEuOTcgICAgIGMwLjI0LDAuMTksMC41OCwwLjE3LDAuOC0wLjA0bDEuNjUtMS42NmMwLjIxLTAuMjIsMC4yMy0wLjU2LDAuMDUtMC43OWwtMi0yLjQ5Yy0wLjE1LTAuMTktMC4xNy0wLjQ2LTAuMDUtMC42NyAgICAgYzAuMjgtMC41MSwwLjUyLTEuMDYsMC43LTEuNjJjMC4wNy0wLjIzLDAuMjctMC40LDAuNS0wLjQzbDMuMTUtMC4zNWMwLjMtMC4wNCwwLjUzLTAuMywwLjU0LTAuNjF2LTIuMzEgICAgIEMyNi4yNCwzNi40NCwyNS45OSwzNi4xOCwyNS42NiwzNi4xNUwyNS42NiwzNi4xNXogTTEzLjQ2LDQyLjJjLTIuNjMsMC00Ljc1LTIuMTMtNC43NS00Ljc2YzAtMi42MywyLjEzLTQuNzUsNC43Ni00Ljc1ICAgICBjMi42MiwwLDQuNzUsMi4xMyw0Ljc1LDQuNzVjMCwyLjYzLTIuMTIsNC43Ni00Ljc1LDQuNzZDMTMuNDcsNDIuMiwxMy40Niw0Mi4yLDEzLjQ2LDQyLjJ6Ii8+JiN4YTsJCTwvZz4mI3hhOwk8L2c+JiN4YTs8L2c+JiN4YTs8L3N2Zz4=;" vertex="1" parent="1">
          <mxGeometry x="980" y="687.5" width="47.02" height="32" as="geometry" />
        </mxCell>
        <mxCell id="izj6aGMY5wUGhT8EYzV--73" value="&lt;b&gt;allowed headers&lt;/b&gt;: conversation-id" style="text;strokeColor=none;align=center;fillColor=none;html=1;verticalAlign=middle;whiteSpace=wrap;rounded=0;fontColor=#000000;" vertex="1" parent="1">
          <mxGeometry x="1031" y="692.5000000000001" width="196" height="30" as="geometry" />
        </mxCell>
        <mxCell id="izj6aGMY5wUGhT8EYzV--74" value="&lt;b&gt;exposed headers&lt;/b&gt;: conversation-id" style="text;strokeColor=none;align=center;fillColor=none;html=1;verticalAlign=middle;whiteSpace=wrap;rounded=0;fontColor=#000000;" vertex="1" parent="1">
          <mxGeometry x="1031" y="712.0000000000001" width="196" height="30" as="geometry" />
        </mxCell>
        <mxCell id="izj6aGMY5wUGhT8EYzV--76" style="edgeStyle=orthogonalEdgeStyle;rounded=0;orthogonalLoop=1;jettySize=auto;html=1;exitX=1;exitY=0.25;exitDx=0;exitDy=0;entryX=0;entryY=0.318;entryDx=0;entryDy=0;entryPerimeter=0;fillColor=#f5f5f5;strokeColor=#666666;" edge="1" parent="1" source="izj6aGMY5wUGhT8EYzV--18" target="izj6aGMY5wUGhT8EYzV--12">
          <mxGeometry relative="1" as="geometry" />
        </mxCell>
        <mxCell id="izj6aGMY5wUGhT8EYzV--83" value="" style="shape=image;verticalLabelPosition=bottom;labelBackgroundColor=#ffffff;verticalAlign=top;aspect=fixed;imageAspect=0;image=data:image/svg+xml,PHN2ZyB4bWxuczpkYz0iaHR0cDovL3B1cmwub3JnL2RjL2VsZW1lbnRzLzEuMS8iIHhtbG5zOmNjPSJodHRwOi8vY3JlYXRpdmVjb21tb25zLm9yZy9ucyMiIHhtbG5zOnJkZj0iaHR0cDovL3d3dy53My5vcmcvMTk5OS8wMi8yMi1yZGYtc3ludGF4LW5zIyIgeG1sbnM6c3ZnPSJodHRwOi8vd3d3LnczLm9yZy8yMDAwL3N2ZyIgeG1sbnM9Imh0dHA6Ly93d3cudzMub3JnLzIwMDAvc3ZnIiB4bWxuczp4bGluaz0iaHR0cDovL3d3dy53My5vcmcvMTk5OS94bGluayIgeG1sbnM6c29kaXBvZGk9Imh0dHA6Ly9zb2RpcG9kaS5zb3VyY2Vmb3JnZS5uZXQvRFREL3NvZGlwb2RpLTAuZHRkIiB4bWxuczppbmtzY2FwZT0iaHR0cDovL3d3dy5pbmtzY2FwZS5vcmcvbmFtZXNwYWNlcy9pbmtzY2FwZSIgdmVyc2lvbj0iMS4xIiBpZD0iTGF5ZXJfMSIgeD0iMHB4IiB5PSIwcHgiIHZpZXdCb3g9IjAgMCA0Ny42OTAwMSA0Ny42ODA0NjIiIHhtbDpzcGFjZT0icHJlc2VydmUiIHNvZGlwb2RpOmRvY25hbWU9InZhbGlkLnN2ZyIgd2lkdGg9IjQ3LjY5MDAxIiBoZWlnaHQ9IjQ3LjY4MDQ2MiIgaW5rc2NhcGU6dmVyc2lvbj0iMC45Mi4zICgyNDA1NTQ2LCAyMDE4LTAzLTExKSI+PG1ldGFkYXRhIGlkPSJtZXRhZGF0YTQ3NzQyIj48cmRmOlJERj48Y2M6V29yayByZGY6YWJvdXQ9IiI+PGRjOmZvcm1hdD5pbWFnZS9zdmcreG1sPC9kYzpmb3JtYXQ+PGRjOnR5cGUgcmRmOnJlc291cmNlPSJodHRwOi8vcHVybC5vcmcvZGMvZGNtaXR5cGUvU3RpbGxJbWFnZSIvPjxkYzp0aXRsZS8+PC9jYzpXb3JrPjwvcmRmOlJERj48L21ldGFkYXRhPjxkZWZzIGlkPSJkZWZzNDc3NDAiLz48c29kaXBvZGk6bmFtZWR2aWV3IHBhZ2Vjb2xvcj0iI2ZmZmZmZiIgYm9yZGVyY29sb3I9IiM2NjY2NjYiIGJvcmRlcm9wYWNpdHk9IjEiIG9iamVjdHRvbGVyYW5jZT0iMTAiIGdyaWR0b2xlcmFuY2U9IjEwIiBndWlkZXRvbGVyYW5jZT0iMTAiIGlua3NjYXBlOnBhZ2VvcGFjaXR5PSIwIiBpbmtzY2FwZTpwYWdlc2hhZG93PSIyIiBpbmtzY2FwZTp3aW5kb3ctd2lkdGg9IjE5MjAiIGlua3NjYXBlOndpbmRvdy1oZWlnaHQ9IjEwMTciIGlkPSJuYW1lZHZpZXc0NzczOCIgc2hvd2dyaWQ9ImZhbHNlIiBmaXQtbWFyZ2luLXRvcD0iMCIgZml0LW1hcmdpbi1sZWZ0PSIwIiBmaXQtbWFyZ2luLXJpZ2h0PSIwIiBmaXQtbWFyZ2luLWJvdHRvbT0iMCIgaW5rc2NhcGU6em9vbT0iMS4wMzAzMDMiIGlua3NjYXBlOmN4PSItNDIuMjE0OTk2IiBpbmtzY2FwZTpjeT0iLTI4OC43OTYwMSIgaW5rc2NhcGU6d2luZG93LXg9Ii04IiBpbmtzY2FwZTp3aW5kb3cteT0iLTgiIGlua3NjYXBlOndpbmRvdy1tYXhpbWl6ZWQ9IjEiIGlua3NjYXBlOmN1cnJlbnQtbGF5ZXI9IkxheWVyXzEiLz4mI3hhOyYjeGE7PGcgaWQ9Imc0NzczNSIgdHJhbnNmb3JtPSJ0cmFuc2xhdGUoLTMzOS41OSwtNDUuNDUwMDAxKSI+JiN4YTsJPGRlZnMgaWQ9ImRlZnM0NzcxOCI+JiN4YTsJCTxyZWN0IGlkPSJTVkdJRF8zXyIgeD0iMzM5LjU5IiB5PSI0NS40NTAwMDEiIHdpZHRoPSI0OCIgaGVpZ2h0PSI0OCIvPiYjeGE7CTwvZGVmcz4mI3hhOwk8Y2xpcFBhdGggaWQ9IlNWR0lEXzRfIj4mI3hhOwkJPHVzZSB4bGluazpocmVmPSIjU1ZHSURfM18iIHN0eWxlPSJvdmVyZmxvdzp2aXNpYmxlIiBpZD0idXNlNDc3MjAiIHg9IjAiIHk9IjAiIHdpZHRoPSIxMDAlIiBoZWlnaHQ9IjEwMCUiLz4mI3hhOwk8L2NsaXBQYXRoPiYjeGE7CTxnIGNsaXAtcGF0aD0idXJsKCNTVkdJRF80XykiIGlkPSJnNDc3MzMiPiYjeGE7CQk8ZGVmcyBpZD0iZGVmczQ3NzI0Ij4mI3hhOwkJCTxyZWN0IGlkPSJTVkdJRF81XyIgeD0iMzM5LjU5IiB5PSI0NS40NTAwMDEiIHdpZHRoPSI0OCIgaGVpZ2h0PSI0OCIvPiYjeGE7CQk8L2RlZnM+JiN4YTsJCTxjbGlwUGF0aCBpZD0iU1ZHSURfNl8iPiYjeGE7CQkJPHVzZSB4bGluazpocmVmPSIjU1ZHSURfNV8iIHN0eWxlPSJvdmVyZmxvdzp2aXNpYmxlIiBpZD0idXNlNDc3MjYiIHg9IjAiIHk9IjAiIHdpZHRoPSIxMDAlIiBoZWlnaHQ9IjEwMCUiLz4mI3hhOwkJPC9jbGlwUGF0aD4mI3hhOwkJPHBhdGggc3R5bGU9ImZpbGw6IzgxYzc4NCIgZD0ibSAzNjMuNCw0NS40NSBjIC05LjYzLDAgLTE4LjMyLDUuODEgLTIxLjk5LDE0Ljc0IC0zLjcxLDguOSAtMS42NSwxOS4xNiA1LjE4LDI1Ljk1IDYuNzksNi44MyAxNy4wNSw4Ljg2IDI1Ljk1LDUuMTggOC45MywtMy43MSAxNC43NCwtMTIuNCAxNC43NCwtMjIuMDMgQyAzODcuMjksNTYuMSAzNzYuNjEsNDUuNDIgMzYzLjQsNDUuNDUgWiIgY2xpcC1wYXRoPSJ1cmwoI1NWR0lEXzZfKSIgaWQ9InBhdGg0NzcyOSIgaW5rc2NhcGU6Y29ubmVjdG9yLWN1cnZhdHVyZT0iMCIvPiYjeGE7CQk8cG9seWdvbiBzdHlsZT0iZmlsbDojZmZmZmZmIiBwb2ludHM9IjM1My44NCw2Ny4wMiAzNTkuNTksNzIuNzcgMzcyLjE2LDYwLjIzIDM3NS44LDYzLjg3IDM1OS41OSw4MC4wOSAzNTAuMiw3MC43ICIgY2xpcC1wYXRoPSJ1cmwoI1NWR0lEXzZfKSIgaWQ9InBvbHlnb240NzczMSIvPiYjeGE7CTwvZz4mI3hhOzwvZz4mI3hhOzwvc3ZnPg==;" vertex="1" parent="1">
          <mxGeometry x="930" y="554" width="20" height="20" as="geometry" />
        </mxCell>
        <mxCell id="izj6aGMY5wUGhT8EYzV--90" value="Widget.evil.de" style="text;strokeColor=#b85450;align=center;fillColor=#f8cecc;html=1;verticalAlign=middle;whiteSpace=wrap;rounded=0;fontColor=#FF0D0D;" vertex="1" parent="1">
          <mxGeometry x="414.33" y="1020" width="170" height="30" as="geometry" />
        </mxCell>
        <mxCell id="izj6aGMY5wUGhT8EYzV--98" style="edgeStyle=orthogonalEdgeStyle;rounded=0;orthogonalLoop=1;jettySize=auto;html=1;entryX=0;entryY=0.5;entryDx=0;entryDy=0;fillColor=#f8cecc;strokeColor=#b85450;" edge="1" parent="1" source="izj6aGMY5wUGhT8EYzV--91" target="izj6aGMY5wUGhT8EYzV--96">
          <mxGeometry relative="1" as="geometry" />
        </mxCell>
        <mxCell id="izj6aGMY5wUGhT8EYzV--99" value="Requst will be refused from API Server" style="edgeLabel;html=1;align=center;verticalAlign=middle;resizable=0;points=[];" vertex="1" connectable="0" parent="izj6aGMY5wUGhT8EYzV--98">
          <mxGeometry x="-0.0319" y="1" relative="1" as="geometry">
            <mxPoint x="1" as="offset" />
          </mxGeometry>
        </mxCell>
        <mxCell id="izj6aGMY5wUGhT8EYzV--91" value="" style="shape=image;verticalLabelPosition=bottom;labelBackgroundColor=#ffffff;verticalAlign=top;aspect=fixed;imageAspect=0;image=data:image/svg+xml,PHN2ZyB4bWxuczpjYz0iaHR0cDovL2NyZWF0aXZlY29tbW9ucy5vcmcvbnMjIiB4bWxuczpkYz0iaHR0cDovL3B1cmwub3JnL2RjL2VsZW1lbnRzLzEuMS8iIHhtbG5zOmlua3NjYXBlPSJodHRwOi8vd3d3Lmlua3NjYXBlLm9yZy9uYW1lc3BhY2VzL2lua3NjYXBlIiB4bWxuczpyZGY9Imh0dHA6Ly93d3cudzMub3JnLzE5OTkvMDIvMjItcmRmLXN5bnRheC1ucyMiIHhtbG5zOnNvZGlwb2RpPSJodHRwOi8vc29kaXBvZGkuc291cmNlZm9yZ2UubmV0L0RURC9zb2RpcG9kaS0wLmR0ZCIgeG1sbnM6c3ZnPSJodHRwOi8vd3d3LnczLm9yZy8yMDAwL3N2ZyIgeG1sbnM9Imh0dHA6Ly93d3cudzMub3JnLzIwMDAvc3ZnIiB4bWxuczp4bGluaz0iaHR0cDovL3d3dy53My5vcmcvMTk5OS94bGluayIgdmVyc2lvbj0iMS4xIiBpZD0ic3ZnMTA2MjkiIGlua3NjYXBlOnZlcnNpb249IjAuOTIuMyAoMjQwNTU0NiwgMjAxOC0wMy0xMSkiIHNvZGlwb2RpOmRvY25hbWU9IndlYl9hcHBsaWNhdGlvbi5zdmciIHg9IjBweCIgeT0iMHB4IiB2aWV3Qm94PSIwIDAgNjMuNDkgNDMuOTgiIHN0eWxlPSJlbmFibGUtYmFja2dyb3VuZDpuZXcgMCAwIDYzLjQ5IDQzLjk4OyIgeG1sOnNwYWNlPSJwcmVzZXJ2ZSI+JiN4YTs8c29kaXBvZGk6bmFtZWR2aWV3IGJvcmRlcmNvbG9yPSIjNjY2NjY2IiBib3JkZXJvcGFjaXR5PSIxIiBmaXQtbWFyZ2luLWJvdHRvbT0iMCIgZml0LW1hcmdpbi1sZWZ0PSIwIiBmaXQtbWFyZ2luLXJpZ2h0PSIwIiBmaXQtbWFyZ2luLXRvcD0iMCIgZ3JpZHRvbGVyYW5jZT0iMTAiIGd1aWRldG9sZXJhbmNlPSIxMCIgaWQ9Im5hbWVkdmlldzEwNjMxIiBpbmtzY2FwZTpjdXJyZW50LWxheWVyPSJzdmcxMDYyOSIgaW5rc2NhcGU6Y3g9IjQyLjg1MzQzMyIgaW5rc2NhcGU6Y3k9IjIyLjQxNzU4MyIgaW5rc2NhcGU6cGFnZW9wYWNpdHk9IjAiIGlua3NjYXBlOnBhZ2VzaGFkb3c9IjIiIGlua3NjYXBlOndpbmRvdy1oZWlnaHQ9IjEwMTciIGlua3NjYXBlOndpbmRvdy1tYXhpbWl6ZWQ9IjEiIGlua3NjYXBlOndpbmRvdy13aWR0aD0iMTkyMCIgaW5rc2NhcGU6d2luZG93LXg9Ii04IiBpbmtzY2FwZTp3aW5kb3cteT0iLTgiIGlua3NjYXBlOnpvb209IjkuODMwNjYzOSIgb2JqZWN0dG9sZXJhbmNlPSIxMCIgcGFnZWNvbG9yPSIjZmZmZmZmIiBzaG93Z3JpZD0iZmFsc2UiPiYjeGE7CTwvc29kaXBvZGk6bmFtZWR2aWV3PiYjeGE7PGcgaWQ9ImcxMDYyNyIgdHJhbnNmb3JtPSJ0cmFuc2xhdGUoLTcuMjQxNDQzMWUtNSwtMC4wMDMzNikiPiYjeGE7CTx0aXRsZSBpZD0idGl0bGUxMDUzNiI+UGFnZS0xPC90aXRsZT4mI3hhOwk8ZyBpZD0iZ3JvdXA0MzM1LTEiPiYjeGE7CQk8dGl0bGUgaWQ9InRpdGxlMTA1MzgiPldlYiBBcHBsaWNhdGlvbjwvdGl0bGU+JiN4YTsJCTxnIGlkPSJncm91cDQzMzYtMiIgdHJhbnNmb3JtPSJ0cmFuc2xhdGUoMCwtOS4yNjY2NCkiPiYjeGE7CQkJPHRpdGxlIGlkPSJ0aXRsZTEwNTQwIj5XZWJzaXRlcyAjMjwvdGl0bGU+JiN4YTsJCQk8ZyBpZD0iZ3JvdXA0MzM3LTMiPiYjeGE7CQkJCTx0aXRsZSBpZD0idGl0bGUxMDU0MiI+TG9naWMgQXBwcyAjMTwvdGl0bGU+JiN4YTsJCQkJPGcgaWQ9InNoYXBlNDMzOC00Ij4mI3hhOwkJCQkJPHRpdGxlIGlkPSJ0aXRsZTEwNTQ0Ij5TaGVldC40MzM4PC90aXRsZT4mI3hhOwkJCQkJPHBhdGggaWQ9InBhdGgxMDU0NiIgaW5rc2NhcGU6Y29ubmVjdG9yLWN1cnZhdHVyZT0iMCIgc3R5bGU9ImZpbGw6IzNGNTc2NTsiIGQ9Ik00OS4yNyw5LjI3Yy00Ny4zOCwwLTQ3LjM4LDAtNDcuMzgsMCAgICAgICBDMC4zMiw5LjI3LDAsOS42NCwwLDExLjIyYzAsMzMuNjYsMCwzMy42NiwwLDMzLjY2YzAsMS41OCwwLjMyLDEuODksMS44OSwxLjg5YzQ3LjM4LDAsNDcuMzgsMCw0Ny4zOCwwICAgICAgIGMxLjY0LDAsMS45NS0wLjMxLDEuOTUtMS44OWMwLTMzLjY2LDAtMzMuNjYsMC0zMy42NkM1MS4yMiw5LjY0LDUwLjkxLDkuMjcsNDkuMjcsOS4yN3oiLz4mI3hhOwkJCQk8L2c+JiN4YTsJCQkJPGcgaWQ9InNoYXBlNDMzOS02IiB0cmFuc2Zvcm09InRyYW5zbGF0ZSgxLjI2MDAzLC0xLjc2MTk4KSI+JiN4YTsJCQkJCTx0aXRsZSBpZD0idGl0bGUxMDU0OSI+U2hlZXQuNDMzOTwvdGl0bGU+JiN4YTsJCQkJCTxwYXRoIGlkPSJwYXRoMTA1NTEiIGlua3NjYXBlOmNvbm5lY3Rvci1jdXJ2YXR1cmU9IjAiIHN0eWxlPSJmaWxsOiMwMEIwNTA7IiBkPSJNMCwxOC4wOHYyOC42OWg0OC43VjE4LjA4SDB6Ii8+JiN4YTsJCQkJPC9nPiYjeGE7CQkJCTxnIGlkPSJzaGFwZTQzNDAtOCIgdHJhbnNmb3JtPSJ0cmFuc2xhdGUoMS4zMjMwMywtMzEuNDYzOSkiPiYjeGE7CQkJCQk8dGl0bGUgaWQ9InRpdGxlMTA1NTQiPlNoZWV0LjQzNDA8L3RpdGxlPiYjeGE7CQkJCQk8cGF0aCBpZD0icGF0aDEwNTU2IiBpbmtzY2FwZTpjb25uZWN0b3ItY3VydmF0dXJlPSIwIiBzdHlsZT0iZmlsbDojMjZBOUUwOyIgZD0iTTUuMSw0NC4yNWMwLDEuNDUtMS4xMywyLjUyLTIuNTIsMi41MiAgICAgICBDMS4yLDQ2Ljc3LDAsNDUuNywwLDQ0LjI1YzAtMS4zOCwxLjItMi41MSwyLjU4LTIuNTFDMy45Nyw0MS43NCw1LjEsNDIuODcsNS4xLDQ0LjI1eiIvPiYjeGE7CQkJCTwvZz4mI3hhOwkJCQk8ZyBpZD0ic2hhcGU0MzQxLTEwIiB0cmFuc2Zvcm09InRyYW5zbGF0ZSgyLjM5NDA1LC0zMi44NDg0KSI+JiN4YTsJCQkJCTx0aXRsZSBpZD0idGl0bGUxMDU1OSI+U2hlZXQuNDM0MTwvdGl0bGU+JiN4YTsJCQkJCTxwYXRoIGlkPSJwYXRoMTA1NjEiIGlua3NjYXBlOmNvbm5lY3Rvci1jdXJ2YXR1cmU9IjAiIHN0eWxlPSJmaWxsOiNGRkZGRkY7IiBkPSJNMS4wMSw0NS4zOWwwLjg4LTAuODJIMS4yTDAsNDUuNjRsMS4yLDEuMTMgICAgICAgaDAuNjlsLTAuODgtMC44OGgyLjAxdi0wLjVIMS4wMXoiLz4mI3hhOwkJCQk8L2c+JiN4YTsJCQkJPGcgaWQ9InNoYXBlNDM0Mi0xMiIgdHJhbnNmb3JtPSJ0cmFuc2xhdGUoNy4zNzExNiwtMzIuODQ4NCkiPiYjeGE7CQkJCQk8dGl0bGUgaWQ9InRpdGxlMTA1NjQiPlNoZWV0LjQzNDI8L3RpdGxlPiYjeGE7CQkJCQk8cGF0aCBpZD0icGF0aDEwNTY2IiBpbmtzY2FwZTpjb25uZWN0b3ItY3VydmF0dXJlPSIwIiBzdHlsZT0iZmlsbDojRkZGRkZGOyIgZD0iTTAsNDQuMzh2Mi4zOWg0Mi42NXYtMi4zOUgweiIvPiYjeGE7CQkJCTwvZz4mI3hhOwkJCQk8ZyBpZD0ic2hhcGU0MzQzLTE0IiB0cmFuc2Zvcm09InRyYW5zbGF0ZSgxMy4xNjczLC0xMC45NDk1KSI+JiN4YTsJCQkJCTx0aXRsZSBpZD0idGl0bGUxMDU2OSI+U2hlZXQuNDM0MzwvdGl0bGU+JiN4YTsJCQkJCTxwYXRoIGlkPSJwYXRoMTA1NzEiIGlua3NjYXBlOmNvbm5lY3Rvci1jdXJ2YXR1cmU9IjAiIHN0eWxlPSJmaWxsOiNGRkZGRkY7IiBkPSJNMjQsNDEuM2MwLTEuMjYtMS0yLjMzLTIuMzMtMi4zMyAgICAgICBjLTMuNTMsMC0zLjUzLDAtMy41MywwYy0zLjA4LTMuMDItMy4wOC0zLjAyLTMuMDgtMy4wMmMtNy41NiwwLTcuNTYsMC03LjU2LDBjLTMuMjIsMy4wOC0zLjIyLDMuMDgtMy4yMiwzLjA4ICAgICAgIGMtMS45NSwwLjE5LTMuNTIsMS44My0zLjUyLDMuODRjMCwwLjc2LDAsMC43NiwwLDAuNzZjLTAuNzYsMC0wLjc2LDAtMC43NiwwYzAsMS41MSwwLDEuNTEsMCwxLjUxYzMuMjgsMCwzLjI4LDAsMy4yOCwwICAgICAgIGMwLjMxLDAuOTQsMS4xOSwxLjYzLDIuMiwxLjYzczEuODMtMC42OSwyLjE0LTEuNjNjOS41OCwwLDkuNTgsMCw5LjU4LDBjMC4zOCwwLjk0LDEuMiwxLjYzLDIuMiwxLjYzICAgICAgIGMxLjAxLDAsMS44My0wLjY5LDIuMjEtMS42M2MzLjE1LDAsMy4xNSwwLDMuMTUsMGMwLTEuNTEsMC0xLjUxLDAtMS41MWMtMC43NiwwLTAuNzYsMC0wLjc2LDBWNDEuM3ogTTIyLjQ5LDQxLjMgICAgICAgYzAsMi4zMywwLDIuMzMsMCwyLjMzYy0wLjg4LDAtMC44OCwwLTAuODgsMGMtMC4zOC0wLjg5LTEuMi0xLjU4LTIuMjEtMS41OGMtMSwwLTEuODIsMC42OS0yLjIsMS41OGMtNi4zNiwwLTYuMzYsMC02LjM2LDAgICAgICAgYzAtMy4wOSwwLTMuMDksMC0zLjA5YzEwLjgzLDAsMTAuODMsMCwxMC44MywwQzIyLjE4LDQwLjU0LDIyLjQ5LDQwLjg2LDIyLjQ5LDQxLjN6IE0xNS45NCwzOC45N2MtNS4xLDAtNS4xLDAtNS4xLDAgICAgICAgYzAtMS41MSwwLTEuNTEsMC0xLjUxYzMuNTksMCwzLjU5LDAsMy41OSwwTDE1Ljk0LDM4Ljk3eiBNOC4wNiwzNy40NmMxLjI2LDAsMS4yNiwwLDEuMjYsMGMwLDEuNTEsMCwxLjUxLDAsMS41MSAgICAgICBjLTIuNzcsMC0yLjc3LDAtMi43NywwTDguMDYsMzcuNDZ6IE0yLjMzLDQyLjg3YzAtMS4zMiwxLjAxLTIuMzMsMi40LTIuMzNjNC41OSwwLDQuNTksMCw0LjU5LDBjMCwzLjA5LDAsMy4wOSwwLDMuMDkgICAgICAgYy0xLjcsMC0xLjcsMC0xLjcsMGMtMC4zMS0wLjg5LTEuMTMtMS41OC0yLjE0LTEuNThzLTEuODksMC42OS0yLjIsMS41OGMtMC45NSwwLTAuOTUsMC0wLjk1LDBWNDIuODd6IE01LjQ4LDQ1LjE0ICAgICAgIGMtMC40NCwwLTAuNzUtMC4zMi0wLjc1LTAuNzZjMC0wLjM4LDAuMzEtMC43NSwwLjc1LTAuNzVjMC4zOCwwLDAuNzYsMC4zNywwLjc2LDAuNzVDNi4yNCw0NC44Miw1Ljg2LDQ1LjE0LDUuNDgsNDUuMTR6ICAgICAgICBNMTkuNCw0NS4xNGMtMC40NCwwLTAuNzUtMC4zMi0wLjc1LTAuNzZjMC0wLjM4LDAuMzEtMC43NSwwLjc1LTAuNzVjMC40NSwwLDAuNzYsMC4zNywwLjc2LDAuNzUgICAgICAgQzIwLjE2LDQ0LjgyLDE5Ljg1LDQ1LjE0LDE5LjQsNDUuMTR6Ii8+JiN4YTsJCQkJPC9nPiYjeGE7CQkJCTxnIGlkPSJzaGFwZTQzNDQtMTYiIHRyYW5zZm9ybT0idHJhbnNsYXRlKDEuMDk4MjUsLTEuNzMzMDUpIj4mI3hhOwkJCQkJPHRpdGxlIGlkPSJ0aXRsZTEwNTc0Ij5TaGVldC40MzQ0PC90aXRsZT4mI3hhOwkJCQkJPHBhdGggaWQ9InBhdGgxMDU3NiIgaW5rc2NhcGU6Y29ubmVjdG9yLWN1cnZhdHVyZT0iMCIgc3R5bGU9ImZpbGw6IzAwQjBGMDsiIGQ9Ik0wLDE4LjA3djI4LjdoNDguNzd2LTI4LjdIMHoiLz4mI3hhOwkJCQk8L2c+JiN4YTsJCQk8L2c+JiN4YTsJCTwvZz4mI3hhOwkJPGcgaWQ9Imdyb3VwNDM0NS0xOCIgdHJhbnNmb3JtPSJ0cmFuc2xhdGUoMzQuMjEyMikiPiYjeGE7CQkJPHRpdGxlIGlkPSJ0aXRsZTEwNTgxIj5XZWIgU2VydmljZS43ODY8L3RpdGxlPiYjeGE7CQkJPGcgaWQ9InNoYXBlNDM0Ni0xOSIgdHJhbnNmb3JtPSJ0cmFuc2xhdGUoNC4zODM0OSwtNy4zOTYyMSkiPiYjeGE7CQkJCTx0aXRsZSBpZD0idGl0bGUxMDU4MyI+cGF0aDk2MTA8L3RpdGxlPiYjeGE7CQkJCSYjeGE7CQkJCQk8cGF0aCBpZD0icGF0aDEwNTg1IiBpbmtzY2FwZTpjb25uZWN0b3ItY3VydmF0dXJlPSIwIiBzdHlsZT0iZmlsbDojRkZGRkZGO3N0cm9rZTojNTU2QThBO3N0cm9rZS13aWR0aDowLjc1O3N0cm9rZS1taXRlcmxpbWl0OjM7IiBkPSIgICAgICBNMjQuNTIsMzYuNjJjMCw3LjkzLTYuNDMsMTQuMzYtMTQuMzYsMTQuMzZTLTQuMiw0NC41NS00LjIsMzYuNjJjMC03LjkzLDYuNDItMTQuMzYsMTQuMzUtMTQuMzYgICAgICBDMTguMDgsMjIuMjYsMjQuNTEsMjguNjksMjQuNTIsMzYuNjJ6Ii8+JiN4YTsJCQk8L2c+JiN4YTsJCQk8ZyBpZD0ic2hhcGU0MzQ3LTIxIiB0cmFuc2Zvcm09InRyYW5zbGF0ZSgwLjE3NzIxNiwtMy4xODk5NCkiPiYjeGE7CQkJCTx0aXRsZSBpZD0idGl0bGUxMDU4OCI+cGF0aDk2MTI8L3RpdGxlPiYjeGE7CQkJCTxwYXRoIGlkPSJwYXRoMTA1OTAiIGlua3NjYXBlOmNvbm5lY3Rvci1jdXJ2YXR1cmU9IjAiIHN0eWxlPSJmaWxsOiNBQ0U4Rjk7IiBkPSJNMjguNzIsMzIuNDFjLTAuMSw3LjkzLTYuNjEsMTQuMjgtMTQuNTQsMTQuMTggICAgICBDNi4zOSw0Ni41LDAuMSw0MC4yLDAsMzIuNDFIMjguNzJ6Ii8+JiN4YTsJCQk8L2c+JiN4YTsJCQk8ZyBpZD0ic2hhcGU0MzQ4LTIzIiB0cmFuc2Zvcm09InRyYW5zbGF0ZSgxLjA5Mzg4LC03LjE4MDE1KSI+JiN4YTsJCQkJPHRpdGxlIGlkPSJ0aXRsZTEwNTkzIj5wYXRoOTYxNDwvdGl0bGU+JiN4YTsJCQkJPHBhdGggaWQ9InBhdGgxMDU5NSIgaW5rc2NhcGU6Y29ubmVjdG9yLWN1cnZhdHVyZT0iMCIgc3R5bGU9ImZpbGw6IzU1NkE4QTsiIGQ9Ik0xMy40NCwyMi45NmM3LjQzLDAsMTMuNDUsNi4wMSwxMy40NSwxMy40NCAgICAgIHMtNi4wMSwxMy40NS0xMy40NCwxMy40NVMwLDQzLjgzLDAsMzYuNDFjMCwwLDAtMC4wMSwwLTAuMDFDMCwyOC45OCw2LjAyLDIyLjk2LDEzLjQ0LDIyLjk2eiBNMTMuNDQsMjEuNzMgICAgICBjLTguMSwwLTE0LjY3LDYuNTctMTQuNjYsMTQuNjdjMCw4LjEsNi41NywxNC42NywxNC42NywxNC42NmM4LjEsMCwxNC42Ni02LjU3LDE0LjY2LTE0LjY2QzI4LjExLDI4LjMsMjEuNTUsMjEuNzMsMTMuNDQsMjEuNzMgICAgICBDMTMuNDQsMjEuNzMsMTMuNDQsMjEuNzMsMTMuNDQsMjEuNzN6Ii8+JiN4YTsJCQk8L2c+JiN4YTsJCQk8ZyBpZD0iZ3JvdXA0MzQ5LTI1IiB0cmFuc2Zvcm09InRyYW5zbGF0ZSgwLC0yLjg4NDM4KSI+JiN4YTsJCQkJPHRpdGxlIGlkPSJ0aXRsZTEwNTk4Ij5nOTYyMDwvdGl0bGU+JiN4YTsJCQkJPGcgaWQ9InNoYXBlNDM1MC0yNiIgdHJhbnNmb3JtPSJ0cmFuc2xhdGUoNy44MTYxKSI+JiN4YTsJCQkJCTx0aXRsZSBpZD0idGl0bGUxMDYwMCI+cGF0aDk2MTY8L3RpdGxlPiYjeGE7CQkJCQk8cGF0aCBpZD0icGF0aDEwNjAyIiBpbmtzY2FwZTpjb25uZWN0b3ItY3VydmF0dXJlPSIwIiBzdHlsZT0iZmlsbDojNTU2QThBOyIgZD0iTTYuNDIsMTguODNjMi40NCwwLDUuMTksNS43MSw1LjE5LDEzLjM1ICAgICAgIGMwLDcuNjUtMi43NSwxMy4zNy01LjE5LDEzLjM3Yy0yLjQ1LDAtNS4yLTUuNzEtNS4yLTEzLjM2QzEuMjIsMjQuNTUsMy45NywxOC44Myw2LjQyLDE4LjgzeiBNNi40MiwxNy42ICAgICAgIEMyLjg3LDE3LjYsMCwyNC4xMywwLDMyLjE4YzAsOC4wNiwyLjg3LDE0LjU5LDYuNDIsMTQuNTljMy41NCwwLDYuNDEtNi41Myw2LjQxLTE0LjU4UzkuOTYsMTcuNiw2LjQyLDE3LjZ6Ii8+JiN4YTsJCQkJPC9nPiYjeGE7CQkJCTxnIGlkPSJzaGFwZTQzNTEtMjgiIHRyYW5zZm9ybT0idHJhbnNsYXRlKDAsLTE0LjY2NjcpIj4mI3hhOwkJCQkJPHRpdGxlIGlkPSJ0aXRsZTEwNjA1Ij5saW5lOTYxODwvdGl0bGU+JiN4YTsJCQkJCSYjeGE7CQkJCQkJPHBhdGggaWQ9InBhdGgxMDYwNyIgaW5rc2NhcGU6Y29ubmVjdG9yLWN1cnZhdHVyZT0iMCIgc3R5bGU9ImZpbGw6bm9uZTtzdHJva2U6IzU1NkE4QTtzdHJva2Utd2lkdGg6MS41O3N0cm9rZS1taXRlcmxpbWl0OjM7IiBkPSIgICAgICAgTTAsNDYuNzdoMjguNTkiLz4mI3hhOwkJCQk8L2c+JiN4YTsJCQk8L2c+JiN4YTsJCQk8ZyBpZD0ic2hhcGU0MzUyLTMxIiB0cmFuc2Zvcm09InRyYW5zbGF0ZSgzLjU0NDQ0LC0yNC44ODQ0KSI+JiN4YTsJCQkJPHRpdGxlIGlkPSJ0aXRsZTEwNjExIj5wYXRoOTYyMjwvdGl0bGU+JiN4YTsJCQkJPHBhdGggaWQ9InBhdGgxMDYxMyIgaW5rc2NhcGU6Y29ubmVjdG9yLWN1cnZhdHVyZT0iMCIgc3R5bGU9ImZpbGw6bm9uZTsiIGQ9Ik0wLDQ1LjEyYzIuNjgsMS4wNCw2LjYyLDEuNjUsMTAuOTksMS42NSAgICAgIGM0LjM4LDAsOC4zMS0wLjYxLDExLTEuNjVIMHoiLz4mI3hhOwkJCQkmI3hhOwkJCQkJPHBhdGggaWQ9InBhdGgxMDYxNSIgaW5rc2NhcGU6Y29ubmVjdG9yLWN1cnZhdHVyZT0iMCIgc3R5bGU9ImZpbGw6bm9uZTtzdHJva2U6IzU1NkE4QTtzdHJva2Utd2lkdGg6MS41O3N0cm9rZS1taXRlcmxpbWl0OjM7IiBkPSIgICAgICBNMCw0NS4xMmMyLjY4LDEuMDQsNi42MiwxLjY1LDEwLjk5LDEuNjVjNC4zOCwwLDguMzEtMC42MSwxMS0xLjY1Ii8+JiN4YTsJCQk8L2c+JiN4YTsJCQk8ZyBpZD0ic2hhcGU0MzUzLTM0IiB0cmFuc2Zvcm09InRyYW5zbGF0ZSgzLjU0NDQ0LC04LjU2MTYpIj4mI3hhOwkJCQk8dGl0bGUgaWQ9InRpdGxlMTA2MTgiPnBhdGg5NjI0PC90aXRsZT4mI3hhOwkJCQk8cGF0aCBpZD0icGF0aDEwNjIwIiBpbmtzY2FwZTpjb25uZWN0b3ItY3VydmF0dXJlPSIwIiBzdHlsZT0iZmlsbDpub25lOyIgZD0iTTAsNDYuNzdjMi42OC0xLjA0LDYuNjItMS42NSwxMC45OS0xLjY1ICAgICAgYzQuMzgsMCw4LjMxLDAuNjEsMTEsMS42NUgweiIvPiYjeGE7CQkJCSYjeGE7CQkJCQk8cGF0aCBpZD0icGF0aDEwNjIyIiBpbmtzY2FwZTpjb25uZWN0b3ItY3VydmF0dXJlPSIwIiBzdHlsZT0iZmlsbDpub25lO3N0cm9rZTojNTU2QThBO3N0cm9rZS13aWR0aDoxLjU7c3Ryb2tlLW1pdGVybGltaXQ6MzsiIGQ9IiAgICAgIE0wLDQ2Ljc3YzIuNjgtMS4wNCw2LjYyLTEuNjUsMTAuOTktMS42NWM0LjM4LDAsOC4zMSwwLjYxLDExLDEuNjUiLz4mI3hhOwkJCTwvZz4mI3hhOwkJPC9nPiYjeGE7CTwvZz4mI3hhOzwvZz4mI3hhOzwvc3ZnPg==;fontColor=#000000;" vertex="1" parent="1">
          <mxGeometry x="446.99999999999994" y="920" width="123" height="85.9" as="geometry" />
        </mxCell>
        <mxCell id="izj6aGMY5wUGhT8EYzV--92" value="" style="shape=image;verticalLabelPosition=bottom;labelBackgroundColor=#ffffff;verticalAlign=top;aspect=fixed;imageAspect=0;image=data:image/svg+xml,PHN2ZyB4bWxuczpjYz0iaHR0cDovL2NyZWF0aXZlY29tbW9ucy5vcmcvbnMjIiB4bWxuczpkYz0iaHR0cDovL3B1cmwub3JnL2RjL2VsZW1lbnRzLzEuMS8iIHhtbG5zOmlua3NjYXBlPSJodHRwOi8vd3d3Lmlua3NjYXBlLm9yZy9uYW1lc3BhY2VzL2lua3NjYXBlIiB4bWxuczpyZGY9Imh0dHA6Ly93d3cudzMub3JnLzE5OTkvMDIvMjItcmRmLXN5bnRheC1ucyMiIHhtbG5zOnNvZGlwb2RpPSJodHRwOi8vc29kaXBvZGkuc291cmNlZm9yZ2UubmV0L0RURC9zb2RpcG9kaS0wLmR0ZCIgeG1sbnM6c3ZnPSJodHRwOi8vd3d3LnczLm9yZy8yMDAwL3N2ZyIgeG1sbnM9Imh0dHA6Ly93d3cudzMub3JnLzIwMDAvc3ZnIiB4bWxuczp4bGluaz0iaHR0cDovL3d3dy53My5vcmcvMTk5OS94bGluayIgdmVyc2lvbj0iMS4xIiBpZD0ic3ZnMTgxMDA3IiBpbmtzY2FwZTp2ZXJzaW9uPSIwLjkyLjMgKDI0MDU1NDYsIDIwMTgtMDMtMTEpIiBzb2RpcG9kaTpkb2NuYW1lPSJqYXZhc2NyaXB0LnN2ZyIgeD0iMHB4IiB5PSIwcHgiIHZpZXdCb3g9IjAgMCA0NSA0NSIgc3R5bGU9ImVuYWJsZS1iYWNrZ3JvdW5kOm5ldyAwIDAgNDUgNDU7IiB4bWw6c3BhY2U9InByZXNlcnZlIj4mI3hhOzxzb2RpcG9kaTpuYW1lZHZpZXcgYm9yZGVyY29sb3I9IiM2NjY2NjYiIGJvcmRlcm9wYWNpdHk9IjEiIGZpdC1tYXJnaW4tYm90dG9tPSIwIiBmaXQtbWFyZ2luLWxlZnQ9IjAiIGZpdC1tYXJnaW4tcmlnaHQ9IjAiIGZpdC1tYXJnaW4tdG9wPSIwIiBncmlkdG9sZXJhbmNlPSIxMCIgZ3VpZGV0b2xlcmFuY2U9IjEwIiBpZD0ibmFtZWR2aWV3MTgxMDA5IiBpbmtzY2FwZTpjdXJyZW50LWxheWVyPSJzdmcxODEwMDciIGlua3NjYXBlOmN4PSIyOS45OTk5ODUiIGlua3NjYXBlOmN5PSIyOS45OTk5ODUiIGlua3NjYXBlOnBhZ2VvcGFjaXR5PSIwIiBpbmtzY2FwZTpwYWdlc2hhZG93PSIyIiBpbmtzY2FwZTp3aW5kb3ctaGVpZ2h0PSIxMDE3IiBpbmtzY2FwZTp3aW5kb3ctbWF4aW1pemVkPSIxIiBpbmtzY2FwZTp3aW5kb3ctd2lkdGg9IjE5MjAiIGlua3NjYXBlOndpbmRvdy14PSItOCIgaW5rc2NhcGU6d2luZG93LXk9Ii04IiBpbmtzY2FwZTp6b29tPSIxMy45ODM4NzgiIG9iamVjdHRvbGVyYW5jZT0iMTAiIHBhZ2Vjb2xvcj0iI2ZmZmZmZiIgc2hvd2dyaWQ9ImZhbHNlIj4mI3hhOwk8L3NvZGlwb2RpOm5hbWVkdmlldz4mI3hhOzxnIGlkPSJnMTgxMDA1IiB0cmFuc2Zvcm09InRyYW5zbGF0ZSgtMC43NSwtMC43NSkiPiYjeGE7CTx0aXRsZSBpZD0idGl0bGUxODA5ODMiPlBhZ2UtMTwvdGl0bGU+JiN4YTsJPGcgaWQ9Imdyb3VwMTExOC0xIiB0cmFuc2Zvcm09InRyYW5zbGF0ZSgwLjc1LC0wLjc1KSI+JiN4YTsJCTx0aXRsZSBpZD0idGl0bGUxODA5ODUiPkphdmFTY3JpcHQ8L3RpdGxlPiYjeGE7CQk8ZyBpZD0ic2hhcGUxMTE5LTIiPiYjeGE7CQkJPHRpdGxlIGlkPSJ0aXRsZTE4MDk4NyI+cmVjdDcwNzU8L3RpdGxlPiYjeGE7CQkJPHJlY3QgaWQ9InJlY3QxODA5ODkiIHk9IjEuNSIgc3R5bGU9ImZpbGw6I0U0Q0I1ODsiIHdpZHRoPSI0NSIgaGVpZ2h0PSI0NSIvPiYjeGE7CQk8L2c+JiN4YTsJCTxnIGlkPSJzaGFwZTExMjAtNCIgdHJhbnNmb3JtPSJ0cmFuc2xhdGUoMTIuMzM3NSwtMi41MTI1KSI+JiN4YTsJCQk8dGl0bGUgaWQ9InRpdGxlMTgwOTkyIj5wYXRoNzA3NzwvdGl0bGU+JiN4YTsJCQk8cGF0aCBpZD0icGF0aDE4MDk5NCIgaW5rc2NhcGU6Y29ubmVjdG9yLWN1cnZhdHVyZT0iMCIgc3R5bGU9ImZpbGw6IzQ0NDQ0NDsiIGQ9Ik04LjIzLDI1LjIzaDMuODZ2MTUuMzUgICAgIGMwLDMuNjctMi40Niw1LjkyLTUuNzIsNS45MkMxLjIzLDQ2LjUsMCw0Mi43NSwwLDQyLjc1bDMuNDEtMi4wOGMwLDAsMC45MiwyLjE2LDIuNiwyLjE2YzEuNjcsMCwyLjI1LTAuOTMsMi4yNS0yLjgyTDguMjMsMjUuMjMgICAgIHoiLz4mI3hhOwkJPC9nPiYjeGE7CQk8ZyBpZD0ic2hhcGUxMTIxLTYiIHRyYW5zZm9ybT0idHJhbnNsYXRlKDI2LjU1LC0yLjc3NSkiPiYjeGE7CQkJPHRpdGxlIGlkPSJ0aXRsZTE4MDk5NyI+cGF0aDcwNzk8L3RpdGxlPiYjeGE7CQkJPHBhdGggaWQ9InBhdGgxODA5OTkiIGlua3NjYXBlOmNvbm5lY3Rvci1jdXJ2YXR1cmU9IjAiIHN0eWxlPSJmaWxsOiM0NDQ0NDQ7IiBkPSJNOS43NiwzMC44OGwzLTEuOTcgICAgIGMtMC45OS0yLjEtMy4xMy0zLjQyLTUuNDYtMy4zNmMtNC4wOCwwLTYuMTEsMi41OC02LjExLDUuOTNzMy4xOSw1LjE2LDUuMzIsNi4wN2MyLjI1LDAuOTYsMy40MywxLjc5LDMuNDMsMy4xNyAgICAgYzAsMS4wMS0wLjg0LDIuMDEtMi42NCwyLjA3Yy0yLjg2LDAuMDktNC4wOS0yLjYyLTQuMDktMi42MkwwLDQyLjMzYzAsMCwxLjgsNC4xNyw3LjQyLDQuMTdjNS42MywwLDYuNi0zLjk3LDYuNi01LjgzICAgICBzLTAuNjYtNC40Ni00LjY1LTYuMjVjLTQtMS43OS00LjIzLTIuNjItNC4yMy0zLjU5YzAtMC45NiwwLjg0LTEuNywyLjE2LTEuN3MyLjQ2LDEuNywyLjQ2LDEuN0w5Ljc2LDMwLjg4eiIvPiYjeGE7CQkJPHBhdGggaWQ9InBhdGgxODEwMDEiIGlua3NjYXBlOmNvbm5lY3Rvci1jdXJ2YXR1cmU9IjAiIHN0eWxlPSJmaWxsOm5vbmU7IiBkPSJNOS43NiwzMC44OGwzLTEuOTdjLTAuOTktMi4xLTMuMTMtMy40Mi01LjQ2LTMuMzYgICAgIGMtNC4wOCwwLTYuMTEsMi41OC02LjExLDUuOTNzMy4xOSw1LjE2LDUuMzIsNi4wN2MyLjI1LDAuOTYsMy40MywxLjc5LDMuNDMsMy4xN2MwLDEuMDEtMC44NCwyLjAxLTIuNjQsMi4wNyAgICAgYy0yLjg2LDAuMDktNC4wOS0yLjYyLTQuMDktMi42MkwwLDQyLjMzYzAsMCwxLjgsNC4xNyw3LjQyLDQuMTdjNS42MywwLDYuNi0zLjk3LDYuNi01Ljgzcy0wLjY2LTQuNDYtNC42NS02LjI1ICAgICBjLTQtMS43OS00LjIzLTIuNjItNC4yMy0zLjU5YzAtMC45NiwwLjg0LTEuNywyLjE2LTEuN3MyLjQ2LDEuNywyLjQ2LDEuNyIvPiYjeGE7CQk8L2c+JiN4YTsJPC9nPiYjeGE7PC9nPiYjeGE7PC9zdmc+;fontColor=#000000;" vertex="1" parent="1">
          <mxGeometry x="427" y="969" width="29" height="29" as="geometry" />
        </mxCell>
        <mxCell id="izj6aGMY5wUGhT8EYzV--93" value="" style="shape=image;verticalLabelPosition=bottom;labelBackgroundColor=#ffffff;verticalAlign=top;aspect=fixed;imageAspect=0;image=data:image/svg+xml,PHN2ZyB4bWxuczpjYz0iaHR0cDovL2NyZWF0aXZlY29tbW9ucy5vcmcvbnMjIiB4bWxuczpkYz0iaHR0cDovL3B1cmwub3JnL2RjL2VsZW1lbnRzLzEuMS8iIHhtbG5zOmlua3NjYXBlPSJodHRwOi8vd3d3Lmlua3NjYXBlLm9yZy9uYW1lc3BhY2VzL2lua3NjYXBlIiB4bWxuczpyZGY9Imh0dHA6Ly93d3cudzMub3JnLzE5OTkvMDIvMjItcmRmLXN5bnRheC1ucyMiIHhtbG5zOnNvZGlwb2RpPSJodHRwOi8vc29kaXBvZGkuc291cmNlZm9yZ2UubmV0L0RURC9zb2RpcG9kaS0wLmR0ZCIgeG1sbnM6c3ZnPSJodHRwOi8vd3d3LnczLm9yZy8yMDAwL3N2ZyIgeG1sbnM9Imh0dHA6Ly93d3cudzMub3JnLzIwMDAvc3ZnIiB4bWxuczp4bGluaz0iaHR0cDovL3d3dy53My5vcmcvMTk5OS94bGluayIgdmVyc2lvbj0iMS4xIiBpZD0ic3ZnNjMxMjkiIGlua3NjYXBlOnZlcnNpb249IjAuOTIuMyAoMjQwNTU0NiwgMjAxOC0wMy0xMSkiIHNvZGlwb2RpOmRvY25hbWU9Imh0dHBzX2FkYXB0ZXJfMS5zdmciIHg9IjBweCIgeT0iMHB4IiB2aWV3Qm94PSIwIDAgNjQuMjggNTAuMzEiIHN0eWxlPSJlbmFibGUtYmFja2dyb3VuZDpuZXcgMCAwIDY0LjI4IDUwLjMxOyIgeG1sOnNwYWNlPSJwcmVzZXJ2ZSI+JiN4YTs8c29kaXBvZGk6bmFtZWR2aWV3IGJvcmRlcmNvbG9yPSIjNjY2NjY2IiBib3JkZXJvcGFjaXR5PSIxIiBmaXQtbWFyZ2luLWJvdHRvbT0iMCIgZml0LW1hcmdpbi1sZWZ0PSIwIiBmaXQtbWFyZ2luLXJpZ2h0PSIwIiBmaXQtbWFyZ2luLXRvcD0iMCIgZ3JpZHRvbGVyYW5jZT0iMTAiIGd1aWRldG9sZXJhbmNlPSIxMCIgaWQ9Im5hbWVkdmlldzYzMTMxIiBpbmtzY2FwZTpjdXJyZW50LWxheWVyPSJzdmc2MzEyOSIgaW5rc2NhcGU6Y3g9IjMyLjI3NDIwNiIgaW5rc2NhcGU6Y3k9IjE3LjQyMzEyOSIgaW5rc2NhcGU6cGFnZW9wYWNpdHk9IjAiIGlua3NjYXBlOnBhZ2VzaGFkb3c9IjIiIGlua3NjYXBlOndpbmRvdy1oZWlnaHQ9IjEwMTciIGlua3NjYXBlOndpbmRvdy1tYXhpbWl6ZWQ9IjEiIGlua3NjYXBlOndpbmRvdy13aWR0aD0iMTkyMCIgaW5rc2NhcGU6d2luZG93LXg9Ii04IiBpbmtzY2FwZTp3aW5kb3cteT0iLTgiIGlua3NjYXBlOnpvb209IjQuNDM3NjE2MSIgb2JqZWN0dG9sZXJhbmNlPSIxMCIgcGFnZWNvbG9yPSIjZmZmZmZmIiBzaG93Z3JpZD0iZmFsc2UiPiYjeGE7CTwvc29kaXBvZGk6bmFtZWR2aWV3PiYjeGE7PGcgaWQ9Imc2MzEyNyIgdHJhbnNmb3JtPSJ0cmFuc2xhdGUoLTAuNzUwMDM2ODgsLTAuNzQ4NCkiPiYjeGE7CTx0aXRsZSBpZD0idGl0bGU2MzA0NiI+UGFnZS0xPC90aXRsZT4mI3hhOwk8ZyBpZD0iZ3JvdXAzODQ3LTEiIHRyYW5zZm9ybT0idHJhbnNsYXRlKDAuNzUsLTEuNSkiPiYjeGE7CQk8dGl0bGUgaWQ9InRpdGxlNjMwNDgiPkhUVFBTIEFkYXB0ZXIgIzE8L3RpdGxlPiYjeGE7CQk8ZyBpZD0iZ3JvdXAzODQ4LTIiIHRyYW5zZm9ybT0idHJhbnNsYXRlKDEuMjg0OTQpIj4mI3hhOwkJCTx0aXRsZSBpZD0idGl0bGU2MzA1MCI+QWRhcHRlci9Db25uZWN0b3IuMTIxMzQ8L3RpdGxlPiYjeGE7CQkJPGcgaWQ9InNoYXBlMzg0OS0zIiB0cmFuc2Zvcm09InJvdGF0ZSgtOTAsMTEuNjI1LDM1LjY4MTcpIj4mI3hhOwkJCQk8dGl0bGUgaWQ9InRpdGxlNjMwNTIiPmxpbmUxNTU5ODwvdGl0bGU+JiN4YTsJCQkJJiN4YTsJCQkJCTxwYXRoIGlkPSJwYXRoNjMwNTQiIGlua3NjYXBlOmNvbm5lY3Rvci1jdXJ2YXR1cmU9IjAiIHN0eWxlPSJmaWxsOm5vbmU7c3Ryb2tlOiM1NTZBOEE7c3Ryb2tlLXdpZHRoOjEuNTtzdHJva2UtbWl0ZXJsaW1pdDozOyIgZD0iICAgICAgTTAsNTEuODFoMjkuMjUiLz4mI3hhOwkJCTwvZz4mI3hhOwkJCTxnIGlkPSJzaGFwZTM4NTAtNiIgdHJhbnNmb3JtPSJyb3RhdGUoOTAsMzMuNzUsNTEuODA2NykiPiYjeGE7CQkJCTx0aXRsZSBpZD0idGl0bGU2MzA1NyI+bGluZTE1NjAwPC90aXRsZT4mI3hhOwkJCQkmI3hhOwkJCQkJPHBhdGggaWQ9InBhdGg2MzA1OSIgaW5rc2NhcGU6Y29ubmVjdG9yLWN1cnZhdHVyZT0iMCIgc3R5bGU9ImZpbGw6bm9uZTtzdHJva2U6IzU1NkE4QTtzdHJva2Utd2lkdGg6MS41O3N0cm9rZS1taXRlcmxpbWl0OjM7IiBkPSIgICAgICBNMCw1MS44MWgyNyIvPiYjeGE7CQkJPC9nPiYjeGE7CQkJPGcgaWQ9InNoYXBlMzg1MS05IiB0cmFuc2Zvcm09InJvdGF0ZSgxODAsMzAuNzUsNDcuMzA2NjUpIj4mI3hhOwkJCQk8dGl0bGUgaWQ9InRpdGxlNjMwNjIiPmxpbmUxNTYwMjwvdGl0bGU+JiN4YTsJCQkJJiN4YTsJCQkJCTxwYXRoIGlkPSJwYXRoNjMwNjQiIGlua3NjYXBlOmNvbm5lY3Rvci1jdXJ2YXR1cmU9IjAiIHN0eWxlPSJmaWxsOm5vbmU7c3Ryb2tlOiM1NTZBOEE7c3Ryb2tlLXdpZHRoOjEuNTtzdHJva2UtbWl0ZXJsaW1pdDozOyIgZD0iICAgICAgTTAsNTEuODFoNjEuNSIvPiYjeGE7CQkJPC9nPiYjeGE7CQkJPGcgaWQ9InNoYXBlMzg1Mi0xMiIgdHJhbnNmb3JtPSJyb3RhdGUoMTgwLDMwLjc1LDUwLjMwNjUpIj4mI3hhOwkJCQk8dGl0bGUgaWQ9InRpdGxlNjMwNjciPmxpbmUxNTYwNDwvdGl0bGU+JiN4YTsJCQkJJiN4YTsJCQkJCTxwYXRoIGlkPSJwYXRoNjMwNjkiIGlua3NjYXBlOmNvbm5lY3Rvci1jdXJ2YXR1cmU9IjAiIHN0eWxlPSJmaWxsOm5vbmU7c3Ryb2tlOiM1NTZBOEE7c3Ryb2tlLXdpZHRoOjEuNTtzdHJva2UtbWl0ZXJsaW1pdDozOyIgZD0iICAgICAgTTAsNTEuODFoNjEuNSIvPiYjeGE7CQkJPC9nPiYjeGE7CQkJPGcgaWQ9InNoYXBlMzg1My0xNSIgdHJhbnNmb3JtPSJ0cmFuc2xhdGUoMjEuNzUpIj4mI3hhOwkJCQk8dGl0bGUgaWQ9InRpdGxlNjMwNzIiPnJlY3QxNTYwNjwvdGl0bGU+JiN4YTsJCQkJJiN4YTsJCQkJCTxwYXRoIGlkPSJwYXRoNjMwNzQiIGlua3NjYXBlOmNvbm5lY3Rvci1jdXJ2YXR1cmU9IjAiIHN0eWxlPSJmaWxsOiM5MjczQjY7c3Ryb2tlOiM1NTZBOEE7c3Ryb2tlLXdpZHRoOjEuNTtzdHJva2UtbWl0ZXJsaW1pdDozOyIgZD0iICAgICAgTTAsNDguODFjMCwxLjY2LDEuMzQsMywzLDNoMTJjMS42NiwwLDMtMS4zNCwzLTN2LTZjMC0xLjY2LTEuMzQtMy0zLTNIM2MtMS42NiwwLTMsMS4zNC0zLDNWNDguODF6Ii8+JiN4YTsJCQk8L2c+JiN4YTsJCTwvZz4mI3hhOwkJPGcgaWQ9Imdyb3VwMzg1NC0xNyIgdHJhbnNmb3JtPSJ0cmFuc2xhdGUoMCwtMjMuOTYxNikiPiYjeGE7CQkJPHRpdGxlIGlkPSJ0aXRsZTYzMDc4Ij5TaGVldC4zODU0PC90aXRsZT4mI3hhOwkJCTxnIGlkPSJzaGFwZTM4NTUtMTgiPiYjeGE7CQkJCTx0aXRsZSBpZD0idGl0bGU2MzA4MCI+U2hlZXQuMzg1NTwvdGl0bGU+JiN4YTsJCQkJPHBhdGggaWQ9InBhdGg2MzA4MiIgaW5rc2NhcGU6Y29ubmVjdG9yLWN1cnZhdHVyZT0iMCIgc3R5bGU9ImZpbGw6IzI3NDE1RTsiIGQ9Ik0xLjg2LDI2LjIxaDYwLjU2YzEuMDIsMCwxLjg2LDAuNjQsMS44NiwxLjQzICAgICAgdjIyLjc0YzAsMC43OS0wLjg0LDEuNDMtMS44NiwxLjQzSDEuODZDMC44Myw1MS44MSwwLDUxLjE3LDAsNTAuMzhWMjcuNjRDMCwyNi44NSwwLjgzLDI2LjIxLDEuODYsMjYuMjF6Ii8+JiN4YTsJCQk8L2c+JiN4YTsJCQk8ZyBpZD0ic2hhcGUzODU2LTIwIiB0cmFuc2Zvcm09InRyYW5zbGF0ZSg0Ny4wMTg2LC04Ljk4ODA3KSI+JiN4YTsJCQkJPHRpdGxlIGlkPSJ0aXRsZTYzMDg1Ij5TaGVldC4zODU2PC90aXRsZT4mI3hhOwkJCQk8cGF0aCBpZD0icGF0aDYzMDg3IiBpbmtzY2FwZTpjb25uZWN0b3ItY3VydmF0dXJlPSIwIiBzdHlsZT0iZmlsbDojRkZGRkZGOyIgZD0iTTEuNzEsNTEuODF2LTEuNzlIMHYxLjc5SDEuNzF6IE0xLjcxLDQ2LjgzICAgICAgdi0xLjc5SDB2MS43OUgxLjcxeiIvPiYjeGE7CQkJPC9nPiYjeGE7CQkJPGcgaWQ9InNoYXBlMzg1Ny0yMiIgdHJhbnNmb3JtPSJ0cmFuc2xhdGUoNTAuMzAxLC03LjY5NjU3KSI+JiN4YTsJCQkJPHRpdGxlIGlkPSJ0aXRsZTYzMDkwIj5TaGVldC4zODU3PC90aXRsZT4mI3hhOwkJCQk8cGF0aCBpZD0icGF0aDYzMDkyIiBpbmtzY2FwZTpjb25uZWN0b3ItY3VydmF0dXJlPSIwIiBzdHlsZT0iZmlsbDojRkZGRkZGOyIgZD0iTTQuODQsNDAuOEgzLjI4TDAsNTEuODFoMS41N0w0Ljg0LDQwLjh6Ii8+JiN4YTsJCQk8L2c+JiN4YTsJCQk8ZyBpZD0ic2hhcGUzODU4LTI0IiB0cmFuc2Zvcm09InRyYW5zbGF0ZSg1NS4xMTc3LC03LjY5NjU3KSI+JiN4YTsJCQkJPHRpdGxlIGlkPSJ0aXRsZTYzMDk1Ij5TaGVldC4zODU4PC90aXRsZT4mI3hhOwkJCQk8cGF0aCBpZD0icGF0aDYzMDk3IiBpbmtzY2FwZTpjb25uZWN0b3ItY3VydmF0dXJlPSIwIiBzdHlsZT0iZmlsbDojRkZGRkZGOyIgZD0iTTQuODQsNDAuOEgzLjI4TDAsNTEuODFoMS41N0w0Ljg0LDQwLjh6Ii8+JiN4YTsJCQk8L2c+JiN4YTsJCQk8ZyBpZD0ic2hhcGUzODU5LTI2IiB0cmFuc2Zvcm09InRyYW5zbGF0ZSg3LjY5MTY3LC03LjczNTkxKSI+JiN4YTsJCQkJPHRpdGxlIGlkPSJ0aXRsZTYzMTAwIj5TaGVldC4zODU5PC90aXRsZT4mI3hhOwkJCQk8cGF0aCBpZD0icGF0aDYzMTAyIiBpbmtzY2FwZTpjb25uZWN0b3ItY3VydmF0dXJlPSIwIiBzdHlsZT0iZmlsbDojRkZGRkZGOyIgZD0iTTIsNDcuNTdoMi45NHY0LjI0aDJ2LTkuODloLTJ2NEgydi00SDB2OS44OWgyICAgICAgVjQ3LjU3eiIvPiYjeGE7CQkJPC9nPiYjeGE7CQkJPGcgaWQ9InNoYXBlMzg2MC0yOCIgdHJhbnNmb3JtPSJ0cmFuc2xhdGUoMTUuNTczOCwtNy43MzU5MSkiPiYjeGE7CQkJCTx0aXRsZSBpZD0idGl0bGU2MzEwNSI+U2hlZXQuMzg2MDwvdGl0bGU+JiN4YTsJCQkJPHBhdGggaWQ9InBhdGg2MzEwNyIgaW5rc2NhcGU6Y29ubmVjdG9yLWN1cnZhdHVyZT0iMCIgc3R5bGU9ImZpbGw6I0ZGRkZGRjsiIGQ9Ik0yLjQxLDUxLjgxaDJ2LTguMjRoMi40N3YtMS42NUgwdjEuNjVoMi40MSAgICAgIFY1MS44MXoiLz4mI3hhOwkJCTwvZz4mI3hhOwkJCTxnIGlkPSJzaGFwZTM4NjEtMzAiIHRyYW5zZm9ybT0idHJhbnNsYXRlKDIzLjI3OTQsLTcuNzM1OTEpIj4mI3hhOwkJCQk8dGl0bGUgaWQ9InRpdGxlNjMxMTAiPlNoZWV0LjM4NjE8L3RpdGxlPiYjeGE7CQkJCTxwYXRoIGlkPSJwYXRoNjMxMTIiIGlua3NjYXBlOmNvbm5lY3Rvci1jdXJ2YXR1cmU9IjAiIHN0eWxlPSJmaWxsOiNGRkZGRkY7IiBkPSJNMi40MSw1MS44MWgydi04LjI0aDIuNDF2LTEuNjVIMHYxLjY1aDIuNDEgICAgICBWNTEuODF6Ii8+JiN4YTsJCQk8L2c+JiN4YTsJCQk8ZyBpZD0ic2hhcGUzODYyLTMyIiB0cmFuc2Zvcm09InRyYW5zbGF0ZSgzMC45ODUsLTcuNjc3MDkpIj4mI3hhOwkJCQk8dGl0bGUgaWQ9InRpdGxlNjMxMTUiPlNoZWV0LjM4NjI8L3RpdGxlPiYjeGE7CQkJCTxwYXRoIGlkPSJwYXRoNjMxMTciIGlua3NjYXBlOmNvbm5lY3Rvci1jdXJ2YXR1cmU9IjAiIHN0eWxlPSJmaWxsOiNGRkZGRkY7IiBkPSJNMiw0OC4yOGgxLjM1YzEsMCwxLjgzLTAuMywyLjQxLTAuODMgICAgICBjMC41OS0wLjUzLDAuODktMS4zNSwwLjg5LTIuMjlzLTAuMy0xLjc2LTAuODktMi4zNWMtMC41OC0wLjU5LTEuMzUtMC44OS0yLjM1LTAuODlIMHY5Ljg5aDJWNDguMjh6IE0yLDQzLjUxaDEuNDEgICAgICBjMC4zNSwwLDAuNjUsMC4xOCwwLjg4LDAuNDdjMC4yNCwwLjMsMC4zLDAuNzEsMC4zLDEuMThzLTAuMTIsMC44Mi0wLjMsMS4xMmMtMC4xNywwLjIzLTAuNDcsMC4zNS0wLjg4LDAuMzVIMi4wNnYtMy4xMkgyeiIvPiYjeGE7CQkJPC9nPiYjeGE7CQkJPGcgaWQ9InNoYXBlMzg2My0zNCIgdHJhbnNmb3JtPSJ0cmFuc2xhdGUoMzguMDQzNiwtNy42NzcwOSkiPiYjeGE7CQkJCTx0aXRsZSBpZD0idGl0bGU2MzEyMCI+U2hlZXQuMzg2MzwvdGl0bGU+JiN4YTsJCQkJPHBhdGggaWQ9InBhdGg2MzEyMiIgaW5rc2NhcGU6Y29ubmVjdG9yLWN1cnZhdHVyZT0iMCIgc3R5bGU9ImZpbGw6I0ZGRkZGRjsiIGQ9Ik0zLjQxLDUwLjIyYy0wLjQ3LDAtMC44OC0wLjEyLTEuMDYtMC40MSAgICAgIEMyLjEyLDQ5LjU3LDIsNDkuMTYsMiw0OC41N0gwYzAsMC42NSwwLjE4LDEuMjQsMC40NywxLjcxYzAuMjksMC40NywwLjcxLDAuODgsMS4yNCwxLjExYzAuNTMsMC4zLDEuMTEsMC40MiwxLjc2LDAuNDIgICAgICBjMC45NCwwLDEuNzEtMC4yNCwyLjI0LTAuNzFjMC41My0wLjQ3LDAuODItMS4xOCwwLjgyLTJjMC0wLjc2LTAuMjQtMS40MS0wLjY1LTEuOTRzLTEuMTItMC45NC0yLjEyLTEuMjkgICAgICBjLTAuNTItMC4yNC0wLjk0LTAuNDctMS4xNy0wLjcxYy0wLjI0LTAuMjQtMC4zLTAuNDctMC4zLTAuNzFjMC0wLjM1LDAuMTItMC42NCwwLjMtMC44MmMwLjE3LTAuMTgsMC40Ny0wLjI5LDAuODItMC4yOSAgICAgIHMwLjY1LDAuMTEsMC44OCwwLjM1YzAuMTgsMC4yMywwLjMsMC41OSwwLjMsMS4wNmgyYzAtMC41OS0wLjEyLTEuMTItMC4zNS0xLjU5QzYsNDIuNjksNS41OSw0Mi4zNCw1LjEyLDQyLjEgICAgICBjLTAuNDctMC4yMy0xLTAuMzUtMS42NS0wLjM1Yy0wLjg4LDAtMS42NSwwLjIzLTIuMjMsMC43NmMtMC41OSwwLjUzLTAuODksMS4xOC0wLjg5LDJjMCwwLjcxLDAuMjQsMS4zLDAuNjUsMS43NyAgICAgIGMwLjQxLDAuNTMsMS4xOCwwLjk0LDIuMTIsMS4zNWMwLjUzLDAuMjQsMC45NCwwLjQxLDEuMTIsMC42NWMwLjIzLDAuMjMsMC4yOSwwLjUzLDAuMjksMC45NEM0LjQ3LDQ5Ljg3LDQuMTIsNTAuMjIsMy40MSw1MC4yMiAgICAgIHoiLz4mI3hhOwkJCTwvZz4mI3hhOwkJPC9nPiYjeGE7CTwvZz4mI3hhOzwvZz4mI3hhOzwvc3ZnPg==;fontColor=#000000;" vertex="1" parent="1">
          <mxGeometry x="358" y="1022" width="64" height="50" as="geometry" />
        </mxCell>
        <mxCell id="izj6aGMY5wUGhT8EYzV--94" value="" style="shape=image;imageAspect=0;aspect=fixed;verticalLabelPosition=bottom;verticalAlign=top;image=https://cdn0.iconfinder.com/data/icons/outlined-emoticons-pack/200/emoticons_evil-1024.png;" vertex="1" parent="1">
          <mxGeometry x="410" y="879" width="90" height="90" as="geometry" />
        </mxCell>
        <mxCell id="izj6aGMY5wUGhT8EYzV--96" value="" style="shape=image;verticalLabelPosition=bottom;labelBackgroundColor=#ffffff;verticalAlign=top;aspect=fixed;imageAspect=0;image=data:image/svg+xml,PHN2ZyB4bWxuczpjYz0iaHR0cDovL2NyZWF0aXZlY29tbW9ucy5vcmcvbnMjIiB4bWxuczpkYz0iaHR0cDovL3B1cmwub3JnL2RjL2VsZW1lbnRzLzEuMS8iIHhtbG5zOmlua3NjYXBlPSJodHRwOi8vd3d3Lmlua3NjYXBlLm9yZy9uYW1lc3BhY2VzL2lua3NjYXBlIiB4bWxuczpyZGY9Imh0dHA6Ly93d3cudzMub3JnLzE5OTkvMDIvMjItcmRmLXN5bnRheC1ucyMiIHhtbG5zOnNvZGlwb2RpPSJodHRwOi8vc29kaXBvZGkuc291cmNlZm9yZ2UubmV0L0RURC9zb2RpcG9kaS0wLmR0ZCIgeG1sbnM6c3ZnPSJodHRwOi8vd3d3LnczLm9yZy8yMDAwL3N2ZyIgeG1sbnM9Imh0dHA6Ly93d3cudzMub3JnLzIwMDAvc3ZnIiB4bWxuczp4bGluaz0iaHR0cDovL3d3dy53My5vcmcvMTk5OS94bGluayIgdmVyc2lvbj0iMS4xIiBpZD0ic3ZnOTUwMjEiIGlua3NjYXBlOnZlcnNpb249IjAuOTIuMyAoMjQwNTU0NiwgMjAxOC0wMy0xMSkiIHNvZGlwb2RpOmRvY25hbWU9InJlbW92ZV8xLnN2ZyIgeD0iMHB4IiB5PSIwcHgiIHZpZXdCb3g9IjAgMCAzNS44NSAzNS44NSIgc3R5bGU9ImVuYWJsZS1iYWNrZ3JvdW5kOm5ldyAwIDAgMzUuODUgMzUuODU7IiB4bWw6c3BhY2U9InByZXNlcnZlIj4mI3hhOzxzb2RpcG9kaTpuYW1lZHZpZXcgYm9yZGVyY29sb3I9IiM2NjY2NjYiIGJvcmRlcm9wYWNpdHk9IjEiIGZpdC1tYXJnaW4tYm90dG9tPSIwIiBmaXQtbWFyZ2luLWxlZnQ9IjAiIGZpdC1tYXJnaW4tcmlnaHQ9IjAiIGZpdC1tYXJnaW4tdG9wPSIwIiBncmlkdG9sZXJhbmNlPSIxMCIgZ3VpZGV0b2xlcmFuY2U9IjEwIiBpZD0ibmFtZWR2aWV3OTUwMjMiIGlua3NjYXBlOmN1cnJlbnQtbGF5ZXI9InN2Zzk1MDIxIiBpbmtzY2FwZTpjeD0iMjMuODk5MTUyIiBpbmtzY2FwZTpjeT0iMjMuODk5OTUyIiBpbmtzY2FwZTpwYWdlb3BhY2l0eT0iMCIgaW5rc2NhcGU6cGFnZXNoYWRvdz0iMiIgaW5rc2NhcGU6d2luZG93LWhlaWdodD0iMTAxNyIgaW5rc2NhcGU6d2luZG93LW1heGltaXplZD0iMSIgaW5rc2NhcGU6d2luZG93LXdpZHRoPSIxOTIwIiBpbmtzY2FwZTp3aW5kb3cteD0iLTgiIGlua3NjYXBlOndpbmRvdy15PSItOCIgaW5rc2NhcGU6em9vbT0iMTguMTM4MDYzIiBvYmplY3R0b2xlcmFuY2U9IjEwIiBwYWdlY29sb3I9IiNmZmZmZmYiIHNob3dncmlkPSJmYWxzZSI+JiN4YTsJPC9zb2RpcG9kaTpuYW1lZHZpZXc+JiN4YTs8ZyBpZD0iZzk1MDE5IiB0cmFuc2Zvcm09InRyYW5zbGF0ZSgwLC00Ljk0NTM1NDVlLTUpIj4mI3hhOwk8dGl0bGUgaWQ9InRpdGxlOTQ5OTkiPlBhZ2UtMTwvdGl0bGU+JiN4YTsJPGcgaWQ9Imdyb3VwNTkwMS0xIj4mI3hhOwkJPHRpdGxlIGlkPSJ0aXRsZTk1MDAxIj5SZW1vdmUgIzE8L3RpdGxlPiYjeGE7CQk8ZyBpZD0ic2hhcGU1OTAyLTIiPiYjeGE7CQkJPHRpdGxlIGlkPSJ0aXRsZTk1MDAzIj5TaGVldC41OTAyPC90aXRsZT4mI3hhOwkJCTxwYXRoIGlkPSJwYXRoOTUwMDUiIGlua3NjYXBlOmNvbm5lY3Rvci1jdXJ2YXR1cmU9IjAiIHN0eWxlPSJmaWxsOiNGNEFFN0E7IiBkPSJNMzUuODUsMTcuOTNjMCw5LjkyLTguMDQsMTcuOTItMTcuOTMsMTcuOTIgICAgIEM4LDM1Ljg1LDAsMjcuODUsMCwxNy45M0MwLDguMDQsOCwwLDE3LjkyLDBDMjcuODEsMCwzNS44NSw4LjA0LDM1Ljg1LDE3LjkzeiIvPiYjeGE7CQk8L2c+JiN4YTsJCTxnIGlkPSJzaGFwZTU5MDMtNCIgdHJhbnNmb3JtPSJ0cmFuc2xhdGUoNi43NjAyNywtNi44Mzc3NykiPiYjeGE7CQkJPHRpdGxlIGlkPSJ0aXRsZTk1MDA4Ij5TaGVldC41OTAzPC90aXRsZT4mI3hhOwkJCTxwYXRoIGlkPSJwYXRoOTUwMTAiIGlua3NjYXBlOmNvbm5lY3Rvci1jdXJ2YXR1cmU9IjAiIHN0eWxlPSJmaWxsOiNGRkZGRkY7IiBkPSJNMjIuMzMsMzEuOTVsLTMuOSwzLjlMMCwxNy40NmwzLjk0LTMuOSAgICAgTDIyLjMzLDMxLjk1eiIvPiYjeGE7CQk8L2c+JiN4YTsJCTxnIGlkPSJzaGFwZTU5MDQtNiIgdHJhbnNmb3JtPSJ0cmFuc2xhdGUoNi43OTg5LC02LjgzNzc3KSI+JiN4YTsJCQk8dGl0bGUgaWQ9InRpdGxlOTUwMTMiPlNoZWV0LjU5MDQ8L3RpdGxlPiYjeGE7CQkJPHBhdGggaWQ9InBhdGg5NTAxNSIgaW5rc2NhcGU6Y29ubmVjdG9yLWN1cnZhdHVyZT0iMCIgc3R5bGU9ImZpbGw6I0ZGRkZGRjsiIGQ9Ik0xOC4zOSwxMy41NmwzLjksMy45TDMuOSwzNS44NUwwLDMxLjk1ICAgICBMMTguMzksMTMuNTZ6Ii8+JiN4YTsJCTwvZz4mI3hhOwk8L2c+JiN4YTs8L2c+JiN4YTs8L3N2Zz4=;" vertex="1" parent="1">
          <mxGeometry x="929" y="590" width="20" height="20" as="geometry" />
        </mxCell>
      </root>
    </mxGraphModel>
  </diagram>
</mxfile>
